junction_regular.sfdir

StartChar: exclam
Encoding: 33 33 74
Width: 292
Flags: MW
HStem: -7 111 800 20G<96 195 195 195>
VStem: 89 111 105 79
LayerCount: 2
Fore
SplineSet
182 184 m 1
 109 184 l 1
 96 820 l 1
 195 820 l 1
 182 184 l 1
84 56 m 0
 84 91 111 117 147 117 c 0
 182 117 208 91 208 56 c 0
 208 20 182 -7 147 -7 c 0
 111 -7 84 20 84 56 c 0
EndSplineSet
EndChar

StartChar: quotedbl
Encoding: 34 34 78
Width: 376
Flags: MW
HStem: 526 21G 659 111
VStem: 44 117<698 710 687 730> 215 117<698 710 687 730>
LayerCount: 2
Fore
SplineSet
215 714 m 0
 215 746 239 769 271 769 c 0
 314 769 332 733 332 687 c 0
 331 632 305 569 263 517 c 1
 217 542 l 1
 246 578 268 614 275 658 c 1
 239 658 215 682 215 714 c 0
44 714 m 0
 44 746 68 769 100 769 c 0
 143 769 161 733 161 687 c 0
 160 632 134 569 92 517 c 1
 46 542 l 1
 75 578 97 614 104 658 c 1
 68 658 44 682 44 714 c 0
EndSplineSet
EndChar

StartChar: numbersign
Encoding: 35 35 88
Width: 823
Flags: MW
HStem: 0 21G<145 219 145 145 395 469 395 395> 239 72<56 203 39 221 295 453 56 277 545 712> 488 72<94 282 111 264 356 514 111 338 606 767> 750 20G<334 408 408 408 584 658 658 658>
LayerCount: 2
Fore
SplineSet
94 488 m 1
 111 560 l 1
 282 560 l 1
 334 770 l 1
 408 770 l 1
 356 560 l 1
 532 560 l 1
 584 770 l 1
 658 770 l 1
 606 560 l 1
 784 560 l 1
 767 488 l 1
 588 488 l 1
 545 311 l 1
 729 311 l 1
 712 239 l 1
 527 239 l 1
 469 0 l 1
 395 0 l 1
 453 239 l 1
 277 239 l 1
 219 0 l 1
 145 0 l 1
 203 239 l 1
 39 239 l 1
 56 311 l 1
 221 311 l 1
 264 488 l 1
 94 488 l 1
338 488 m 1
 295 311 l 1
 471 311 l 1
 514 488 l 1
 338 488 l 1
EndSplineSet
EndChar

StartChar: dollar
Encoding: 36 36 69
Width: 618
Flags: MW
HStem: -68 21G 821 20G
VStem: 84 84 289 64 502 84
LayerCount: 2
Fore
SplineSet
282 -67 m 1
 282 -14 l 1
 182 -2 111 43 54 134 c 1
 116 189 l 1
 160 118 211 78 282 66 c 1
 282 365 l 1
 175 400 81 445 83 573 c 0
 85 738 206 778 282 785 c 1
 282 842 l 1
 350 842 l 1
 350 783 l 1
 423 774 475 743 520 690 c 1
 460 639 l 1
 429 671 397 694 350 702 c 1
 350 436 l 1
 461 400 569 347 569 205 c 0
 569 66 468 -6 350 -16 c 1
 350 -67 l 1
 282 -67 l 1
483 205 m 0
 483 284 423 318 350 344 c 1
 350 64 l 1
 424 73 483 119 483 205 c 0
169 573 m 0
 166 512 217 481 282 458 c 1
 282 704 l 1
 235 698 173 670 169 573 c 0
EndSplineSet
EndChar

StartChar: percent
Encoding: 37 37 85
Width: 1001
Flags: MW
HStem: -47 21G<160 256 160 160> -7 56 360 53 723 56 794 20G<740 836 836 836>
VStem: 59 75 363 75 569 76 873 75
LayerCount: 2
Fore
SplineSet
59 570 m 1
 60 732 161 778 248 779 c 1
 337 779 438 733 438 568 c 1
 437 406 336 360 249 360 c 0
 162 360 59 407 59 570 c 1
740 814 m 1
 836 814 l 1
 256 -47 l 1
 160 -47 l 1
 740 814 l 1
248 713 m 1
 195 712 144 689 144 570 c 0
 144 450 196 426 249 426 c 0
 302 426 352 449 353 568 c 1
 353 690 302 713 248 713 c 1
563 195 m 1
 564 357 665 403 752 404 c 1
 841 404 942 358 942 193 c 1
 941 31 840 -15 753 -15 c 0
 666 -15 563 32 563 195 c 1
752 338 m 1
 699 337 648 314 648 195 c 0
 648 75 700 51 753 51 c 0
 806 51 856 74 857 193 c 1
 857 315 806 338 752 338 c 1
EndSplineSet
EndChar

StartChar: ampersand
Encoding: 38 38 67
Width: 884
Flags: MW
HStem: -7 84 710 60
VStem: 59 84<155.5 240 155.5 253> 133 84<588 645.5 588 668.5> 469 84<576 645.5>
LayerCount: 2
Fore
SplineSet
59 200 m 0x00
 59 306 141 369 236 422 c 1
 175 489 133 546 133 606 c 0xe8
 133 731 245 770 345 770 c 0
 445 770 553 731 553 606 c 0
 553 519 461 464 359 412 c 1
 409 357 479 281 543 215 c 1
 576 267 599 321 629 381 c 1
 694 349 l 1
 661 283 631 217 596 160 c 1
 648 109 689 78 699 75 c 0
 721 68 745 74 770 131 c 1
 830 96 l 1
 784 -9 735 -11 699 -5 c 0
 673 -1 616 35 550 96 c 1
 496 34 423 -7 310 -7 c 0
 207 -7 59 49 59 200 c 0x00
283 373 m 1
 207 331 143 280 143 200 c 0
 143 111 264 74 310 74 c 0
 393 75 450 107 494 151 c 1
 419 226 340 312 283 373 c 1
469 606 m 0
 469 685 405 708 345 708 c 0
 285 708 217 685 217 606 c 0xe8
 217 570 256 521 312 462 c 1
 393 503 469 546 469 606 c 0
EndSplineSet
EndChar

StartChar: quotesingle
Encoding: 39 39 82
Width: 205
Flags: MW
HStem: 526 21G 750 20G<84 121.5>
VStem: 43 117
LayerCount: 2
Fore
SplineSet
44 715 m 0
 44 747 68 770 100 770 c 0
 143 770 161 734 161 688 c 0
 160 633 134 570 92 518 c 1
 46 543 l 1
 75 579 97 615 104 659 c 1
 68 659 44 683 44 715 c 0
EndSplineSet
EndChar

StartChar: parenleft
Encoding: 40 40 75
Width: 336
Flags: MW
HStem: -261 21G<301 301> 750 20G<301 301>
VStem: 59 84<192 316.5 192 326>
LayerCount: 2
Fore
SplineSet
301 770 m 1
 307 700 l 1
 174 653 143 379 143 254 c 0
 143 130 174 -145 307 -191 c 1
 301 -261 l 1
 109 -241 59 109 59 254 c 0
 59 398 110 754 301 770 c 1
EndSplineSet
EndChar

StartChar: parenright
Encoding: 41 41 77
Width: 336
Flags: MW
HStem: -261 21G<35 35> 750 20G<35 35>
VStem: 193 84<192 316.5>
LayerCount: 2
Fore
SplineSet
29 700 m 1
 35 770 l 1
 226 754 277 398 277 254 c 0
 277 109 227 -241 35 -261 c 1
 29 -191 l 1
 162 -145 193 130 193 254 c 0
 193 379 162 653 29 700 c 1
EndSplineSet
EndChar

StartChar: asterisk
Encoding: 42 42 91
Width: 616
Flags: MW
HStem: 277 21G<170 170 447 447> 750 20G<273 343 343 343>
VStem: 274 68
LayerCount: 2
Fore
SplineSet
48 567 m 1
 73 632 l 1
 275 551 l 1
 273 770 l 1
 343 770 l 1
 341 551 l 1
 543 632 l 1
 568 567 l 1
 361 486 l 1
 505 326 l 1
 447 277 l 1
 308 449 l 1
 170 277 l 1
 110 326 l 1
 254 486 l 1
 48 567 l 1
EndSplineSet
EndChar

StartChar: plus
Encoding: 43 43 83
Width: 648
Flags: MW
HStem: 0 21G<285 352 285 285> 242 67<49 285 49 285 352 599> 530 20G<285 352 352 352>
VStem: 285 67<0 242 309 550>
LayerCount: 2
Fore
SplineSet
352 0 m 1
 285 0 l 1
 285 242 l 1
 49 242 l 1
 49 309 l 1
 285 309 l 1
 285 550 l 1
 352 550 l 1
 352 309 l 1
 599 309 l 1
 599 242 l 1
 352 242 l 1
 352 0 l 1
EndSplineSet
EndChar

StartChar: comma
Encoding: 44 44 22
Width: 200
Flags: MW
HStem: -140 21G 84 20G<79 116.5>
VStem: 39 117<33 45 22 65>
LayerCount: 2
Fore
SplineSet
39 49 m 0
 39 81 63 104 95 104 c 0
 138 104 156 68 156 22 c 0
 155 -33 129 -96 87 -148 c 1
 41 -123 l 1
 70 -87 92 -51 99 -7 c 1
 63 -7 39 17 39 49 c 0
EndSplineSet
EndChar

StartChar: hyphen
Encoding: 45 45 27
Width: 344
Flags: MW
HStem: 240 70<54 290 54 290>
LayerCount: 2
Fore
SplineSet
290 310 m 1
 290 240 l 1
 54 240 l 1
 54 310 l 1
 290 310 l 1
EndSplineSet
EndChar

StartChar: period
Encoding: 46 46 21
Width: 205
Flags: MW
HStem: -7 111
VStem: 45 111
LayerCount: 2
Fore
SplineSet
44 53 m 0
 44 86 69 110 104 110 c 0
 137 110 161 86 161 53 c 0
 161 18 137 -7 104 -7 c 0
 69 -7 44 18 44 53 c 0
EndSplineSet
EndChar

StartChar: slash
Encoding: 47 47 73
Width: 352
Flags: MW
HStem: -260 21G 750 20G<250 333 333 333>
LayerCount: 2
Fore
SplineSet
250 770 m 1
 333 770 l 1
 102 0 l 1
 19 0 l 1
 250 770 l 1
EndSplineSet
EndChar

StartChar: zero
Encoding: 48 48 57
Width: 610
Flags: MW
HStem: -11 74 503 74
VStem: 29 84 437 84
LayerCount: 2
Fore
SplineSet
59 279 m 0
 59 504 187 573 305 573 c 0
 423 573 551 504 551 279 c 0
 551 54 423 -15 305 -15 c 0
 187 -15 59 54 59 279 c 0
467 279 m 0
 467 448 383 499 305 499 c 0
 227 499 143 448 143 279 c 0
 143 110 227 59 305 59 c 0
 383 59 467 110 467 279 c 0
EndSplineSet
Substitution2: "'lnum' Lining Figures in Latin lookup 1 subtable" zero.lnum
Substitution2: "'aalt' Access All Alternates in Latin lookup 0 subtable" zero.lnum
EndChar

StartChar: one
Encoding: 49 49 58
Width: 363
Flags: MW
HStem: 0 21G<192 281 192 192> 545 20G<192 281 281 281>
VStem: 192 81
LayerCount: 2
Fore
SplineSet
281 0 m 1
 192 0 l 1
 192 470 l 1
 103 395 l 1
 49 457 l 1
 192 565 l 1
 281 565 l 1
 281 0 l 1
EndSplineSet
Substitution2: "'lnum' Lining Figures in Latin lookup 1 subtable" one.lnum
Substitution2: "'aalt' Access All Alternates in Latin lookup 0 subtable" one.lnum
EndChar

StartChar: two
Encoding: 50 50 59
Width: 536
Flags: MW
HStem: 0 73 497 80
VStem: 359 85
LayerCount: 2
Fore
SplineSet
112 401 m 1
 112 401 58 455 58 456 c 0
 87 504 148 576 258 577 c 1
 373 577 448 514 448 396 c 0
 448 275 262 124 184 76 c 1
 482 76 l 1
 482 0 l 1
 49 0 l 1
 49 64 l 1
 51 64 363 286 363 396 c 1
 362 469 316 501 257 500 c 0
 160 499 112 401 112 401 c 1
EndSplineSet
Substitution2: "'lnum' Lining Figures in Latin lookup 1 subtable" two.lnum
Substitution2: "'aalt' Access All Alternates in Latin lookup 0 subtable" two.lnum
EndChar

StartChar: three
Encoding: 51 51 60
Width: 543
Flags: MW
HStem: -215 81 496 81
VStem: 312 82 399 85
LayerCount: 2
Fore
SplineSet
102 428 m 1
 55 474 l 1
 55 474 108 576 230 576 c 0
 320 576 398 511 398 419 c 0
 398 357 354 311 310 276 c 1
 403 264 482 189 485 88 c 1
 485 -113 317 -204 199 -204 c 1
 104 -205 34 -143 34 -143 c 1
 87 -93 l 1
 87 -93 125 -127 199 -124 c 1
 281 -124 403 -59 403 88 c 0
 403 150 347 209 282 209 c 0
 211 209 142 183 141 184 c 1
 141 252 l 1
 234 287 316 336 316 419 c 0
 316 467 275 497 231 497 c 0
 139 497 102 428 102 428 c 1
EndSplineSet
Substitution2: "'lnum' Lining Figures in Latin lookup 1 subtable" three.lnum
Substitution2: "'aalt' Access All Alternates in Latin lookup 0 subtable" three.lnum
EndChar

StartChar: four
Encoding: 52 52 61
Width: 621
Flags: MW
HStem: -215 21G 0 73<144 144 144 398> 545 20G
VStem: 399 81
LayerCount: 2
Fore
SplineSet
592 76 m 1
 592 0 l 1
 487 0 l 1
 487 -204 l 1
 398 -204 l 1
 398 0 l 1
 34 0 l 1
 34 47 l 1
 426 566 l 1
 487 566 l 1
 487 76 l 1
 592 76 l 1
163 76 m 1
 398 76 l 1
 398 412 l 1
 158 87 l 1
 144 73 l 1
 144 72 l 1
 163 76 l 1
EndSplineSet
Substitution2: "'lnum' Lining Figures in Latin lookup 1 subtable" four.lnum
Substitution2: "'aalt' Access All Alternates in Latin lookup 0 subtable" four.lnum
EndChar

StartChar: five
Encoding: 53 53 62
Width: 596
Flags: MW
HStem: -215 81 203 110 240 73 489 76
VStem: 98 81 451 86
LayerCount: 2
Fore
SplineSet
178 490 m 1
 178 290 l 1
 207 303 238 316 289 316 c 0
 449 316 533 220 533 91 c 0
 533 -119 425 -204 278 -204 c 0
 147 -204 69 -118 69 -118 c 1
 117 -59 l 1
 117 -59 189 -130 278 -130 c 0
 374 -130 452 -66 452 89 c 0
 452 158 400 243 289 243 c 0
 244 243 199 236 156 207 c 1
 90 207 l 1
 90 565 l 1
 476 565 l 1
 476 490 l 1
 178 490 l 1
EndSplineSet
Substitution2: "'lnum' Lining Figures in Latin lookup 1 subtable" five.lnum
Substitution2: "'aalt' Access All Alternates in Latin lookup 0 subtable" five.lnum
EndChar

StartChar: six
Encoding: 54 54 63
Width: 608
Flags: MW
HStem: -7 74 400 74 708 77
VStem: 64 81 476 84
LayerCount: 2
Fore
SplineSet
340 461 m 0
 452 461 549 403 549 237 c 0
 549 144 493 -15 316 -15 c 0
 155 -15 63 114 63 344 c 0
 63 570 182 765 346 765 c 0
 433 765 503 711 518 700 c 1
 465 645 l 1
 465 645 417 686 350 686 c 0
 196 686 145 464 142 331 c 1
 208 433 280 461 340 461 c 0
316 58 m 0
 430 58 466 172 466 237 c 0
 466 350 407 387 340 387 c 0
 284 387 213 353 153 225 c 1
 174 118 232 58 316 58 c 0
EndSplineSet
Substitution2: "'lnum' Lining Figures in Latin lookup 1 subtable" six.lnum
Substitution2: "'aalt' Access All Alternates in Latin lookup 0 subtable" six.lnum
EndChar

StartChar: seven
Encoding: 55 55 64
Width: 506
Flags: MW
HStem: -215 21G 485 80
LayerCount: 2
Fore
SplineSet
45 483 m 1
 45 566 l 1
 477 566 l 1
 477 507 l 1
 397 338 144 -154 61 -190 c 1
 4 -137 l 1
 66 -99 279 286 375 483 c 1
 45 483 l 1
EndSplineSet
Substitution2: "'lnum' Lining Figures in Latin lookup 1 subtable" seven.lnum
Substitution2: "'aalt' Access All Alternates in Latin lookup 0 subtable" seven.lnum
EndChar

StartChar: eight
Encoding: 56 56 66
Width: 582
Flags: MW
HStem: 717 64
VStem: 54 85 74 85 413 85 433 85
LayerCount: 2
Fore
SplineSet
499 601 m 0x00
 499 498 402 422 346 388 c 1
 434 326 518 256 518 164 c 0
 518 -24 303 -15 290 -15 c 0
 278 -15 64 -21 64 164 c 1xb0
 65 267 152 349 217 389 c 1
 143 448 83 517 83 601 c 0
 83 725 192 765 290 765 c 0
 388 765 499 725 499 601 c 0x00
435 164 m 0xd0
 435 224 358 287 272 350 c 1
 217 315 151 251 145 164 c 1
 145 51 282 55 290 55 c 0
 299 55 435 50 435 164 c 0xd0
287 431 m 1
 325 451 415 512 415 601 c 0
 415 679 350 700 290 700 c 0
 231 700 165 679 165 601 c 0xc8
 165 537 223 483 287 431 c 1
EndSplineSet
Substitution2: "'lnum' Lining Figures in Latin lookup 1 subtable" eight.lnum
Substitution2: "'aalt' Access All Alternates in Latin lookup 0 subtable" eight.lnum
EndChar

StartChar: nine
Encoding: 57 57 65
Width: 608
Flags: MW
HStem: -215 77 96 74 503 74
VStem: 61 84 476 81
LayerCount: 2
Fore
SplineSet
268 89 m 0
 156 89 59 147 59 313 c 0
 59 406 115 565 292 565 c 0
 453 565 545 436 545 206 c 0
 545 -20 426 -215 262 -215 c 0
 175 -215 105 -161 90 -150 c 1
 143 -95 l 1
 143 -95 191 -136 258 -136 c 0
 412 -136 463 86 466 219 c 1
 400 117 328 89 268 89 c 0
292 492 m 0
 178 492 142 378 142 313 c 0
 142 200 201 163 268 163 c 0
 324 163 395 197 455 325 c 1
 434 432 376 492 292 492 c 0
EndSplineSet
Substitution2: "'lnum' Lining Figures in Latin lookup 1 subtable" nine.lnum
Substitution2: "'aalt' Access All Alternates in Latin lookup 0 subtable" nine.lnum
EndChar

StartChar: colon
Encoding: 58 58 23
Width: 255
Flags: MW
HStem: -7 111 359 111
VStem: 72 111
LayerCount: 2
Fore
SplineSet
69 53 m 0
 69 86 94 110 129 110 c 0
 162 110 186 86 186 53 c 0
 186 18 162 -7 129 -7 c 0
 94 -7 69 18 69 53 c 0
69 413 m 0
 69 446 94 470 129 470 c 0
 162 470 186 446 186 413 c 0
 186 378 162 353 129 353 c 0
 94 353 69 378 69 413 c 0
EndSplineSet
EndChar

StartChar: semicolon
Encoding: 59 59 24
Width: 260
Flags: MW
HStem: -140 21G 359 111
VStem: 72 117
LayerCount: 2
Fore
SplineSet
74 49 m 0
 74 81 98 104 130 104 c 0
 173 104 191 68 191 22 c 0
 190 -33 164 -96 122 -148 c 1
 76 -123 l 1
 105 -87 127 -51 134 -7 c 1
 98 -7 74 17 74 49 c 0
69 413 m 0
 69 446 94 470 129 470 c 0
 162 470 186 446 186 413 c 0
 186 378 162 353 129 353 c 0
 94 353 69 378 69 413 c 0
EndSplineSet
EndChar

StartChar: less
Encoding: 60 60 89
Width: 698
Flags: MW
HStem: -7 21G<629 629> 547 20G<629 629>
LayerCount: 2
Fore
SplineSet
74 244 m 1
 74 316 l 1
 629 567 l 1
 629 495 l 1
 153 280 l 1
 629 65 l 1
 629 -7 l 1
 74 244 l 1
EndSplineSet
EndChar

StartChar: equal
Encoding: 61 61 86
Width: 659
Flags: MW
HStem: 168 67<54 605 54 605> 328 67<54 605 54 605>
LayerCount: 2
Fore
SplineSet
605 395 m 1
 605 328 l 1
 54 328 l 1
 54 395 l 1
 605 395 l 1
605 235 m 1
 605 168 l 1
 54 168 l 1
 54 235 l 1
 605 235 l 1
EndSplineSet
EndChar

StartChar: greater
Encoding: 62 62 90
Width: 698
Flags: MW
HStem: -7 21G<69 69> 547 20G<69 69>
LayerCount: 2
Fore
SplineSet
624 316 m 1
 624 244 l 1
 69 -7 l 1
 69 65 l 1
 544 280 l 1
 69 495 l 1
 69 567 l 1
 624 316 l 1
EndSplineSet
EndChar

StartChar: question
Encoding: 63 63 25
Width: 502
Flags: MW
HStem: -7 111<234 266> 750 70<207.5 315.5>
VStem: 157 77<277 307 277 326> 194 111<33 65> 383 84<640 660>
LayerCount: 2
Fore
SplineSet
383 640 m 1xe8
 383 680 372 750 259 750 c 0
 156 750 93 630 93 630 c 1
 40 680 l 1
 40 680 119 820 259 820 c 0
 438 820 467 706 467 640 c 0
 467 532 385 461 314 397 c 0
 270 357 234 321 234 293 c 0
 234 261 253 243 287 213 c 1
 229 165 l 1
 187 203 157 232 157 294 c 0
 157 358 202 404 261 457 c 0
 318 509 380 570 383 640 c 1xe8
194 49 m 0xd8
 194 81 218 104 250 104 c 0
 282 104 305 81 305 49 c 0
 305 17 282 -7 250 -7 c 0
 218 -7 194 17 194 49 c 0xd8
EndSplineSet
EndChar

StartChar: at
Encoding: 64 64 72
Width: 1060
Flags: MW
HStem: -197 80<442.5 604.5 442.5 613.5> 19 60 519 60 690 80<442.5 672.5>
VStem: 54 80<151 371 151 393> 285 80<168 298 168 316> 926 80<348 429>
LayerCount: 2
Fore
SplineSet
420 19 m 0
 324 20 285 95 285 206 c 0
 285 426 450 579 561 579 c 0
 611 579 662 567 706 499 c 1
 714 535 720 558 720 558 c 1
 798 540 l 1
 798 540 696 87 696 82 c 1
 705 73 936 120 926 348 c 1
 926 510 792 690 553 690 c 0
 332 690 134 481 134 261 c 0
 134 41 332 -117 553 -117 c 0
 656 -117 733 -107 877 12 c 1
 927 -50 l 1
 763 -185 674 -197 553 -197 c 0
 288 -197 54 -3 54 261 c 0
 54 525 288 770 553 770 c 0
 844 770 1006 552 1006 348 c 0
 1006 76 758 19 683 19 c 0
 624 19 610 56 621 108 c 1
 569 62 499 18 420 19 c 0
365 206 m 0
 365 130 381 87 421 85 c 1
 531 83 630 212 649 239 c 1
 686 407 l 1
 646 504 603 514 561 514 c 0
 482 514 365 390 365 206 c 0
EndSplineSet
EndChar

StartChar: B
Encoding: 66 66 31
Width: 635
Flags: MW
HStem: -20 20G<84 172 84 84 172 312> -12 82 358 70 699 82
VStem: 114 88 488 84
LayerCount: 2
Fore
SplineSet
299 775 m 0x7c
 440 775 534 726 542 558 c 1
 541 477 509 429 464 400 c 1
 558 359 576 273 576 227 c 0
 576 167 576 -3 312 0 c 0
 271 0 249 0 172 0 c 2
 84 0 l 1xbc
 84 757 l 1
 134 762 208 775 299 775 c 0x7c
172 351 m 1
 172 76 l 1
 235 76 249 76 312 76 c 0
 487 76 490 173 490 227 c 0
 490 260 472 351 325 351 c 0
 251 351 218 351 172 351 c 1
457 560 m 1
 456 662 404 692 339 698 c 0
 280 703 220 696 172 690 c 1
 172 427 l 1
 326 427 449 412 457 560 c 1
EndSplineSet
EndChar

StartChar: F
Encoding: 70 70 37
Width: 538
Flags: MW
HStem: 0 21G<84 172 84 84> 360 76 684 86 755 20G<507 507>
VStem: 84 88<0 361 437 696>
LayerCount: 2
Fore
SplineSet
172 0 m 1x00
 84 0 l 1
 84 770 l 1
 402 770 l 2xd8
 467 770 507 775 507 775 c 1xe8
 507 696 l 1
 172 696 l 1
 172 437 l 1
 457 437 l 1
 457 361 l 1
 172 361 l 1
 172 0 l 1x00
EndSplineSet
EndChar

StartChar: G
Encoding: 71 71 32
Width: 748
Flags: MW
HStem: -12 86 305 86 700 80
VStem: 61 91 582 78
LayerCount: 2
Fore
SplineSet
663 378 m 1
 663 147 l 2
 663 56 539 -13 422 -15 c 1
 127 -15 59 209 59 368 c 0
 59 680 266 785 417 785 c 0
 573 785 657 667 657 667 c 1
 598 609 l 1
 598 609 534 709 421 709 c 0
 313 709 150 615 150 368 c 0
 150 246 199 65 418 65 c 0
 477 65 579 109 579 156 c 2
 579 300 l 1
 489 300 l 2
 465 300 426 298 398 313 c 1
 398 385 l 1
 430 377 469 378 492 378 c 2
 663 378 l 1
EndSplineSet
EndChar

StartChar: H
Encoding: 72 72 38
Width: 740
Flags: MW
HStem: 0 21G<84 172 84 84 568 568 568 656> 360 76<172 568 172 568> 750 20G<84 172 172 172 568 656 656 656>
VStem: 84 88<0 360 436 770> 568 88<0 360 360 360 436 770 0 770>
LayerCount: 2
Fore
SplineSet
172 0 m 1
 84 0 l 1
 84 770 l 1
 172 770 l 1
 172 436 l 1
 568 436 l 1
 568 770 l 1
 656 770 l 1
 656 0 l 1
 568 0 l 1
 568 360 l 1
 172 360 l 1
 172 0 l 1
EndSplineSet
EndChar

StartChar: I
Encoding: 73 73 39
Width: 256
Flags: MW
HStem: 0 21G<84 172 84 84> 750 20G<84 172 172 172>
VStem: 84 88<0 770>
LayerCount: 2
Fore
SplineSet
172 0 m 1
 84 0 l 1
 84 770 l 1
 172 770 l 1
 172 0 l 1
EndSplineSet
EndChar

StartChar: J
Encoding: 74 74 40
Width: 284
Flags: MW
HStem: -259 21G<21 21> 750 20G<113 201 201 201>
VStem: 113 88<-17 770>
LayerCount: 2
Fore
SplineSet
113 770 m 1
 201 770 l 1
 201 -17 l 2
 201 -178 89 -237 21 -259 c 1
 -11 -180 l 1
 50 -163 113 -116 113 -17 c 2
 113 770 l 1
EndSplineSet
EndChar

StartChar: K
Encoding: 75 75 42
Width: 612
Flags: MW
HStem: 0 21G<84 172 84 84 494 597 494 494 597 598> 750 20G<84 172 172 172 438 547 547 547>
VStem: 84 88<0 338 429 770>
LayerCount: 2
Fore
SplineSet
84 770 m 1
 172 770 l 1
 172 429 l 1
 438 770 l 1
 547 770 l 1
 265 410 l 1
 291 407 335 386 365 354 c 0
 409 307 539 68 598 0 c 1
 597 0 l 1
 494 0 l 1
 460 36 339 255 308 294 c 0
 273 338 226 350 172 338 c 1
 172 0 l 1
 84 0 l 1
 84 770 l 1
EndSplineSet
EndChar

StartChar: L
Encoding: 76 76 43
Width: 555
Flags: MW
HStem: 0 86 750 20G<84 172 172 172>
VStem: 84 88<76 770 76 770 76 770>
LayerCount: 2
Fore
SplineSet
84 0 m 1
 84 770 l 1
 172 770 l 1
 172 76 l 1
 416 76 l 2
 481 76 521 81 521 81 c 1
 521 0 l 1
 84 0 l 1
EndSplineSet
EndChar

StartChar: M
Encoding: 77 77 44
Width: 849
Flags: MW
HStem: 0 21G<84 172 84 84 382 382 382 467 677 677 677 765> 750 20G<84 172 172 172 677 765 765 765>
VStem: 84 88<0 540> 677 88<0 540 540 540 0 770>
LayerCount: 2
Fore
SplineSet
172 0 m 1
 84 0 l 1
 84 770 l 1
 172 770 l 1
 423 110 l 1
 424 103 l 1
 425 110 l 1
 677 770 l 1
 765 770 l 1
 765 0 l 1
 677 0 l 1
 677 540 l 1
 678 557 l 1
 674 540 l 1
 467 0 l 1
 382 0 l 1
 175 540 l 1
 171 556 l 1
 172 540 l 1
 172 0 l 1
EndSplineSet
EndChar

StartChar: N
Encoding: 78 78 45
Width: 722
Flags: MW
HStem: 0 21G<84 172 84 84 550 550 550 638> 750 20G<84 172 172 172 550 638 638 638>
VStem: 84 88<0 608 769 770> 550 88<0 1 1 1 164 770 0 770>
LayerCount: 2
Fore
SplineSet
172 0 m 1
 84 0 l 1
 84 770 l 1
 172 770 l 1
 172 769 l 1
 544 164 l 1
 551 150 l 1
 550 164 l 1
 550 770 l 1
 638 770 l 1
 638 0 l 1
 550 0 l 1
 550 1 l 1
 178 608 l 1
 171 622 l 1
 172 608 l 1
 172 0 l 1
EndSplineSet
EndChar

StartChar: P
Encoding: 80 80 48
Width: 617
Flags: MW
HStem: 0 21G<84 172 84 84> 231 76 698 82
VStem: 129 88 528 84
LayerCount: 2
Fore
SplineSet
172 0 m 1
 84 0 l 1
 84 770 l 1
 172 770 l 1
 172 740 l 1
 218 767 277 785 336 785 c 0
 473 785 568 681 568 532 c 0
 568 340 479 240 329 240 c 0
 261 240 213 264 172 292 c 1
 172 0 l 1
483 532 m 0
 483 635 417 708 307 708 c 0
 260 708 215 689 172 657 c 1
 172 385 l 1
 218 344 273 320 333 320 c 0
 422 320 483 389 483 532 c 0
EndSplineSet
EndChar

StartChar: Q
Encoding: 81 81 47
Width: 755
Flags: MW
HStem: -132 82 -132 202 698 82
VStem: 60 88 611 88
LayerCount: 2
Fore
SplineSet
380 785 m 0
 527 785 695 695 696 386 c 0
 696 103 566 5 426 -12 c 1
 444 -33 472 -61 534 -61 c 0
 562 -61 595 -56 628 -45 c 1
 650 -117 l 1
 623 -129 564 -134 534 -134 c 0
 404 -132 343 -54 326 -11 c 1
 193 7 59 106 59 384 c 0
 59 697 230 785 380 785 c 0
380 710 m 0
 276 710 147 631 147 386 c 0
 147 137 276 61 377 61 c 0
 487 61 607 136 608 384 c 0
 608 628 487 710 380 710 c 0
EndSplineSet
EndChar

StartChar: R
Encoding: 82 82 49
Width: 653
Flags: MW
HStem: 0 21G<84 172 84 84 536 536 536 643> 318 72 698 82
VStem: 84 88<0 322 397 657 739 770> 468 84
LayerCount: 2
Fore
SplineSet
172 0 m 1
 84 0 l 1
 84 770 l 1
 172 770 l 1
 172 739 l 1
 225 772 278 784 341 785 c 1
 467 785 546 701 554 565 c 1
 553 408 466 347 380 329 c 1
 468 258 547 76 643 2 c 1
 643 0 l 1
 536 0 l 1
 449 69 358 290 253 322 c 1
 225 322 201 322 172 322 c 1
 172 0 l 1
320 397 m 1
 384 398 467 429 468 565 c 0
 468 650 414 706 327 706 c 0
 269 706 221 690 172 657 c 1
 172 397 l 1
 320 397 l 1
EndSplineSet
EndChar

StartChar: S
Encoding: 83 83 50
Width: 618
Flags: MW
HStem: -11 80 701 80
VStem: 75 84 493 84
LayerCount: 2
Fore
SplineSet
54 136 m 1
 116 191 l 1
 168 107 230 67 323 65 c 1
 409 65 483 112 483 208 c 0
 483 302 399 329 307 357 c 0
 190 393 81 434 83 572 c 0
 86 755 234 785 305 785 c 0
 403 785 467 752 520 689 c 1
 460 638 l 1
 421 679 379 705 305 705 c 0
 260 705 174 687 169 572 c 0
 166 496 245 467 331 441 c 0
 448 405 569 358 569 208 c 0
 569 58 451 -15 321 -15 c 1
 200 -11 118 34 54 136 c 1
EndSplineSet
EndChar

StartChar: T
Encoding: 84 84 46
Width: 556
Flags: MW
HStem: 0 21G<232 320 232 232> 694 76<7 549 7 232 320 320 320 549>
VStem: 232 88<0 694 0 694>
LayerCount: 2
Fore
SplineSet
7 694 m 1
 7 770 l 1
 549 770 l 1
 549 694 l 1
 320 694 l 1
 320 0 l 1
 232 0 l 1
 232 694 l 1
 7 694 l 1
EndSplineSet
EndChar

StartChar: V
Encoding: 86 86 53
Width: 684
Flags: MW
HStem: 0 21G<296 388 296 296> 750 20G<22 115 115 115 569 662 662 662>
LayerCount: 2
Fore
SplineSet
388 0 m 1
 296 0 l 1
 22 770 l 1
 115 770 l 1
 339 137 l 1
 342 124 l 1
 345 137 l 1
 569 770 l 1
 662 770 l 1
 388 0 l 1
EndSplineSet
EndChar

StartChar: W
Encoding: 87 87 54
Width: 976
Flags: MW
HStem: 0 21G<243 316 243 243 660 660 660 733> 750 20G<25 115 115 115 441 534 534 534 860 951 951 951>
LayerCount: 2
Fore
SplineSet
316 0 m 1
 243 0 l 1
 25 770 l 1
 115 770 l 1
 277 160 l 1
 279 148 l 1
 281 160 l 1
 441 770 l 1
 534 770 l 1
 694 158 l 1
 696 146 l 1
 698 158 l 1
 860 770 l 1
 951 770 l 1
 733 0 l 1
 660 0 l 1
 490 594 l 1
 487 612 l 1
 484 594 l 1
 316 0 l 1
EndSplineSet
EndChar

StartChar: X
Encoding: 88 88 55
Width: 655
Flags: MW
HStem: 0 21G<29 137 29 29 519 626 519 519> 750 20G<29 134 134 134 519 626 626 626>
LayerCount: 2
Fore
SplineSet
519 770 m 1
 626 770 l 1
 381 384 l 1
 626 0 l 1
 519 0 l 1
 327 299 l 1
 137 0 l 1
 29 0 l 1
 273 384 l 1
 29 770 l 1
 134 770 l 1
 327 469 l 1
 519 770 l 1
EndSplineSet
EndChar

StartChar: bracketleft
Encoding: 91 91 87
Width: 357
Flags: MW
HStem: -260 60<168 288 168 288> 710 60<168 288 168 168>
VStem: 84 84<-200 710 -200 770 -200 770> 84 204<-260 -200 710 770>
LayerCount: 2
Fore
SplineSet
288 770 m 1x00
 288 710 l 1xe0
 168 710 l 1
 168 -200 l 1xd0
 288 -200 l 1
 288 -260 l 1xe0
 84 -260 l 1
 84 770 l 1
 288 770 l 1x00
EndSplineSet
EndChar

StartChar: backslash
Encoding: 92 92 76
Width: 362
Flags: MW
HStem: -260 21G 750 20G<24 107 107 107>
LayerCount: 2
Fore
SplineSet
24 770 m 1
 107 770 l 1
 338 0 l 1
 255 0 l 1
 24 770 l 1
EndSplineSet
EndChar

StartChar: bracketright
Encoding: 93 93 84
Width: 357
Flags: MW
HStem: -260 60<69 189 69 189 69 273> 710 60<69 189 69 273>
VStem: 69 204<-260 -200 -200 -200 710 770 -260 770> 189 84<-200 710 710 710>
LayerCount: 2
Fore
SplineSet
69 -260 m 1x00
 69 -200 l 1xd0
 189 -200 l 1
 189 710 l 1xe0
 69 710 l 1
 69 770 l 1
 273 770 l 1
 273 -260 l 1
 69 -260 l 1x00
EndSplineSet
EndChar

StartChar: asciicircum
Encoding: 94 94 35
Width: 652
Flags: MW
HStem: 0 21G<39 111 39 39 541 613 541 541> 530 20G<290 362 362 362>
LayerCount: 2
Fore
SplineSet
290 550 m 1
 362 550 l 1
 613 0 l 1
 541 0 l 1
 326 471 l 1
 111 0 l 1
 39 0 l 1
 290 550 l 1
EndSplineSet
EndChar

StartChar: underscore
Encoding: 95 95 33
Width: 659
Flags: MW
HStem: -64 64<54 605 54 605>
LayerCount: 2
Fore
SplineSet
605 0 m 1
 605 -64 l 1
 54 -64 l 1
 54 0 l 1
 605 0 l 1
EndSplineSet
EndChar

StartChar: grave
Encoding: 96 96 68
Width: 343
Flags: MW
HStem: 611 21G 750 20G
LayerCount: 2
Fore
SplineSet
54 756 m 1
 158 756 l 1
 289 610 l 1
 220 610 l 1
 54 756 l 1
EndSplineSet
EndChar

StartChar: b
Encoding: 98 98 95
Width: 624
Flags: MW
HStem: -20 20G<84 167 84 84> -12 82 480 82<353 353> 800 20G<84 167 167 167>
VStem: 84 84 486 84<216.5 334.5>
LayerCount: 2
Fore
SplineSet
353 562 m 0xbc
 502 562 570 429 570 284 c 0
 570 97 482 -12 339 -12 c 0x7c
 289 -12 223 9 167 54 c 1
 167 0 l 1
 84 0 l 1
 84 820 l 1
 167 820 l 1
 167 479 l 1
 211 527 263 562 353 562 c 0xbc
353 480 m 0
 256 481 199 426 167 376 c 1
 167 146 l 1
 216 97 287 67 339 67 c 0
 428 67 486 149 486 284 c 0
 486 385 441 479 353 480 c 0
EndSplineSet
EndChar

StartChar: c
Encoding: 99 99 96
Width: 508
Flags: MW
HStem: -12 80 482 80
VStem: 54 84<210 340 210 368.5>
LayerCount: 2
Fore
SplineSet
290 562 m 0
 403 562 459 474 459 474 c 1
 406 424 l 1
 406 424 372 487 288 487 c 0
 219 487 138 415 138 265 c 0
 138 155 195 62 283 62 c 0
 322 62 358 69 417 125 c 1
 469 75 l 1
 390 -6 334 -12 283 -12 c 0
 145 -12 54 109 54 265 c 0
 54 472 183 562 290 562 c 0
EndSplineSet
EndChar

StartChar: d
Encoding: 100 100 20
Width: 639
Flags: MW
HStem: -12 82 480 82<242.5 313> 800 20G<458 542 542 542>
VStem: 56 84 458 84<206 389 389 389 486 820 132 820>
LayerCount: 2
Fore
SplineSet
254 -8 m 0
 132 -7 54 121 54 266 c 0
 54 453 144 562 287 562 c 0
 341 562 401 535 458 486 c 1
 458 820 l 1
 542 820 l 1
 542 132 l 1
 542 132 536 61 600 40 c 1
 547 -14 l 1
 478 11 467 62 463 93 c 1
 410 33 340 -9 254 -8 c 0
254 73 m 0
 360 65 426 155 458 206 c 1
 458 389 l 1
 403 443 339 480 287 480 c 0
 198 480 140 401 140 266 c 0
 140 165 184 78 254 73 c 0
EndSplineSet
EndChar

StartChar: e
Encoding: 101 101 205
Width: 577
Flags: MW
HStem: -12 74 279 74<148 427 148 512 137 427> 488 74
VStem: 53 84
LayerCount: 2
Fore
SplineSet
54 269 m 0
 54 429 146 562 290 562 c 0
 495 562 512 357 512 318 c 2
 512 279 l 1
 137 279 l 1
 132 149 188 60 294 60 c 0
 323 60 388 57 464 157 c 1
 515 108 l 1
 415 -16 335 -12 294 -12 c 0
 134 -12 54 118 54 269 c 0
290 490 m 0
 216 490 170 430 148 353 c 1
 427 353 l 1
 418 409 384 490 290 490 c 0
EndSplineSet
EndChar

StartChar: f
Encoding: 102 102 206
Width: 393
Flags: MW
HStem: 0 21G<103 186 103 103> 480 70<32 103 32 103 186 348> 755 70<224.5 284>
VStem: 103 83<0 480 0 480 550 646>
LayerCount: 2
Fore
SplineSet
186 646 m 1
 186 550 l 1
 348 550 l 1
 348 480 l 1
 186 480 l 1
 186 0 l 1
 103 0 l 1
 103 480 l 1
 32 480 l 1
 32 550 l 1
 103 550 l 1
 103 646 l 2
 103 749 143 825 258 825 c 0
 337 825 432 761 432 761 c 1
 381 710 l 1
 381 710 310 755 258 755 c 0
 191 755 187 707 186 646 c 1
EndSplineSet
EndChar

StartChar: h
Encoding: 104 104 1
Width: 604
Flags: MW
HStem: 0 21G<84 168 84 84 451 451 451 535> 478 84<363 423.5> 800 20G<84 168 168 168>
VStem: 84 84<0 347 444 820> 451 84<0 391 0 418>
LayerCount: 2
Fore
SplineSet
168 0 m 1
 84 0 l 1
 84 820 l 1
 168 820 l 1
 168 444 l 1
 229 503 318 562 408 562 c 0
 499 562 535 497 535 391 c 2
 535 0 l 1
 451 0 l 1
 451 391 l 2
 451 445 439 478 408 478 c 0
 304 478 214 395 168 347 c 1
 168 0 l 1
EndSplineSet
EndChar

StartChar: i
Encoding: 105 105 2
Width: 271
Flags: MW
HStem: 0 21G<94 177 94 94> 669 101
VStem: 94 83<0 550 0 550>
LayerCount: 2
Fore
SplineSet
94 550 m 1
 177 550 l 1
 177 0 l 1
 94 0 l 1
 94 550 l 1
84 719 m 0
 84 748 106 770 136 770 c 0
 165 770 187 748 187 719 c 0
 187 689 165 667 136 667 c 0
 106 667 84 689 84 719 c 0
EndSplineSet
EndChar

StartChar: j
Encoding: 106 106 3
Width: 220
Flags: MW
HStem: -275 21G<-11 -11> 550 119 669 101
VStem: 43 83<-43 550>
LayerCount: 2
Fore
SplineSet
43 550 m 1xd0
 126 550 l 1
 126 -43 l 2
 126 -169 50 -254 -11 -275 c 1
 -36 -196 l 1
 3 -191 43 -122 43 -43 c 2
 43 550 l 1xd0
33 719 m 0
 33 748 55 770 85 770 c 0xb0
 114 770 136 748 136 719 c 0
 136 689 114 667 85 667 c 0
 55 667 33 689 33 719 c 0
EndSplineSet
EndChar

StartChar: k
Encoding: 107 107 4
Width: 553
Flags: MW
HStem: 0 21G<84 168 84 84 456 569 456 456> 800 20G<84 168 168 168>
VStem: 84 84<0 268 356 820>
LayerCount: 2
Fore
SplineSet
569 0 m 2
 456 0 l 1
 429 9 300 167 240 233 c 0
 220 254 207 265 192 269 c 0
 184 271 172 269 168 268 c 1
 168 0 l 1
 84 0 l 1
 84 820 l 1
 168 820 l 1
 168 356 l 1
 178 363 351 479 387 550 c 1
 472 550 l 1
 457 493 329 390 244 326 c 1
 262 319 282 307 300 287 c 0
 366 210 552 0 569 0 c 2
EndSplineSet
EndChar

StartChar: l
Encoding: 108 108 5
Width: 278
Flags: MW
HStem: -12 21G<225.5 241> 800 20G<84 167 167 167>
VStem: 84 83<146 820>
LayerCount: 2
Fore
SplineSet
84 820 m 1
 167 820 l 1
 167 146 l 2
 167 123 167 93 180 80 c 0
 195 65 216 59 244 59 c 1
 241 -12 l 1
 210 -12 150 -9 119 22 c 0
 84 57 84 109 84 146 c 2
 84 820 l 1
EndSplineSet
EndChar

StartChar: m
Encoding: 109 109 6
Width: 907
Flags: MW
HStem: 0 21G<84 168 84 84 419 419 419 503 754 754 754 838> 478 72 478 84<332.5 391.5 667 726.5>
VStem: 84 84<0 349 451 550> 419 84<0 349 0 391 0 418> 754 84<0 391 0 418>
CounterMasks: 1 1c
LayerCount: 2
Fore
SplineSet
168 0 m 1x00
 84 0 l 1
 84 550 l 1
 168 550 l 1xbc
 168 451 l 1
 220 508 289 562 376 562 c 0
 452 562 490 526 500 448 c 1
 552 506 623 562 711 562 c 0xdc
 802 562 838 497 838 391 c 2
 838 0 l 1
 754 0 l 1
 754 391 l 2
 754 445 742 478 711 478 c 0
 609 478 543 397 503 349 c 1
 503 0 l 1
 419 0 l 1
 419 391 l 2
 419 445 407 478 376 478 c 0
 281 478 208 397 168 349 c 1
 168 0 l 1x00
EndSplineSet
EndChar

StartChar: o
Encoding: 111 111 8
Width: 586
Flags: MW
HStem: -12 70 492 70
VStem: 54 84<196 355 196 380> 448 84<194.5 352.5>
LayerCount: 2
Fore
SplineSet
54 275 m 0
 54 485 173 562 293 562 c 0
 413 562 532 484 532 275 c 0
 532 63 413 -12 293 -12 c 0
 173 -12 54 58 54 275 c 0
448 275 m 0
 448 430 369 493 293 493 c 0
 217 493 138 435 138 275 c 0
 138 117 217 56 293 56 c 0
 369 56 448 114 448 275 c 0
EndSplineSet
EndChar

StartChar: p
Encoding: 112 112 9
Width: 622
Flags: MW
HStem: -260 21G<84 166 84 84> -12 82<312 381.5 311 408.5> 480 82<370 370>
VStem: 82 84 484 84<216.5 334.5>
LayerCount: 2
Fore
SplineSet
166 -260 m 1
 84 -260 l 1
 84 550 l 1
 166 550 l 1
 166 458 l 1
 211 516 280 563 370 562 c 0
 492 561 568 429 568 284 c 0
 568 97 480 -12 337 -12 c 0
 287 -12 222 19 166 64 c 1
 166 -260 l 1
370 480 m 0
 266 481 198 400 166 350 c 1
 166 156 l 1
 215 107 285 70 337 70 c 0
 426 70 484 149 484 284 c 0
 484 385 440 479 370 480 c 0
EndSplineSet
EndChar

StartChar: q
Encoding: 113 113 10
Width: 624
Flags: MW
HStem: -260 21G<456 540 456 456> -12 82 480 82
VStem: 54 84<215.5 333.5 215.5 359.5> 456 84<-260 105 105 105 210 394 394 394 496 550 -260 550>
LayerCount: 2
Fore
SplineSet
252 -12 m 0
 130 -11 54 121 54 266 c 0
 54 453 142 562 285 562 c 0
 334 562 400 541 456 496 c 1
 456 550 l 1
 540 550 l 1
 540 -260 l 1
 456 -260 l 1
 456 105 l 1
 410 48 341 -13 252 -12 c 0
252 67 m 0
 356 65 424 159 456 210 c 1
 456 394 l 1
 406 442 337 484 285 484 c 0
 196 484 138 401 138 266 c 0
 138 165 182 68 252 67 c 0
EndSplineSet
EndChar

StartChar: r
Encoding: 114 114 11
Width: 436
Flags: MW
HStem: 0 21G<84 168 84 84> 482 68 482 80<279 334.5>
VStem: 84 84<0 344 475 550>
LayerCount: 2
Fore
SplineSet
84 550 m 1xb0
 168 550 l 1xd0
 168 475 l 1
 203 535 251 562 307 562 c 0
 393 562 440 507 440 507 c 1
 382 451 l 1
 382 451 358 482 311 482 c 0
 247 482 197 405 168 344 c 1
 168 0 l 1
 84 0 l 1
 84 550 l 1xb0
EndSplineSet
EndChar

StartChar: s
Encoding: 115 115 12
Width: 502
Flags: MW
HStem: -12 70<261 288.5 261 307.5> 492 70<233.5 272.5>
VStem: 76 80 370 80
LayerCount: 2
Fore
SplineSet
156 405 m 0
 156 358 212 341 270 323 c 0
 359 296 453 269 453 151 c 0
 453 40 356 -12 259 -12 c 0
 178 -12 91 25 44 100 c 1
 102 147 l 1
 132 92 197 59 261 58 c 0
 316 58 370 88 370 151 c 0
 370 208 305 229 246 247 c 0
 162 272 73 302 73 405 c 0
 73 539 195 562 248 562 c 0
 320 562 382 537 421 498 c 1
 367 446 l 1
 341 474 297 492 248 492 c 0
 219 492 156 479 156 405 c 0
EndSplineSet
EndChar

StartChar: t
Encoding: 116 116 13
Width: 398
Flags: MW
HStem: -12 70 480 70 680 20G
VStem: 114 84<160 482 552 750>
LayerCount: 2
Fore
SplineSet
44 482 m 1
 44 552 l 1
 114 552 l 1
 114 750 l 1
 198 750 l 1
 198 552 l 1
 330 552 l 1
 330 482 l 1
 198 482 l 1
 198 160 l 2
 198 123 198 61 250 61 c 0
 283 61 308 76 333 100 c 1
 384 51 l 1
 340 5 291 -12 228 -12 c 0
 144 -12 114 56 114 160 c 2
 114 482 l 1
 44 482 l 1
EndSplineSet
EndChar

StartChar: v
Encoding: 118 118 15
Width: 522
Flags: MW
HStem: 0 21G<225 298 225 225> 530 20G<15 112 112 112 419 510 510 510>
LayerCount: 2
Fore
SplineSet
15 550 m 1
 112 550 l 1
 255 125 l 1
 258 106 l 2
 259 101 260 122 261 125 c 0
 306 296 390 524 419 550 c 1
 510 550 l 1
 432 466 298 0 298 0 c 1
 225 0 l 1
 15 550 l 1
EndSplineSet
EndChar

StartChar: w
Encoding: 119 119 16
Width: 777
Flags: MW
HStem: 0 21G<184 263 184 184 507 507 507 578> 530 20G<25 116 116 116 348 420 420 420 670 752 752 752>
LayerCount: 2
Fore
SplineSet
263 0 m 1
 184 0 l 1
 25 550 l 1
 116 550 l 1
 225 140 l 1
 228 119 l 1
 231 140 l 1
 348 550 l 1
 420 550 l 1
 537 140 l 1
 541 119 l 1
 544 140 l 1
 584 291 651 540 670 550 c 1
 752 550 l 1
 725 523 578 0 578 0 c 1
 507 0 l 1
 384 424 l 1
 263 0 l 1
EndSplineSet
EndChar

StartChar: x
Encoding: 120 120 17
Width: 582
Flags: MW
HStem: 0 21G<34 138 34 34 437 543 437 437> 530 20G<54 160 160 160 444 548 548 548>
LayerCount: 2
Fore
SplineSet
54 550 m 1
 160 550 l 1
 296 351 l 1
 343 421 431 546 444 550 c 1
 548 550 l 1
 527 540 391 350 343 282 c 1
 543 0 l 1
 437 0 l 1
 295 212 l 1
 250 147 152 4 138 0 c 1
 34 0 l 1
 56 10 213 230 248 281 c 1
 54 550 l 1
EndSplineSet
EndChar

StartChar: z
Encoding: 122 122 19
Width: 516
Flags: MW
HStem: 0 71<150 405 49 49> 480 70<49 359 49 460 49 460>
LayerCount: 2
Fore
SplineSet
477 88 m 1
 477 17 l 1
 464 2 405 0 405 0 c 1
 49 0 l 1
 49 71 l 1
 359 480 l 1
 49 480 l 1
 49 550 l 1
 460 550 l 1
 460 480 l 1
 150 71 l 1
 406 71 l 1
 406 71 461 71 477 88 c 1
EndSplineSet
EndChar

StartChar: braceleft
Encoding: 123 123 52
Width: 468
Flags: MW
HStem: -266 84<273 313 273 316> 257 50<79 127> 746 84<273 313>
VStem: 175 84<-114 184 184 184 380 678>
CounterMasks: 1 e0
LayerCount: 2
Fore
SplineSet
283 830 m 0
 349 830 399 797 399 797 c 1
 371 727 l 1
 371 727 343 746 283 746 c 0
 263 746 259 701 259 678 c 2
 259 379 l 2
 259 376 256 317 195 282 c 1
 258 247 259 189 259 185 c 2
 259 -114 l 2
 259 -137 263 -182 283 -182 c 0
 343 -182 371 -163 371 -163 c 1
 399 -233 l 1
 399 -233 349 -266 283 -266 c 0
 191 -266 175 -165 175 -114 c 2
 175 184 l 1
 175 184 175 257 79 257 c 1
 79 307 l 1
 176 307 175 380 175 380 c 1
 175 678 l 2
 175 729 191 830 283 830 c 0
EndSplineSet
EndChar

StartChar: bar
Encoding: 124 124 71
Width: 244
Flags: MW
HStem: -260 21G<84 160 84 84> 810 20G<84 160 160 160>
VStem: 84 76<-260 830>
LayerCount: 2
Fore
SplineSet
160 -260 m 1
 84 -260 l 1
 84 830 l 1
 160 830 l 1
 160 -260 l 1
EndSplineSet
EndChar

StartChar: braceright
Encoding: 125 125 70
Width: 468
Flags: MW
HStem: -266 84<155 195 155 231> 257 50<342.5 389> 746 84<155 195>
VStem: 209 84<-114 184 184 184 380 678>
CounterMasks: 1 e0
LayerCount: 2
Fore
SplineSet
185 746 m 0
 125 746 97 727 97 727 c 1
 69 797 l 1
 69 797 119 830 185 830 c 0
 277 830 293 729 293 678 c 2
 293 380 l 1
 293 380 292 307 389 307 c 1
 389 257 l 1
 296 257 293 190 293 185 c 2
 293 -114 l 2
 293 -165 277 -266 185 -266 c 0
 119 -266 69 -233 69 -233 c 1
 97 -163 l 1
 97 -163 125 -182 185 -182 c 0
 205 -182 209 -137 209 -114 c 2
 209 184 l 1
 209 184 210 246 272 282 c 1
 210 317 209 375 209 379 c 2
 209 678 l 2
 209 701 205 746 185 746 c 0
EndSplineSet
EndChar

StartChar: asciitilde
Encoding: 126 126 81
Width: 650
Flags: MW
HStem: 261 60 322 60
LayerCount: 2
Fore
SplineSet
90 296 m 1
 54 349 l 1
 54 349 96 390 195 401 c 0
 231 405 277 395 323 383 c 1
 364 374 416 363 453 367 c 0
 531 376 564 403 564 403 c 1
 596 347 l 1
 596 347 548 308 461 299 c 0
 416 294 365 305 314 317 c 0
 274 327 234 335 203 332 c 0
 117 323 90 296 90 296 c 1
EndSplineSet
EndChar

StartChar: exclamdown
Encoding: 161 161 100
Width: 292
Flags: MW
HStem: -262 20 454 111
VStem: 92 111 108 79
LayerCount: 2
Fore
SplineSet
110 374 m 1
 183 374 l 1
 196 -262 l 1
 97 -262 l 1
 110 374 l 1
208 502 m 0
 208 467 181 441 145 441 c 0
 110 441 84 467 84 502 c 0
 84 538 110 565 145 565 c 0
 181 565 208 538 208 502 c 0
EndSplineSet
EndChar

StartChar: cent
Encoding: 162 162 111
Width: 508
Flags: MW
HStem: -260 21G -12 80 482 80 810 20G
VStem: 54 84<232 340 232 368.5> 215 76
LayerCount: 2
Fore
SplineSet
338 655 m 1
 396 655 l 1
 367 547 l 1
 428 522 459 474 459 474 c 1
 406 424 l 1
 406 424 388 456 348 474 c 1
 242 69 l 1
 255 64 268 62 283 62 c 0
 322 62 358 69 417 125 c 1
 469 75 l 1
 390 -6 334 -12 283 -12 c 0
 262 -12 242 -9 223 -4 c 1
 201 -90 l 1
 143 -90 l 1
 171 19 l 1
 98 64 54 156 54 265 c 0
 54 472 183 562 290 562 c 0
 298 562 306 561 313 560 c 1
 338 655 l 1
138 265 m 0
 138 199 158 140 193 102 c 1
 294 487 l 1
 288 487 l 2
 219 487 138 415 138 265 c 0
EndSplineSet
EndChar

StartChar: sterling
Encoding: 163 163 188
Width: 589
Flags: MW
HStem: 0 86 460 70 750 20G
VStem: 85 88
LayerCount: 2
Fore
SplineSet
166 53 m 0
 121 53 88 -9 88 -9 c 1
 26 25 l 1
 26 25 67 102 135 122 c 1
 162 266 l 1
 90 266 l 1
 90 336 l 1
 176 336 l 1
 203 474 235 631 252 698 c 0
 279 801 367 825 404 825 c 0
 465 825 500 789 551 736 c 1
 497 692 l 1
 461 730 437 755 404 755 c 0
 387 755 347 741 332 680 c 0
 316 619 287 471 260 336 c 1
 406 336 l 1
 406 266 l 1
 246 266 l 1
 218 120 l 1
 245 113 271 102 295 91 c 0
 327 76 360 62 392 62 c 0
 436 62 493 122 493 122 c 1
 543 72 l 1
 543 72 464 -12 392 -12 c 0
 344 -12 304 5 265 23 c 0
 232 38 198 53 166 53 c 0
EndSplineSet
EndChar

StartChar: yen
Encoding: 165 165 183
Width: 615
Flags: MW
HStem: 0 21G<265 352 265 265> 168 67<82 265 82 265 352 533> 328 67<82 248 82 265 82 248 368 533> 750 20G<9 112 112 112 507 606 606 606>
VStem: 265 87<0 168 0 168 235 328>
LayerCount: 2
Fore
SplineSet
533 235 m 1
 533 168 l 1
 352 168 l 1
 352 0 l 1
 265 0 l 1
 265 168 l 1
 82 168 l 1
 82 235 l 1
 265 235 l 1
 265 328 l 1
 82 328 l 1
 82 395 l 1
 248 395 l 1
 9 770 l 1
 112 770 l 1
 309 461 l 1
 507 770 l 1
 606 770 l 1
 368 395 l 1
 533 395 l 1
 533 328 l 1
 352 328 l 1
 352 235 l 1
 533 235 l 1
EndSplineSet
EndChar

StartChar: dieresis
Encoding: 168 168 101
Width: 432
Flags: MW
HStem: 610 103<101 130.5 302.5 332>
VStem: 64 103<647 676.5> 265 103<647 676.5>
LayerCount: 2
Fore
SplineSet
64 662 m 0
 64 691 86 713 116 713 c 0
 145 713 167 691 167 662 c 0
 167 632 145 610 116 610 c 0
 86 610 64 632 64 662 c 0
265 662 m 0
 265 691 288 713 317 713 c 0
 347 713 368 691 368 662 c 0
 368 632 347 610 317 610 c 0
 288 610 265 632 265 662 c 0
EndSplineSet
EndChar

StartChar: copyright
Encoding: 169 169 109
Width: 879
Flags: MW
HStem: 0 58<350 529.5 350 546.5> 174 63<409 452 409 457> 531 65<418.5 469.5> 712 59<350 529.5>
VStem: 54 58<295.5 475 295.5 492> 269 71<340 430 340 452.5> 767 58<295.5 475>
LayerCount: 2
Fore
SplineSet
54 385 m 0
 54 599 227 771 440 771 c 0
 653 771 825 599 825 385 c 0
 825 172 653 0 440 0 c 0
 227 0 54 172 54 385 c 0
443 596 m 0
 527 596 570 527 570 527 c 1
 525 484 l 1
 525 484 498 531 441 531 c 0
 396 531 340 483 340 377 c 0
 340 303 380 237 438 237 c 0
 466 237 491 242 535 284 c 1
 577 242 l 1
 516 179 476 174 438 174 c 0
 337 174 269 262 269 377 c 0
 269 528 366 596 443 596 c 0
112 385 m 0
 112 206 260 58 440 58 c 0
 619 58 767 206 767 385 c 0
 767 565 619 712 440 712 c 0
 260 712 112 565 112 385 c 0
EndSplineSet
EndChar

StartChar: registered
Encoding: 174 174 110
Width: 879
Flags: MW
HStem: 0 58<350 529.5 350 546.5> 712 59<350 529.5>
VStem: 54 58<295.5 475 295.5 492> 292 62<178 345 395 523 580 594> 514 61<479 502> 767 58<295.5 475>
LayerCount: 2
Fore
SplineSet
354 178 m 1
 292 178 l 1
 292 594 l 1
 354 594 l 1
 354 580 l 1
 385 597 415 600 450 600 c 1
 505 598 575 567 575 479 c 1
 574 397 532 365 483 351 c 1
 503 332 529 301 547 276 c 0
 571 243 598 209 640 178 c 1
 555 178 l 1
 533 194 511 223 491 252 c 1
 463 290 425 332 394 345 c 1
 354 345 l 1
 354 178 l 1
435 395 m 1
 469 396 513 411 514 479 c 0
 514 525 482 545 450 545 c 1
 414 548 383 540 354 523 c 1
 354 395 l 1
 435 395 l 1
54 385 m 0
 54 599 227 771 440 771 c 0
 653 771 825 599 825 385 c 0
 825 172 653 0 440 0 c 0
 227 0 54 172 54 385 c 0
112 385 m 0
 112 206 260 58 440 58 c 0
 619 58 767 206 767 385 c 0
 767 565 619 712 440 712 c 0
 260 712 112 565 112 385 c 0
EndSplineSet
EndChar

StartChar: acute
Encoding: 180 180 102
Width: 343
Flags: MW
HStem: 610 21G<54 123 54 54> 736 20G<185 289 289 289>
LayerCount: 2
Fore
SplineSet
185 756 m 1
 289 756 l 1
 123 610 l 1
 54 610 l 1
 185 756 l 1
EndSplineSet
EndChar

StartChar: paragraph
Encoding: 182 182 189
Width: 732
Flags: MW
HStem: -250 21G<395 452 395 395 521 521 521 578> 713 57<452 521 452 452 578 653 578 578>
VStem: 395 57<-250 278 278 278> 521 57<-250 713 -250 713>
LayerCount: 2
Fore
SplineSet
452 -250 m 1
 395 -250 l 1
 395 278 l 1
 395 278 324 227 250 227 c 0
 141 227 49 336 49 498 c 0
 49 647 158 770 320 770 c 2
 653 770 l 1
 653 713 l 1
 578 713 l 1
 578 -250 l 1
 521 -250 l 1
 521 713 l 1
 452 713 l 1
 452 -250 l 1
EndSplineSet
EndChar

StartChar: periodcentered
Encoding: 183 183 180
Width: 245
Flags: MW
HStem: 215 117<106.5 140.5>
VStem: 64 117<257.5 291.5>
LayerCount: 2
Fore
SplineSet
64 275 m 0
 64 308 89 332 124 332 c 0
 157 332 181 308 181 275 c 0
 181 240 157 215 124 215 c 0
 89 215 64 240 64 275 c 0
EndSplineSet
EndChar

StartChar: cedilla
Encoding: 184 184 175
Width: 325
Flags: MW
HStem: -267 70 449 111
VStem: -168 84 -6 111 65 77
LayerCount: 2
Fore
SplineSet
197 -123 m 0
 197 -95 173 -82 135 -81 c 1
 116 -81 l 1
 163 0 l 1
 216 0 l 1
 191 -52 l 1
 232 -58 261 -77 261 -123 c 0
 261 -164 231 -204 155 -204 c 0
 106 -204 78 -176 64 -164 c 1
 92 -128 l 1
 102 -138 124 -158 155 -158 c 0
 185 -158 197 -140 197 -123 c 0
EndSplineSet
EndChar

StartChar: questiondown
Encoding: 191 191 99
Width: 502
Flags: MW
HStem: -267 70<188.5 296.5 188.5 315> 449 111<238 270>
VStem: 37 84<-107 -87 -107 -33> 199 111<488 520> 270 77<246 276>
LayerCount: 2
Fore
SplineSet
121 -87 m 1xe8
 121 -127 132 -197 245 -197 c 0
 348 -197 411 -77 411 -77 c 1
 464 -127 l 1
 464 -127 385 -267 245 -267 c 0
 66 -267 37 -153 37 -87 c 0
 37 21 119 92 190 156 c 0
 234 196 270 232 270 260 c 0
 270 292 251 310 217 340 c 1
 275 388 l 1
 317 350 347 321 347 259 c 0
 347 195 302 149 243 96 c 0
 186 44 124 -17 121 -87 c 1xe8
310 504 m 0xf0
 310 472 286 449 254 449 c 0
 222 449 199 472 199 504 c 0
 199 536 222 560 254 560 c 0
 286 560 310 536 310 504 c 0xf0
EndSplineSet
EndChar

StartChar: Acircumflex
Encoding: 194 194 130
Width: 708
Flags: MW
HStem: 0 21G<24 117 24 24 591 684 591 591> 262 76<241 466 241 494 213 466> 750 20G<308 400 400 400>
LayerCount: 2
Fore
SplineSet
308 770 m 1
 400 770 l 1
 684 0 l 1
 591 0 l 1
 494 262 l 1
 213 262 l 1
 117 0 l 1
 24 0 l 1
 308 770 l 1
354 672 m 1
 353 653 350 635 347 624 c 1
 241 338 l 1
 466 338 l 1
 360 624 l 1
 360 624 354 647 354 672 c 1
321 966 m 1
 387 966 l 1
 543 820 l 1
 452 820 l 1
 354 915 l 1
 256 820 l 1
 165 820 l 1
 321 966 l 1
EndSplineSet
EndChar

StartChar: Atilde
Encoding: 195 195 139
Width: 708
Flags: MW
HStem: 0 21G<24 117 24 24 591 684 591 591> 262 76<241 466 241 494 213 466> 750 20G<308 400 400 400>
LayerCount: 2
Fore
SplineSet
308 770 m 1
 400 770 l 1
 684 0 l 1
 591 0 l 1
 494 262 l 1
 213 262 l 1
 117 0 l 1
 24 0 l 1
 308 770 l 1
354 672 m 1
 353 653 350 635 347 624 c 1
 241 338 l 1
 466 338 l 1
 360 624 l 1
 360 624 354 647 354 672 c 1
533 928 m 1
 558 878 l 1
 558 878 519 829 450 825 c 0
 421 823 384 836 348 849 c 0
 318 860 284 873 259 872 c 0
 202 869 174 834 174 834 c 1
 149 884 l 1
 149 884 188 933 257 937 c 0
 286 939 323 926 359 913 c 0
 389 902 423 889 448 890 c 0
 506 893 533 928 533 928 c 1
EndSplineSet
EndChar

StartChar: Adieresis
Encoding: 196 196 115
Width: 708
Flags: MW
HStem: 0 21G<24 117 24 24 591 684 591 591> 262 76<241 466 241 494 213 466> 750 20G<308 400 400 400>
LayerCount: 2
Fore
SplineSet
308 770 m 1
 400 770 l 1
 684 0 l 1
 591 0 l 1
 494 262 l 1
 213 262 l 1
 117 0 l 1
 24 0 l 1
 308 770 l 1
354 672 m 1
 353 653 350 635 347 624 c 1
 241 338 l 1
 466 338 l 1
 360 624 l 1
 360 624 354 647 354 672 c 1
202 877 m 0
 202 906 224 928 254 928 c 0
 283 928 305 906 305 877 c 0
 305 847 283 825 254 825 c 0
 224 825 202 847 202 877 c 0
403 877 m 0
 403 906 426 928 455 928 c 0
 485 928 506 906 506 877 c 0
 506 847 485 825 455 825 c 0
 426 825 403 847 403 877 c 0
EndSplineSet
EndChar

StartChar: Aring
Encoding: 197 197 164
Width: 708
Flags: MW
HStem: 0 21G<24 117 24 24 591 684 591 591> 262 76<241 466 241 494 213 466> 750 20G<308 400 400 400>
LayerCount: 2
Fore
SplineSet
308 770 m 1
 400 770 l 1
 684 0 l 1
 591 0 l 1
 494 262 l 1
 213 262 l 1
 117 0 l 1
 24 0 l 1
 308 770 l 1
354 672 m 1
 353 653 350 635 347 624 c 1
 241 338 l 1
 466 338 l 1
 360 624 l 1
 360 624 354 647 354 672 c 1
259 913 m 1
 259 860 302 817 355 817 c 0
 406 817 447 860 447 913 c 0
 447 964 406 1005 355 1005 c 0
 302 1005 259 964 259 913 c 1
 259 964 302 1005 355 1005 c 0
 406 1005 447 964 447 913 c 0
 447 860 406 817 355 817 c 0
 302 817 259 860 259 913 c 0
 259 964 302 1005 355 1005 c 0
 406 1005 447 964 447 913 c 0
 447 860 406 817 355 817 c 0
 302 817 259 860 259 913 c 1
307 913 m 0
 307 887 329 865 355 865 c 0
 378 865 400 887 400 913 c 0
 400 936 378 958 355 958 c 0
 329 958 307 936 307 913 c 0
EndSplineSet
EndChar

StartChar: AE
Encoding: 198 198 168
Width: 978
Flags: MW
HStem: 0 21G<24 121 24 24 502 939 502 502> 262 76<309 502 309 502 267 502> 360 76 750 20G<449 820 820 852.5> 755 20G<925 925>
VStem: 711 88
LayerCount: 2
Fore
SplineSet
939 0 m 1xec
 502 0 l 1
 502 262 l 1
 267 262 l 1
 121 0 l 1
 24 0 l 1
 449 770 l 1
 820 770 l 2xf4
 885 770 925 775 925 775 c 1
 925 695 l 1
 590 695 l 1
 590 437 l 1
 875 437 l 1
 875 361 l 1
 590 361 l 1
 590 76 l 1
 834 76 l 2
 899 76 939 81 939 81 c 1
 939 0 l 1xec
502 683 m 1
 309 338 l 1
 502 338 l 1
 502 683 l 1
EndSplineSet
EndChar

StartChar: Ccedilla
Encoding: 199 199 178
Width: 642
Flags: MW
HStem: -267 70 -12 84 449 111 696 84
VStem: 2 84 63 90 164 111 235 77
LayerCount: 2
Fore
SplineSet
593 680 m 1
 535 624 l 1
 535 624 487 701 370 701 c 0
 260 701 149 589 149 363 c 0
 149 195 250 67 370 64 c 0
 500 61 566 153 567 153 c 2
 622 98 l 1
 591 72 533 -20 365 -15 c 0
 188 -10 59 147 59 363 c 0
 59 640 211 785 371 785 c 0
 533 785 593 680 593 680 c 1
367 -123 m 0
 367 -95 343 -82 305 -81 c 1
 286 -81 l 1
 333 0 l 1
 386 0 l 1
 361 -52 l 1
 402 -58 431 -77 431 -123 c 0
 431 -164 401 -204 325 -204 c 0
 276 -204 248 -176 234 -164 c 1
 262 -128 l 1
 272 -138 294 -158 325 -158 c 0
 355 -158 367 -140 367 -123 c 0
EndSplineSet
EndChar

StartChar: Egrave
Encoding: 200 200 155
Width: 560
Flags: MW
HStem: 0 86 360 76 684 86 755 20G<507 507> 821 21G 960 20G
VStem: 83 88
LayerCount: 2
Fore
SplineSet
521 0 m 1xd2
 84 0 l 1
 84 770 l 1
 402 770 l 2xe2
 467 770 507 775 507 775 c 1
 507 695 l 1
 172 695 l 1
 172 437 l 1
 457 437 l 1
 457 361 l 1
 172 361 l 1
 172 76 l 1
 416 76 l 2
 481 76 521 81 521 81 c 1
 521 0 l 1xd2
85 966 m 1x0c
 189 966 l 1
 320 820 l 1
 251 820 l 1
 85 966 l 1x0c
EndSplineSet
EndChar

StartChar: Ecircumflex
Encoding: 202 202 131
Width: 560
Flags: MW
HStem: 0 86 360 76 684 86 755 20G<507 507>
VStem: 83 88
LayerCount: 2
Fore
SplineSet
521 0 m 1xd8
 84 0 l 1
 84 770 l 1
 402 770 l 2xe8
 467 770 507 775 507 775 c 1
 507 695 l 1
 172 695 l 1
 172 437 l 1
 457 437 l 1
 457 361 l 1
 172 361 l 1
 172 76 l 1
 416 76 l 2
 481 76 521 81 521 81 c 1
 521 0 l 1xd8
246 966 m 1
 312 966 l 1
 468 820 l 1
 377 820 l 1
 279 915 l 1
 181 820 l 1
 90 820 l 1
 246 966 l 1
EndSplineSet
EndChar

StartChar: Edieresis
Encoding: 203 203 121
Width: 560
Flags: MW
HStem: 0 86 360 76 684 86 755 20G<507 507>
VStem: 83 88
LayerCount: 2
Fore
SplineSet
521 0 m 1xd8
 84 0 l 1
 84 770 l 1
 402 770 l 2xe8
 467 770 507 775 507 775 c 1
 507 695 l 1
 172 695 l 1
 172 437 l 1
 457 437 l 1
 457 361 l 1
 172 361 l 1
 172 76 l 1
 416 76 l 2
 481 76 521 81 521 81 c 1
 521 0 l 1xd8
127 877 m 0
 127 906 149 928 179 928 c 0
 208 928 230 906 230 877 c 0
 230 847 208 825 179 825 c 0
 149 825 127 847 127 877 c 0
328 877 m 0
 328 906 351 928 380 928 c 0
 410 928 431 906 431 877 c 0
 431 847 410 825 380 825 c 0
 351 825 328 847 328 877 c 0
EndSplineSet
EndChar

StartChar: Igrave
Encoding: 204 204 157
Width: 251
Flags: MW
HStem: 0 21G<81 169 81 81> 750 20G<81 169 169 169> 821 21G 960 20G
VStem: 81 88<0 770>
LayerCount: 2
Fore
SplineSet
169 0 m 1
 81 0 l 1
 81 770 l 1
 169 770 l 1
 169 0 l 1
-62 966 m 1x30
 42 966 l 1
 173 820 l 1
 104 820 l 1
 -62 966 l 1x30
EndSplineSet
EndChar

StartChar: Iacute
Encoding: 205 205 156
Width: 251
Flags: MW
HStem: 0 21G<81 169 81 81> 750 20G<81 169 169 169>
VStem: 81 88<0 770>
LayerCount: 2
Fore
SplineSet
169 0 m 1
 81 0 l 1
 81 770 l 1
 169 770 l 1
 169 0 l 1
209 966 m 1
 313 966 l 1
 147 820 l 1
 78 820 l 1
 209 966 l 1
EndSplineSet
EndChar

StartChar: Icircumflex
Encoding: 206 206 132
Width: 288
Flags: MW
HStem: 0 21G<100 188 100 100> 750 20G<100 188 188 188>
VStem: 100 88<0 770>
LayerCount: 2
Fore
SplineSet
188 0 m 1
 100 0 l 1
 100 770 l 1
 188 770 l 1
 188 0 l 1
111 966 m 1
 177 966 l 1
 333 820 l 1
 242 820 l 1
 144 915 l 1
 46 820 l 1
 -45 820 l 1
 111 966 l 1
EndSplineSet
EndChar

StartChar: Idieresis
Encoding: 207 207 122
Width: 250
Flags: MW
HStem: 0 21G<81 169 81 81> 750 20G<81 169 169 169>
VStem: 81 88<0 770>
LayerCount: 2
Fore
SplineSet
169 0 m 1
 81 0 l 1
 81 770 l 1
 169 770 l 1
 169 0 l 1
-27 877 m 0
 -27 906 -5 928 25 928 c 0
 54 928 76 906 76 877 c 0
 76 847 54 825 25 825 c 0
 -5 825 -27 847 -27 877 c 0
174 877 m 0
 174 906 197 928 226 928 c 0
 256 928 277 906 277 877 c 0
 277 847 256 825 226 825 c 0
 197 825 174 847 174 877 c 0
EndSplineSet
EndChar

StartChar: Eth
Encoding: 208 208 181
Width: 775
Flags: MW
HStem: -20 20G<147 147 147 402> -12 86 240 70 694 86
VStem: 147 88<76 367 76 367 76 367 437 689> 648 88
LayerCount: 2
Fore
SplineSet
147 0 m 1
 147 367 l 1
 69 367 l 1
 69 437 l 1
 147 437 l 1
 147 757 l 1
 244 769 292 775 354 775 c 0
 539 775 716 717 716 380 c 0
 716 138 587 0 402 0 c 2
 147 0 l 1
415 437 m 1
 415 367 l 1
 235 367 l 1
 235 76 l 1
 402 76 l 2
 531 76 628 190 628 380 c 0
 628 569 570 700 356 700 c 0
 291 700 250 691 235 689 c 1
 235 437 l 1
 415 437 l 1
EndSplineSet
EndChar

StartChar: Ntilde
Encoding: 209 209 135
Width: 722
Flags: MW
HStem: 0 21G<84 172 84 84 550 550 550 638> 750 20G<84 172 172 172 550 638 638 638>
VStem: 84 88<0 608 769 770> 550 88<0 1 1 1 164 770 0 770>
LayerCount: 2
Fore
SplineSet
172 0 m 1
 84 0 l 1
 84 770 l 1
 172 770 l 1
 172 769 l 1
 544 164 l 1
 551 150 l 1
 550 164 l 1
 550 770 l 1
 638 770 l 1
 638 0 l 1
 550 0 l 1
 550 1 l 1
 178 608 l 1
 171 622 l 1
 172 608 l 1
 172 0 l 1
540 928 m 1
 565 878 l 1
 565 878 526 829 457 825 c 0
 428 823 391 836 355 849 c 0
 325 860 291 873 266 872 c 0
 209 869 181 834 181 834 c 1
 156 884 l 1
 156 884 195 933 264 937 c 0
 293 939 330 926 366 913 c 0
 396 902 430 889 455 890 c 0
 513 893 540 928 540 928 c 1
EndSplineSet
EndChar

StartChar: Ograve
Encoding: 210 210 159
Width: 755
Flags: MW
HStem: -7 82 698 82 821 21G 960 20G
VStem: 60 88 611 88
LayerCount: 2
Fore
SplineSet
380 785 m 0
 527 785 695 695 696 386 c 1
 696 71 535 -15 377 -15 c 0
 230 -15 59 70 59 384 c 0
 59 697 230 785 380 785 c 0
380 710 m 0
 276 710 147 631 147 386 c 0
 147 137 276 61 377 61 c 0
 487 61 607 136 608 384 c 0
 608 628 487 710 380 710 c 0
182 966 m 1x30
 286 966 l 1
 417 820 l 1
 348 820 l 1
 182 966 l 1x30
EndSplineSet
EndChar

StartChar: Oacute
Encoding: 211 211 158
Width: 755
Flags: MW
HStem: -7 82 698 82
VStem: 60 88 611 88
LayerCount: 2
Fore
SplineSet
380 785 m 0
 527 785 695 695 696 386 c 1
 696 71 535 -15 377 -15 c 0
 230 -15 59 70 59 384 c 0
 59 697 230 785 380 785 c 0
380 710 m 0
 276 710 147 631 147 386 c 0
 147 137 276 61 377 61 c 0
 487 61 607 136 608 384 c 0
 608 628 487 710 380 710 c 0
473 966 m 1
 577 966 l 1
 411 820 l 1
 342 820 l 1
 473 966 l 1
EndSplineSet
EndChar

StartChar: Ocircumflex
Encoding: 212 212 133
Width: 755
Flags: MW
HStem: -7 82 698 82
VStem: 60 88 611 88
LayerCount: 2
Fore
SplineSet
380 785 m 0
 527 785 695 695 696 386 c 1
 696 71 535 -15 377 -15 c 0
 230 -15 59 70 59 384 c 0
 59 697 230 785 380 785 c 0
380 710 m 0
 276 710 147 631 147 386 c 0
 147 137 276 61 377 61 c 0
 487 61 607 136 608 384 c 0
 608 628 487 710 380 710 c 0
346 966 m 1
 412 966 l 1
 568 820 l 1
 477 820 l 1
 379 915 l 1
 281 820 l 1
 190 820 l 1
 346 966 l 1
EndSplineSet
EndChar

StartChar: Otilde
Encoding: 213 213 140
Width: 755
Flags: MW
HStem: -7 82 698 82
VStem: 60 88 611 88
LayerCount: 2
Fore
SplineSet
380 785 m 0
 527 785 695 695 696 386 c 1
 696 71 535 -15 377 -15 c 0
 230 -15 59 70 59 384 c 0
 59 697 230 785 380 785 c 0
380 710 m 0
 276 710 147 631 147 386 c 0
 147 137 276 61 377 61 c 0
 487 61 607 136 608 384 c 0
 608 628 487 710 380 710 c 0
559 928 m 1
 584 878 l 1
 584 878 545 829 476 825 c 0
 447 823 410 836 374 849 c 0
 344 860 310 873 285 872 c 0
 228 869 200 834 200 834 c 1
 175 884 l 1
 175 884 214 933 283 937 c 0
 312 939 349 926 385 913 c 0
 415 902 449 889 474 890 c 0
 532 893 559 928 559 928 c 1
EndSplineSet
EndChar

StartChar: Odieresis
Encoding: 214 214 123
Width: 755
Flags: MW
HStem: -7 82 698 82
VStem: 60 88 611 88
LayerCount: 2
Fore
SplineSet
380 785 m 0
 527 785 695 695 696 386 c 1
 696 71 535 -15 377 -15 c 0
 230 -15 59 70 59 384 c 0
 59 697 230 785 380 785 c 0
380 710 m 0
 276 710 147 631 147 386 c 0
 147 137 276 61 377 61 c 0
 487 61 607 136 608 384 c 0
 608 628 487 710 380 710 c 0
227 877 m 0
 227 906 249 928 279 928 c 0
 308 928 330 906 330 877 c 0
 330 847 308 825 279 825 c 0
 249 825 227 847 227 877 c 0
428 877 m 0
 428 906 451 928 480 928 c 0
 510 928 531 906 531 877 c 0
 531 847 510 825 480 825 c 0
 451 825 428 847 428 877 c 0
EndSplineSet
EndChar

StartChar: Ugrave
Encoding: 217 217 161
Width: 683
Flags: MW
HStem: -12 77<313.5 370 313.5 384> 750 20G<84 172 172 172 511 599 599 599> 821 21G 960 20G
VStem: 70 88 525 88
LayerCount: 2
Fore
SplineSet
599 239 m 1
 598 14 426 -12 342 -12 c 0
 257 -12 85 16 84 239 c 1
 84 770 l 1
 172 770 l 1
 172 241 l 2
 172 86 285 65 342 65 c 0
 398 65 510 90 511 239 c 1
 511 770 l 1
 599 770 l 1
 599 239 l 1
146 966 m 1x30
 250 966 l 1
 381 820 l 1
 312 820 l 1
 146 966 l 1x30
EndSplineSet
EndChar

StartChar: Uacute
Encoding: 218 218 160
Width: 683
Flags: MW
HStem: -12 77<313.5 370 313.5 384> 750 20G<84 172 172 172 511 599 599 599>
VStem: 70 88 525 88
LayerCount: 2
Fore
SplineSet
599 239 m 1
 598 14 426 -12 342 -12 c 0
 257 -12 85 16 84 239 c 1
 84 770 l 1
 172 770 l 1
 172 241 l 2
 172 86 285 65 342 65 c 0
 398 65 510 90 511 239 c 1
 511 770 l 1
 599 770 l 1
 599 239 l 1
437 966 m 1
 541 966 l 1
 375 820 l 1
 306 820 l 1
 437 966 l 1
EndSplineSet
EndChar

StartChar: Udieresis
Encoding: 220 220 116
Width: 683
Flags: MW
HStem: -12 77<313.5 370 313.5 384> 750 20G<84 172 172 172 511 599 599 599>
VStem: 70 88 525 88
LayerCount: 2
Fore
SplineSet
599 239 m 1
 598 14 426 -12 342 -12 c 0
 257 -12 85 16 84 239 c 1
 84 770 l 1
 172 770 l 1
 172 241 l 2
 172 86 285 65 342 65 c 0
 398 65 510 90 511 239 c 1
 511 770 l 1
 599 770 l 1
 599 239 l 1
192 877 m 0
 192 906 214 928 244 928 c 0
 273 928 295 906 295 877 c 0
 295 847 273 825 244 825 c 0
 214 825 192 847 192 877 c 0
393 877 m 0
 393 906 416 928 445 928 c 0
 475 928 496 906 496 877 c 0
 496 847 475 825 445 825 c 0
 416 825 393 847 393 877 c 0
EndSplineSet
EndChar

StartChar: Yacute
Encoding: 221 221 186
Width: 615
Flags: MW
HStem: 0 21G<265 352 265 265> 750 20G<9 112 112 112 507 606 606 606>
VStem: 265 87<0 369 0 369>
LayerCount: 2
Fore
SplineSet
507 770 m 1
 606 770 l 1
 352 369 l 1
 352 0 l 1
 265 0 l 1
 265 369 l 1
 9 770 l 1
 112 770 l 1
 309 461 l 1
 507 770 l 1
370 976 m 1
 474 976 l 1
 308 830 l 1
 239 830 l 1
 370 976 l 1
EndSplineSet
EndChar

StartChar: Thorn
Encoding: 222 222 184
Width: 627
Flags: MW
HStem: 0 21G<84 172 84 84> 133 80<303 377.5 303 404> 601 77<306.5 362> 750 20G<84 172 172 172>
VStem: 84 88<0 185 278 550 633 770> 483 85<353.5 476.5>
LayerCount: 2
Fore
SplineSet
172 0 m 1
 84 0 l 1
 84 770 l 1
 172 770 l 1
 172 633 l 1
 218 660 277 678 336 678 c 0
 473 678 568 574 568 425 c 0
 568 233 479 133 329 133 c 0
 261 133 213 157 172 185 c 1
 172 0 l 1
483 425 m 0
 483 528 417 601 307 601 c 0
 260 601 215 582 172 550 c 1
 172 278 l 1
 218 237 273 213 333 213 c 0
 422 213 483 282 483 425 c 0
EndSplineSet
EndChar

StartChar: germandbls
Encoding: 223 223 162
Width: 650
Flags: MW
HStem: 0 82<318 400 315.5 441.5> 396 72<256 256> 480 70<32 103 32 103> 751 76<277 334>
VStem: 32 154<480 550 550 550> 103 83<0 480 480 480 550 646 0 709.5> 442 84<631 633> 507 84<202.5 305 190.5 313.5>
LayerCount: 2
Fore
SplineSet
256 396 m 1xf9
 256 468 l 1
 326 471 442 497 442 633 c 1
 440 724 355 751 313 751 c 0
 241 751 192 722 186 646 c 1
 186 0 l 1
 103 0 l 1
 103 480 l 1xf6
 32 480 l 1
 32 550 l 1xfa
 103 550 l 1
 103 646 l 2
 103 773 195 827 313 827 c 0
 394 827 526 787 526 631 c 1xf6
 525 542 491 485 445 451 c 1
 522 428 591 364 591 246 c 0
 591 135 556 0 327 0 c 0
 309 0 280 4 258 12 c 1
 258 90 l 1
 276 85 305 82 326 82 c 0
 474 82 507 159 507 246 c 0
 507 381 366 399 256 396 c 1xf9
EndSplineSet
EndChar

StartChar: aacute
Encoding: 225 225 144
Width: 562
Flags: MW
HStem: -12 70 493 69
VStem: 59 83 391 81
LayerCount: 2
Fore
SplineSet
110 407 m 0
 110 408 76 473 77 475 c 1
 113 495 230 562 341 562 c 0
 456 562 474 456 474 404 c 2
 474 108 l 2
 474 104 473 64 528 38 c 1
 474 -12 l 1
 426 7 406 39 397 74 c 1
 349 23 283 -12 209 -12 c 0
 187 -12 54 -1 54 138 c 0
 54 209 83 293 252 318 c 0
 325 328 367 335 391 341 c 1
 391 404 l 2
 391 425 386 484 329 484 c 0
 244 484 110 406 110 407 c 0
206 58 m 0
 276 53 351 101 391 151 c 1
 391 269 l 1
 361 263 326 258 261 248 c 0
 152 231 136 184 136 138 c 0
 136 69 191 59 206 58 c 0
367 756 m 1
 471 756 l 1
 305 610 l 1
 236 610 l 1
 367 756 l 1
EndSplineSet
EndChar

StartChar: adieresis
Encoding: 228 228 114
Width: 562
Flags: MW
HStem: -12 70 493 69
VStem: 59 83 391 81
LayerCount: 2
Fore
SplineSet
110 407 m 0
 110 408 76 473 77 475 c 1
 113 495 230 562 341 562 c 0
 456 562 474 456 474 404 c 2
 474 108 l 2
 474 104 473 64 528 38 c 1
 474 -12 l 1
 426 7 406 39 397 74 c 1
 349 23 283 -12 209 -12 c 0
 187 -12 54 -1 54 138 c 0
 54 209 83 293 252 318 c 0
 325 328 367 335 391 341 c 1
 391 404 l 2
 391 425 386 484 329 484 c 0
 244 484 110 406 110 407 c 0
206 58 m 0
 276 53 351 101 391 151 c 1
 391 269 l 1
 361 263 326 258 261 248 c 0
 152 231 136 184 136 138 c 0
 136 69 191 59 206 58 c 0
131 662 m 0
 131 691 153 713 183 713 c 0
 212 713 234 691 234 662 c 0
 234 632 212 610 183 610 c 0
 153 610 131 632 131 662 c 0
332 662 m 0
 332 691 355 713 384 713 c 0
 414 713 435 691 435 662 c 0
 435 632 414 610 384 610 c 0
 355 610 332 632 332 662 c 0
EndSplineSet
EndChar

StartChar: aring
Encoding: 229 229 165
Width: 562
Flags: MW
HStem: -12 70 493 69
VStem: 59 83 391 81
LayerCount: 2
Fore
SplineSet
110 407 m 0
 110 408 76 473 77 475 c 1
 113 495 230 562 341 562 c 0
 456 562 474 456 474 404 c 2
 474 108 l 2
 474 104 473 64 528 38 c 1
 474 -12 l 1
 426 7 406 39 397 74 c 1
 349 23 283 -12 209 -12 c 0
 187 -12 54 -1 54 138 c 0
 54 209 83 293 252 318 c 0
 325 328 367 335 391 341 c 1
 391 404 l 2
 391 425 386 484 329 484 c 0
 244 484 110 406 110 407 c 0
206 58 m 0
 276 53 351 101 391 151 c 1
 391 269 l 1
 361 263 326 258 261 248 c 0
 152 231 136 184 136 138 c 0
 136 69 191 59 206 58 c 0
189 693 m 1
 189 640 232 597 285 597 c 0
 336 597 377 640 377 693 c 0
 377 744 336 785 285 785 c 0
 232 785 189 744 189 693 c 1
 189 744 232 785 285 785 c 0
 336 785 377 744 377 693 c 0
 377 640 336 597 285 597 c 0
 232 597 189 640 189 693 c 0
 189 744 232 785 285 785 c 0
 336 785 377 744 377 693 c 0
 377 640 336 597 285 597 c 0
 232 597 189 640 189 693 c 1
237 693 m 0
 237 667 259 645 285 645 c 0
 308 645 330 667 330 693 c 0
 330 716 308 738 285 738 c 0
 259 738 237 716 237 693 c 0
EndSplineSet
EndChar

StartChar: ae
Encoding: 230 230 172
Width: 896
Flags: MW
HStem: -12 70 -12 74 279 74<467 746 467 831 456 746> 488 74 493 69
VStem: -29 83 303 81 502 84
LayerCount: 2
Fore
SplineSet
328 562 m 0
 394 562 429 526 446 486 c 1
 486 533 542 562 609 562 c 0
 814 562 831 357 831 318 c 2
 831 279 l 1
 456 279 l 1
 451 149 507 60 613 60 c 0
 642 60 707 57 783 157 c 1
 834 108 l 1
 734 -16 654 -12 613 -12 c 0
 522 -12 457 30 417 93 c 1
 355 23 283 -12 209 -12 c 0
 187 -12 54 -1 54 138 c 0
 54 209 83 293 252 318 c 0
 325 328 354 333 378 339 c 1
 378 404 l 2
 378 425 373 484 316 484 c 0
 231 484 97 406 97 407 c 0
 97 408 63 473 64 475 c 1
 100 495 217 562 328 562 c 0
206 58 m 0
 276 53 351 101 391 151 c 1
 380 184 378 227 378 266 c 1
 350 261 317 256 261 248 c 0
 152 231 136 184 136 138 c 0
 136 69 191 59 206 58 c 0
609 490 m 0
 535 490 489 430 467 353 c 1
 746 353 l 1
 737 409 703 490 609 490 c 0
EndSplineSet
EndChar

StartChar: ccedilla
Encoding: 231 231 179
Width: 508
Flags: MW
HStem: -267 70 -12 80 449 111 482 80
VStem: -77 84 54 84<210 340 210 368.5> 85 111 156 77
LayerCount: 2
Fore
SplineSet
290 562 m 0xda
 403 562 459 474 459 474 c 1
 406 424 l 1
 406 424 372 487 288 487 c 0
 219 487 138 415 138 265 c 0
 138 155 195 62 283 62 c 0
 322 62 358 69 417 125 c 1
 469 75 l 1
 390 -6 334 -12 283 -12 c 0
 145 -12 54 109 54 265 c 0xed
 54 472 183 562 290 562 c 0xda
288 -123 m 0
 288 -95 264 -82 226 -81 c 1
 207 -81 l 1
 254 0 l 1
 307 0 l 1
 282 -52 l 1
 323 -58 352 -77 352 -123 c 0
 352 -164 322 -204 246 -204 c 0
 197 -204 169 -176 155 -164 c 1
 183 -128 l 1
 193 -138 215 -158 246 -158 c 0
 276 -158 288 -140 288 -123 c 0
EndSplineSet
EndChar

StartChar: egrave
Encoding: 232 232 143
Width: 577
Flags: MW
HStem: -12 74 279 74<148 427 148 512 137 427> 488 74 611 21G 750 20G
VStem: 53 84
LayerCount: 2
Fore
SplineSet
54 269 m 0
 54 429 146 562 290 562 c 0
 495 562 512 357 512 318 c 2
 512 279 l 1
 137 279 l 1
 132 149 188 60 294 60 c 0
 323 60 388 57 464 157 c 1
 515 108 l 1
 415 -16 335 -12 294 -12 c 0
 134 -12 54 118 54 269 c 0
290 490 m 0
 216 490 170 430 148 353 c 1
 427 353 l 1
 418 409 384 490 290 490 c 0
79 756 m 1x18
 183 756 l 1
 314 610 l 1
 245 610 l 1
 79 756 l 1x18
EndSplineSet
EndChar

StartChar: ecircumflex
Encoding: 234 234 126
Width: 577
Flags: MW
HStem: -12 74 279 74<148 427 148 512 137 427> 488 74
VStem: 53 84
LayerCount: 2
Fore
SplineSet
54 269 m 0
 54 429 146 562 290 562 c 0
 495 562 512 357 512 318 c 2
 512 279 l 1
 137 279 l 1
 132 149 188 60 294 60 c 0
 323 60 388 57 464 157 c 1
 515 108 l 1
 415 -16 335 -12 294 -12 c 0
 134 -12 54 118 54 269 c 0
290 490 m 0
 216 490 170 430 148 353 c 1
 427 353 l 1
 418 409 384 490 290 490 c 0
249 756 m 1
 315 756 l 1
 471 610 l 1
 380 610 l 1
 282 705 l 1
 184 610 l 1
 93 610 l 1
 249 756 l 1
EndSplineSet
EndChar

StartChar: edieresis
Encoding: 235 235 146
Width: 577
Flags: MW
HStem: -12 74 279 74<148 427 148 512 137 427> 488 74
VStem: 53 84
LayerCount: 2
Fore
SplineSet
54 269 m 0
 54 429 146 562 290 562 c 0
 495 562 512 357 512 318 c 2
 512 279 l 1
 137 279 l 1
 132 149 188 60 294 60 c 0
 323 60 388 57 464 157 c 1
 515 108 l 1
 415 -16 335 -12 294 -12 c 0
 134 -12 54 118 54 269 c 0
290 490 m 0
 216 490 170 430 148 353 c 1
 427 353 l 1
 418 409 384 490 290 490 c 0
130 662 m 0
 130 691 152 713 182 713 c 0
 211 713 233 691 233 662 c 0
 233 632 211 610 182 610 c 0
 152 610 130 632 130 662 c 0
331 662 m 0
 331 691 354 713 383 713 c 0
 413 713 434 691 434 662 c 0
 434 632 413 610 383 610 c 0
 354 610 331 632 331 662 c 0
EndSplineSet
EndChar

StartChar: igrave
Encoding: 236 236 148
Width: 251
Flags: MW
HStem: 0 21G<84 167 84 84> 611 21G 669 101 750 20G
VStem: 84 83<0 550 0 550>
LayerCount: 2
Fore
SplineSet
84 550 m 1xa8
 167 550 l 1
 167 0 l 1
 84 0 l 1
 84 550 l 1xa8
-62 756 m 1x50
 42 756 l 1
 173 610 l 1
 104 610 l 1
 -62 756 l 1x50
EndSplineSet
EndChar

StartChar: iacute
Encoding: 237 237 147
Width: 251
Flags: MW
HStem: 0 21G<84 167 84 84> 669 101
VStem: 84 83<0 550 0 550>
LayerCount: 2
Fore
SplineSet
84 550 m 1
 167 550 l 1
 167 0 l 1
 84 0 l 1
 84 550 l 1
209 756 m 1
 313 756 l 1
 147 610 l 1
 78 610 l 1
 209 756 l 1
EndSplineSet
EndChar

StartChar: icircumflex
Encoding: 238 238 127
Width: 288
Flags: MW
HStem: 0 21G<102 185 102 102> 669 101
VStem: 102 83<0 550 0 550>
LayerCount: 2
Fore
SplineSet
102 550 m 1
 185 550 l 1
 185 0 l 1
 102 0 l 1
 102 550 l 1
111 756 m 1
 177 756 l 1
 333 610 l 1
 242 610 l 1
 144 705 l 1
 46 610 l 1
 -45 610 l 1
 111 756 l 1
EndSplineSet
EndChar

StartChar: idieresis
Encoding: 239 239 113
Width: 250
Flags: MW
HStem: 0 21G<83 166 83 83> 669 101
VStem: 83 83<0 550 0 550>
LayerCount: 2
Fore
SplineSet
83 550 m 1
 166 550 l 1
 166 0 l 1
 83 0 l 1
 83 550 l 1
-27 662 m 0
 -27 691 -5 713 25 713 c 0
 54 713 76 691 76 662 c 0
 76 632 54 610 25 610 c 0
 -5 610 -27 632 -27 662 c 0
174 662 m 0
 174 691 197 713 226 713 c 0
 256 713 277 691 277 662 c 0
 277 632 256 610 226 610 c 0
 197 610 174 632 174 662 c 0
EndSplineSet
EndChar

StartChar: eth
Encoding: 240 240 182
Width: 609
Flags: MW
HStem: -8 74<233 345 233 374> 448 74<239 312.5 213 314.5> 696 74<226.5 257> 795 20G<344 344>
VStem: 54 84<209 300.5 209 322.5> 467 84
LayerCount: 2
Fore
SplineSet
255 770 m 0
 274 770 293 768 311 764 c 1
 344 815 l 1
 396 781 l 1
 370 741 l 1
 495 674 551 500 551 361 c 0
 551 127 457 -8 291 -8 c 0
 111 -8 54 148 54 242 c 0
 54 403 145 522 281 522 c 0
 344 522 404 498 460 447 c 1
 444 543 402 639 328 678 c 1
 267 584 l 1
 215 616 l 1
 266 695 l 1
 262 696 259 696 255 696 c 0
 198 696 166 676 141 660 c 1
 105 722 l 1
 138 744 180 770 255 770 c 0
291 66 m 0
 399 66 462 167 467 341 c 1
 410 414 348 448 281 448 c 0
 197 448 138 359 138 242 c 0
 138 176 175 66 291 66 c 0
EndSplineSet
EndChar

StartChar: ntilde
Encoding: 241 241 137
Width: 604
Flags: MW
HStem: 0 21G<84 168 84 84 451 451 451 535> 478 84<363 423.5>
VStem: 84 84<0 347 444 550> 451 84<0 391 0 418>
LayerCount: 2
Fore
SplineSet
168 0 m 1
 84 0 l 1
 84 550 l 1
 168 550 l 1
 168 444 l 1
 229 503 318 562 408 562 c 0
 499 562 535 497 535 391 c 2
 535 0 l 1
 451 0 l 1
 451 391 l 2
 451 445 439 478 408 478 c 0
 308 478 221 401 168 347 c 1
 168 0 l 1
489 718 m 1
 514 668 l 1
 514 668 475 619 406 615 c 0
 377 613 340 626 304 639 c 0
 274 650 240 663 215 662 c 0
 158 659 130 624 130 624 c 1
 105 674 l 1
 105 674 144 723 213 727 c 0
 242 729 279 716 315 703 c 0
 345 692 379 679 404 680 c 0
 462 683 489 718 489 718 c 1
EndSplineSet
EndChar

StartChar: ograve
Encoding: 242 242 150
Width: 586
Flags: MW
HStem: -12 70 492 70 611 21G 750 20G
VStem: 54 84<196 355 196 380> 448 84<194.5 352.5>
LayerCount: 2
Fore
SplineSet
54 275 m 0
 54 485 173 562 293 562 c 0
 413 562 532 484 532 275 c 0
 532 63 413 -12 293 -12 c 0
 173 -12 54 58 54 275 c 0
448 275 m 0
 448 430 369 493 293 493 c 0
 217 493 138 435 138 275 c 0
 138 117 217 56 293 56 c 0
 369 56 448 114 448 275 c 0
95 756 m 1x30
 199 756 l 1
 330 610 l 1
 261 610 l 1
 95 756 l 1x30
EndSplineSet
EndChar

StartChar: otilde
Encoding: 245 245 138
Width: 586
Flags: MW
HStem: -12 70 492 70
VStem: 54 84<196 355 196 380> 448 84<194.5 352.5>
LayerCount: 2
Fore
SplineSet
54 275 m 0
 54 485 173 562 293 562 c 0
 413 562 532 484 532 275 c 0
 532 63 413 -12 293 -12 c 0
 173 -12 54 58 54 275 c 0
448 275 m 0
 448 430 369 493 293 493 c 0
 217 493 138 435 138 275 c 0
 138 117 217 56 293 56 c 0
 369 56 448 114 448 275 c 0
472 718 m 1
 497 668 l 1
 497 668 458 619 389 615 c 0
 360 613 323 626 287 639 c 0
 257 650 223 663 198 662 c 0
 141 659 113 624 113 624 c 1
 88 674 l 1
 88 674 127 723 196 727 c 0
 225 729 262 716 298 703 c 0
 328 692 362 679 387 680 c 0
 445 683 472 718 472 718 c 1
EndSplineSet
EndChar

StartChar: odieresis
Encoding: 246 246 117
Width: 586
Flags: MW
HStem: -12 70 492 70
VStem: 54 84<196 355 196 380> 448 84<194.5 352.5>
LayerCount: 2
Fore
SplineSet
54 275 m 0
 54 485 173 562 293 562 c 0
 413 562 532 484 532 275 c 0
 532 63 413 -12 293 -12 c 0
 173 -12 54 58 54 275 c 0
448 275 m 0
 448 430 369 493 293 493 c 0
 217 493 138 435 138 275 c 0
 138 117 217 56 293 56 c 0
 369 56 448 114 448 275 c 0
140 662 m 0
 140 691 162 713 192 713 c 0
 221 713 243 691 243 662 c 0
 243 632 221 610 192 610 c 0
 162 610 140 632 140 662 c 0
341 662 m 0
 341 691 364 713 393 713 c 0
 423 713 444 691 444 662 c 0
 444 632 423 610 393 610 c 0
 364 610 341 632 341 662 c 0
EndSplineSet
EndChar

StartChar: oslash
Encoding: 248 248 176
Width: 586
Flags: MW
HStem: -12 70 492 70
VStem: 54 84<241.5 355 241.5 380> 448 84<194.5 309>
LayerCount: 2
Fore
SplineSet
54 275 m 0
 54 485 173 562 293 562 c 0
 326 562 359 556 390 543 c 1
 410 582 l 1
 488 582 l 1
 448 505 l 1
 498 460 532 386 532 275 c 0
 532 63 413 -12 293 -12 c 0
 258 -12 224 -6 192 7 c 1
 172 -32 l 1
 94 -32 l 1
 133 45 l 1
 86 89 54 162 54 275 c 0
448 275 m 0
 448 343 432 393 409 428 c 1
 226 73 l 1
 247 61 270 56 293 56 c 0
 369 56 448 114 448 275 c 0
138 275 m 0
 138 208 152 159 174 124 c 1
 356 477 l 1
 336 487 314 493 293 493 c 0
 217 493 138 435 138 275 c 0
EndSplineSet
EndChar

StartChar: uacute
Encoding: 250 250 151
Width: 604
Flags: MW
HStem: -20 20G<436 520 436 436> -12 84 530 20G<69 153 153 153 436 520 520 520>
VStem: 69 84<159 550> 436 84<0 97 97 97 202 550 0 550>
LayerCount: 2
Fore
SplineSet
196 69 m 0x00
 295 69 383 147 436 202 c 1
 436 550 l 1
 520 550 l 1
 520 0 l 1
 436 0 l 1x78
 436 97 l 1
 374 38 285 -12 196 -12 c 0
 105 -12 69 53 69 159 c 2
 69 550 l 1
 153 550 l 1
 153 159 l 2
 153 105 165 69 196 69 c 0x00
388 756 m 1
 492 756 l 1
 326 610 l 1
 257 610 l 1
 388 756 l 1
EndSplineSet
EndChar

StartChar: ucircumflex
Encoding: 251 251 129
Width: 604
Flags: MW
HStem: -20 20G<436 520 436 436> -12 84 530 20G<69 153 153 153 436 520 520 520>
VStem: 69 84<159 550> 436 84<0 97 97 97 202 550 0 550>
LayerCount: 2
Fore
SplineSet
196 69 m 0x00
 295 69 383 147 436 202 c 1
 436 550 l 1
 520 550 l 1
 520 0 l 1
 436 0 l 1x78
 436 97 l 1
 374 38 285 -12 196 -12 c 0
 105 -12 69 53 69 159 c 2
 69 550 l 1
 153 550 l 1
 153 159 l 2
 153 105 165 69 196 69 c 0x00
261 756 m 1
 327 756 l 1
 483 610 l 1
 392 610 l 1
 294 705 l 1
 196 610 l 1
 105 610 l 1
 261 756 l 1
EndSplineSet
EndChar

StartChar: udieresis
Encoding: 252 252 118
Width: 604
Flags: MW
HStem: -20 20G<436 520 436 436> -12 84 530 20G<69 153 153 153 436 520 520 520>
VStem: 69 84<159 550> 436 84<0 97 97 97 202 550 0 550>
LayerCount: 2
Fore
SplineSet
196 69 m 0x00
 295 69 383 147 436 202 c 1
 436 550 l 1
 520 550 l 1
 520 0 l 1
 436 0 l 1x78
 436 97 l 1
 374 38 285 -12 196 -12 c 0
 105 -12 69 53 69 159 c 2
 69 550 l 1
 153 550 l 1
 153 159 l 2
 153 105 165 69 196 69 c 0x00
142 662 m 0
 142 691 164 713 194 713 c 0
 223 713 245 691 245 662 c 0
 245 632 223 610 194 610 c 0
 164 610 142 632 142 662 c 0
343 662 m 0
 343 691 366 713 395 713 c 0
 425 713 446 691 446 662 c 0
 446 632 425 610 395 610 c 0
 366 610 343 632 343 662 c 0
EndSplineSet
EndChar

StartChar: thorn
Encoding: 254 254 187
Width: 622
Flags: MW
HStem: -260 21G<84 166 84 84> -20 20G -12 82<312 381.5 311 408.5> 480 82<370 370> 810 20G
VStem: -84 84 121 76 318 84
CounterMasks: 1 07
LayerCount: 2
Fore
SplineSet
166 -260 m 1xdf
 84 -260 l 1
 84 770 l 1
 166 770 l 1
 166 458 l 1
 211 516 280 563 370 562 c 0
 492 561 568 429 568 284 c 0
 568 97 480 -12 337 -12 c 0xbf
 287 -12 222 19 166 64 c 1
 166 -260 l 1xdf
370 480 m 0
 266 481 198 400 166 350 c 1
 166 156 l 1
 215 107 285 70 337 70 c 0
 426 70 484 149 484 284 c 0
 484 385 440 479 370 480 c 0
EndSplineSet
EndChar

StartChar: ydieresis
Encoding: 255 255 119
Width: 513
Flags: MW
HStem: -275 21G<16 16> 530 20G<16 105 105 105 426 521 521 521>
LayerCount: 2
Fore
SplineSet
16 550 m 1
 105 550 l 1
 254 164 l 1
 323 333 407 534 426 550 c 1
 521 550 l 1
 493 523 478 496 260 -39 c 0
 235 -101 209 -165 158 -214 c 0
 104 -266 51 -273 16 -275 c 1
 -5 -202 l 1
 56 -198 80 -180 101 -159 c 0
 125 -136 143 -109 181 -17 c 2
 208 50 l 1
 16 550 l 1
101 662 m 0
 101 691 123 713 153 713 c 0
 182 713 204 691 204 662 c 0
 204 632 182 610 153 610 c 0
 123 610 101 632 101 662 c 0
302 662 m 0
 302 691 325 713 354 713 c 0
 384 713 405 691 405 662 c 0
 405 632 384 610 354 610 c 0
 325 610 302 632 302 662 c 0
EndSplineSet
EndChar

StartChar: Abreve
Encoding: 258 258 208
Width: 708
Flags: MW
HStem: 0 21G<24 117 24 24 591 684 591 591> 262 76<241 466 241 494 213 466> 750 20G<308 400 400 400> 818 64<330 381 330 399> 818 149<196 399>
LayerCount: 2
Fore
SplineSet
308 770 m 1xe0
 400 770 l 1
 684 0 l 1
 591 0 l 1
 494 262 l 1
 213 262 l 1
 117 0 l 1
 24 0 l 1
 308 770 l 1xe0
354 672 m 1
 353 653 350 635 347 624 c 1
 241 338 l 1
 466 338 l 1
 360 624 l 1
 360 624 354 647 354 672 c 1
196 967 m 1x00
 257 967 l 1x10
 261 924 303 882 357 882 c 0x08
 405 882 446 924 451 967 c 1
 511 967 l 1
 501 890 441 818 357 818 c 0
 269 818 206 890 196 967 c 1x00
EndSplineSet
EndChar

StartChar: Aogonek
Encoding: 260 260 209
Width: 708
Flags: MW
HStem: -156 54<637 657 637 665> 0 21G<24 117 24 24 591 684 591 591> 31 20G 262 76<241 466 241 494 213 466> 750 20G<308 400 400 400>
VStem: 551 53<-79 -38.5>
LayerCount: 2
Fore
SplineSet
308 770 m 1
 400 770 l 1
 684 0 l 1
 591 0 l 1
 494 262 l 1
 213 262 l 1
 117 0 l 1
 24 0 l 1
 308 770 l 1
354 672 m 1
 353 653 350 635 347 624 c 1
 241 338 l 1
 466 338 l 1
 360 624 l 1
 360 624 354 647 354 672 c 1
551 -69 m 0xa4
 551 -8 631 51 631 51 c 1
 663 31 l 1
 663 31 604 -9 604 -67 c 0
 604 -91 628 -102 646 -102 c 0
 668 -102 688 -91 701 -75 c 1
 741 -111 l 1
 718 -137 684 -156 646 -156 c 0
 604 -156 551 -128 551 -69 c 0xa4
EndSplineSet
EndChar

StartChar: aogonek
Encoding: 261 261 247
Width: 562
Flags: MW
HStem: -156 54<424 444 424 452> -12 70 31 20G 493 69
VStem: 59 83 338 53<-79 -38.5> 391 81
LayerCount: 2
Fore
SplineSet
110 407 m 0x5a
 110 408 76 473 77 475 c 1
 113 495 230 562 341 562 c 0
 456 562 474 456 474 404 c 2
 474 108 l 2
 474 104 473 64 528 38 c 1
 474 -12 l 1
 426 7 406 39 397 74 c 1
 349 23 283 -12 209 -12 c 0
 187 -12 54 -1 54 138 c 0
 54 209 83 293 252 318 c 0
 325 328 367 335 391 341 c 1
 391 404 l 2
 391 425 386 484 329 484 c 0
 244 484 110 406 110 407 c 0x5a
206 58 m 0
 276 53 351 101 391 151 c 1
 391 269 l 1
 361 263 326 258 261 248 c 0
 152 231 136 184 136 138 c 0
 136 69 191 59 206 58 c 0
338 -69 m 0xa4
 338 -8 418 51 418 51 c 1
 450 31 l 1
 450 31 391 -9 391 -67 c 0
 391 -91 415 -102 433 -102 c 0
 455 -102 475 -91 488 -75 c 1
 528 -111 l 1
 505 -137 471 -156 433 -156 c 0
 391 -156 338 -128 338 -69 c 0xa4
EndSplineSet
EndChar

StartChar: Cacute
Encoding: 262 262 211
Width: 642
Flags: MW
HStem: -12 84 696 84
VStem: 63 90
LayerCount: 2
Fore
SplineSet
457 966 m 1
 561 966 l 1
 395 820 l 1
 326 820 l 1
 457 966 l 1
593 680 m 1
 535 624 l 1
 535 624 487 701 370 701 c 0
 260 701 149 589 149 363 c 0
 149 195 250 67 370 64 c 0
 500 61 566 153 567 153 c 2
 622 98 l 1
 591 72 533 -20 365 -15 c 0
 188 -10 59 147 59 363 c 0
 59 640 211 785 371 785 c 0
 533 785 593 680 593 680 c 1
EndSplineSet
EndChar

StartChar: Ccircumflex
Encoding: 264 264 213
Width: 642
Flags: MW
HStem: -12 84 696 84 820 21G<181 272 181 181 468 559 468 468> 946 20G<337 403 403 403>
VStem: 63 90
LayerCount: 2
Fore
SplineSet
593 680 m 1
 535 624 l 1
 535 624 487 701 370 701 c 0
 260 701 149 589 149 363 c 0
 149 195 250 67 370 64 c 0
 500 61 566 153 567 153 c 2
 622 98 l 1
 591 72 533 -20 365 -15 c 0
 188 -10 59 147 59 363 c 0
 59 640 211 785 371 785 c 0
 533 785 593 680 593 680 c 1
337 966 m 1x30
 403 966 l 1
 559 820 l 1
 468 820 l 1
 370 915 l 1
 272 820 l 1
 181 820 l 1
 337 966 l 1x30
EndSplineSet
EndChar

StartChar: ccircumflex
Encoding: 265 265 251
Width: 508
Flags: MW
HStem: -12 80 482 80 610 21G<97 188 97 97 384 475 384 384> 736 20G<253 319 319 319>
VStem: 54 84<210 340 210 368.5>
LayerCount: 2
Fore
SplineSet
290 562 m 0
 403 562 459 474 459 474 c 1
 406 424 l 1
 406 424 372 487 288 487 c 0
 219 487 138 415 138 265 c 0
 138 155 195 62 283 62 c 0
 322 62 358 69 417 125 c 1
 469 75 l 1
 390 -6 334 -12 283 -12 c 0
 145 -12 54 109 54 265 c 0
 54 472 183 562 290 562 c 0
253 756 m 1x30
 319 756 l 1
 475 610 l 1
 384 610 l 1
 286 705 l 1
 188 610 l 1
 97 610 l 1
 253 756 l 1x30
EndSplineSet
EndChar

StartChar: Ccaron
Encoding: 268 268 212
Width: 642
Flags: MW
HStem: -12 84 696 84 820 21G<330 396 330 330> 946 20G<174 265 265 265 461 552 552 552>
VStem: 63 90
LayerCount: 2
Fore
SplineSet
593 680 m 1
 535 624 l 1
 535 624 487 701 370 701 c 0
 260 701 149 589 149 363 c 0
 149 195 250 67 370 64 c 0
 500 61 566 153 567 153 c 2
 622 98 l 1
 591 72 533 -20 365 -15 c 0
 188 -10 59 147 59 363 c 0
 59 640 211 785 371 785 c 0
 533 785 593 680 593 680 c 1
396 820 m 1x30
 330 820 l 1
 174 966 l 1
 265 966 l 1
 363 871 l 1
 461 966 l 1
 552 966 l 1
 396 820 l 1x30
EndSplineSet
EndChar

StartChar: ccaron
Encoding: 269 269 250
Width: 508
Flags: MW
HStem: -12 80 482 80 605 21G<251 317 251 251> 731 20G<95 186 186 186 382 473 473 473>
VStem: 54 84<210 340 210 368.5>
LayerCount: 2
Fore
SplineSet
290 562 m 0
 403 562 459 474 459 474 c 1
 406 424 l 1
 406 424 372 487 288 487 c 0
 219 487 138 415 138 265 c 0
 138 155 195 62 283 62 c 0
 322 62 358 69 417 125 c 1
 469 75 l 1
 390 -6 334 -12 283 -12 c 0
 145 -12 54 109 54 265 c 0
 54 472 183 562 290 562 c 0
317 605 m 1x30
 251 605 l 1
 95 751 l 1
 186 751 l 1
 284 656 l 1
 382 751 l 1
 473 751 l 1
 317 605 l 1x30
EndSplineSet
EndChar

StartChar: Dcaron
Encoding: 270 270 214
Width: 712
Flags: MW
HStem: -20 20G<84 172 84 84 172 339> -12 86 694 86 819 21G<279 345 279 279> 945 20G<123 214 214 214 410 501 501 501>
VStem: 84 88<0 76 76 689> 585 88
LayerCount: 2
Fore
SplineSet
172 0 m 2
 84 0 l 1
 84 757 l 1
 181 769 229 775 291 775 c 0
 476 775 653 717 653 380 c 0
 653 138 524 0 339 0 c 0
 278 0 282 0 172 0 c 2
565 380 m 0
 565 569 507 700 293 700 c 0
 228 700 187 691 172 689 c 1
 172 76 l 1
 261 76 265 76 339 76 c 0
 468 76 565 190 565 380 c 0
345 819 m 1
 279 819 l 1
 123 965 l 1
 214 965 l 1
 312 870 l 1
 410 965 l 1
 501 965 l 1
 345 819 l 1
EndSplineSet
EndChar

StartChar: Ebreve
Encoding: 276 276 215
Width: 560
Flags: MW
HStem: 0 86 360 76 684 86 755 20G<507 507> 818 64<272 323 272 341> 818 149<138 341>
VStem: 83 88
LayerCount: 2
Fore
SplineSet
521 0 m 1xd2
 84 0 l 1
 84 770 l 1
 402 770 l 2xe2
 467 770 507 775 507 775 c 1
 507 695 l 1
 172 695 l 1
 172 437 l 1
 457 437 l 1
 457 361 l 1
 172 361 l 1
 172 76 l 1
 416 76 l 2
 481 76 521 81 521 81 c 1
 521 0 l 1xd2
138 967 m 1x00
 199 967 l 1x08
 203 924 245 882 299 882 c 0x04
 347 882 388 924 393 967 c 1
 453 967 l 1
 443 890 383 818 299 818 c 0
 211 818 148 890 138 967 c 1x00
EndSplineSet
EndChar

StartChar: ebreve
Encoding: 277 277 252
Width: 577
Flags: MW
HStem: -12 74 279 74<148 427 148 512 137 427> 488 74 601 64<265 316 265 334> 601 149<131 334>
VStem: 53 84
LayerCount: 2
Fore
SplineSet
54 269 m 0xe4
 54 429 146 562 290 562 c 0
 495 562 512 357 512 318 c 2
 512 279 l 1
 137 279 l 1
 132 149 188 60 294 60 c 0
 323 60 388 57 464 157 c 1
 515 108 l 1
 415 -16 335 -12 294 -12 c 0
 134 -12 54 118 54 269 c 0xe4
290 490 m 0
 216 490 170 430 148 353 c 1
 427 353 l 1
 418 409 384 490 290 490 c 0
131 750 m 1x00
 192 750 l 1x10
 196 707 238 665 292 665 c 0x08
 340 665 381 707 386 750 c 1
 446 750 l 1
 436 673 376 601 292 601 c 0
 204 601 141 673 131 750 c 1x00
EndSplineSet
EndChar

StartChar: Eogonek
Encoding: 280 280 217
Width: 560
Flags: MW
HStem: -156 54<436 456 436 464> 0 86 31 20G 360 76 684 86 755 20G<507 507>
VStem: 83 88 350 53<-79 -38.5>
LayerCount: 2
Fore
SplineSet
521 0 m 1x56
 84 0 l 1
 84 770 l 1
 402 770 l 2x5a
 467 770 507 775 507 775 c 1
 507 695 l 1
 172 695 l 1
 172 437 l 1
 457 437 l 1
 457 361 l 1
 172 361 l 1
 172 76 l 1
 416 76 l 2
 481 76 521 81 521 81 c 1
 521 0 l 1x56
350 -69 m 0xa1
 350 -8 430 51 430 51 c 1
 462 31 l 1
 462 31 403 -9 403 -67 c 0
 403 -91 427 -102 445 -102 c 0
 467 -102 487 -91 500 -75 c 1
 540 -111 l 1
 517 -137 483 -156 445 -156 c 0
 403 -156 350 -128 350 -69 c 0xa1
EndSplineSet
EndChar

StartChar: eogonek
Encoding: 281 281 254
Width: 577
Flags: MW
HStem: -156 54<333 353 333 361> -12 74 31 20G 279 74<148 427 148 512 137 427> 488 74
VStem: 53 84 247 53<-79 -38.5>
LayerCount: 2
Fore
SplineSet
54 269 m 0x5c
 54 429 146 562 290 562 c 0
 495 562 512 357 512 318 c 2
 512 279 l 1
 137 279 l 1
 132 149 188 60 294 60 c 0
 323 60 388 57 464 157 c 1
 515 108 l 1
 415 -16 335 -12 294 -12 c 0
 134 -12 54 118 54 269 c 0x5c
290 490 m 0
 216 490 170 430 148 353 c 1
 427 353 l 1
 418 409 384 490 290 490 c 0
247 -69 m 0xa2
 247 -8 327 51 327 51 c 1
 359 31 l 1
 359 31 300 -9 300 -67 c 0
 300 -91 324 -102 342 -102 c 0
 364 -102 384 -91 397 -75 c 1
 437 -111 l 1
 414 -137 380 -156 342 -156 c 0
 300 -156 247 -128 247 -69 c 0xa2
EndSplineSet
EndChar

StartChar: Ecaron
Encoding: 282 282 216
Width: 560
Flags: MW
HStem: 0 86 360 76 684 86 755 20G<507 507> 819 21G<272 338 272 272> 945 20G<116 207 207 207 403 494 494 494>
VStem: 83 88
LayerCount: 2
Fore
SplineSet
521 0 m 1xd2
 84 0 l 1
 84 770 l 1
 402 770 l 2xe2
 467 770 507 775 507 775 c 1
 507 695 l 1
 172 695 l 1
 172 437 l 1
 457 437 l 1
 457 361 l 1
 172 361 l 1
 172 76 l 1
 416 76 l 2
 481 76 521 81 521 81 c 1
 521 0 l 1xd2
338 819 m 1x0c
 272 819 l 1
 116 965 l 1
 207 965 l 1
 305 870 l 1
 403 965 l 1
 494 965 l 1
 338 819 l 1x0c
EndSplineSet
EndChar

StartChar: ecaron
Encoding: 283 283 253
Width: 577
Flags: MW
HStem: -12 74 279 74<148 427 148 512 137 427> 488 74 605 21G<255 321 255 255> 731 20G<99 190 190 190 386 477 477 477>
VStem: 53 84
LayerCount: 2
Fore
SplineSet
54 269 m 0
 54 429 146 562 290 562 c 0
 495 562 512 357 512 318 c 2
 512 279 l 1
 137 279 l 1
 132 149 188 60 294 60 c 0
 323 60 388 57 464 157 c 1
 515 108 l 1
 415 -16 335 -12 294 -12 c 0
 134 -12 54 118 54 269 c 0
290 490 m 0
 216 490 170 430 148 353 c 1
 427 353 l 1
 418 409 384 490 290 490 c 0
321 605 m 1x18
 255 605 l 1
 99 751 l 1
 190 751 l 1
 288 656 l 1
 386 751 l 1
 477 751 l 1
 321 605 l 1x18
EndSplineSet
EndChar

StartChar: Gcircumflex
Encoding: 284 284 219
Width: 748
Flags: MW
HStem: -12 86 305 86 700 80 819 21G<222 313 222 222 509 600 509 509> 945 20G<378 444 444 444>
VStem: 61 91 582 78
LayerCount: 2
Fore
SplineSet
663 378 m 1
 663 147 l 2
 663 56 539 -13 422 -15 c 1
 127 -15 59 209 59 368 c 0
 59 680 266 785 417 785 c 0
 573 785 657 667 657 667 c 1
 598 609 l 1
 598 609 534 709 421 709 c 0
 313 709 150 615 150 368 c 0
 150 246 199 65 418 65 c 0
 477 65 579 109 579 156 c 2
 579 300 l 1
 489 300 l 2
 465 300 426 298 398 313 c 1
 398 385 l 1
 430 377 469 378 492 378 c 2
 663 378 l 1
378 965 m 1x18
 444 965 l 1
 600 819 l 1
 509 819 l 1
 411 914 l 1
 313 819 l 1
 222 819 l 1
 378 965 l 1x18
EndSplineSet
EndChar

StartChar: gcircumflex
Encoding: 285 285 256
Width: 613
Flags: MW
HStem: -275 75 40 74<295 295> 197 64<286 320 270 336> 500 64<270 305 254 320> 540 74<499 522>
VStem: 59 85 80 84 426 84 497 80
LayerCount: 2
Fore
SplineSet
161 388 m 0x00
 161 274 245 261 295 261 c 0
 345 261 428 283 428 388 c 0
 428 470 345 500 295 500 c 0
 245 500 161 470 161 388 c 0x00
92 122 m 0
 92 157 123 194 163 226 c 1
 117 252 78 300 78 388 c 0
 78 513 213 564 295 564 c 0xed
 315 564 338 561 362 555 c 1
 403 592 460 614 513 614 c 0
 532 614 553 610 573 604 c 1
 559 534 l 1
 547 538 531 540 513 540 c 0
 485 540 456 534 432 524 c 1
 476 496 511 452 511 388 c 0xf480
 511 229 377 197 295 197 c 0
 277 197 256 198 235 202 c 1
 203 179 176 150 176 122 c 1
 183 115 273 115 296 114 c 0
 427 107 580 83 580 -50 c 0
 580 -171 492 -275 299 -275 c 0
 173 -275 59 -194 59 -98 c 1xf3
 60 -10 95 22 143 57 c 1
 115 69 92 88 92 122 c 0
299 -202 m 0
 434 -202 497 -131 497 -50 c 0
 497 23 386 35 295 40 c 1
 276 40 250 41 223 41 c 1
 176 12 141 -13 141 -98 c 0xf3
 141 -156 223 -202 299 -202 c 0
250 756 m 1xf480
 316 756 l 1
 472 610 l 1
 381 610 l 1
 283 705 l 1
 185 610 l 1
 94 610 l 1
 250 756 l 1xf480
EndSplineSet
EndChar

StartChar: Gbreve
Encoding: 286 286 218
Width: 748
Flags: MW
HStem: -12 86 305 86 700 80 820 64<380 431 380 449> 820 149<246 449>
VStem: 61 91 582 78
LayerCount: 2
Fore
SplineSet
663 378 m 1xe6
 663 147 l 2
 663 56 539 -13 422 -15 c 1
 127 -15 59 209 59 368 c 0
 59 680 266 785 417 785 c 0
 573 785 657 667 657 667 c 1
 598 609 l 1
 598 609 534 709 421 709 c 0
 313 709 150 615 150 368 c 0
 150 246 199 65 418 65 c 0
 477 65 579 109 579 156 c 2
 579 300 l 1
 489 300 l 2
 465 300 426 298 398 313 c 1
 398 385 l 1
 430 377 469 378 492 378 c 2
 663 378 l 1xe6
246 969 m 1x00
 307 969 l 1x10
 311 926 353 884 407 884 c 0x08
 455 884 496 926 501 969 c 1
 561 969 l 1
 551 892 491 820 407 820 c 0
 319 820 256 892 246 969 c 1x00
EndSplineSet
EndChar

StartChar: gbreve
Encoding: 287 287 255
Width: 613
Flags: MW
HStem: -275 75 40 74<295 295> 197 64<286 320 270 336> 500 64<270 305 254 320> 540 74<499 522> 601 149<128 331>
VStem: 59 85 80 84 426 84 497 80
LayerCount: 2
Fore
SplineSet
161 388 m 0x00
 161 274 245 261 295 261 c 0
 345 261 428 283 428 388 c 0
 428 470 345 500 295 500 c 0
 245 500 161 470 161 388 c 0x00
92 122 m 0
 92 157 123 194 163 226 c 1
 117 252 78 300 78 388 c 0
 78 513 213 564 295 564 c 0xea80
 315 564 338 561 362 555 c 1
 403 592 460 614 513 614 c 0
 532 614 553 610 573 604 c 1
 559 534 l 1
 547 538 531 540 513 540 c 0
 485 540 456 534 432 524 c 1
 476 496 511 452 511 388 c 0xf240
 511 229 377 197 295 197 c 0
 277 197 256 198 235 202 c 1
 203 179 176 150 176 122 c 1
 183 115 273 115 296 114 c 0
 427 107 580 83 580 -50 c 0
 580 -171 492 -275 299 -275 c 0
 173 -275 59 -194 59 -98 c 1xf180
 60 -10 95 22 143 57 c 1
 115 69 92 88 92 122 c 0
299 -202 m 0
 434 -202 497 -131 497 -50 c 0
 497 23 386 35 295 40 c 1
 276 40 250 41 223 41 c 1
 176 12 141 -13 141 -98 c 0xf180
 141 -156 223 -202 299 -202 c 0
128 750 m 1xf240
 189 750 l 1x04
 193 707 235 665 289 665 c 0x00
 337 665 378 707 383 750 c 1
 443 750 l 1
 433 673 373 601 289 601 c 0
 201 601 138 673 128 750 c 1xf240
EndSplineSet
EndChar

StartChar: Hcircumflex
Encoding: 292 292 220
Width: 740
Flags: MW
HStem: 0 21G<84 172 84 84 568 568 568 656> 360 76<172 568 172 568> 750 20G<84 172 172 172 568 656 656 656> 819 21G<186 277 186 186 473 564 473 473> 945 20G<342 408 408 408>
VStem: 84 88<0 360 436 770> 568 88<0 360 360 360 436 770 0 770>
LayerCount: 2
Fore
SplineSet
172 0 m 1
 84 0 l 1
 84 770 l 1
 172 770 l 1
 172 436 l 1
 568 436 l 1
 568 770 l 1
 656 770 l 1
 656 0 l 1
 568 0 l 1
 568 360 l 1
 172 360 l 1
 172 0 l 1
342 965 m 1x18
 408 965 l 1
 564 819 l 1
 473 819 l 1
 375 914 l 1
 277 819 l 1
 186 819 l 1
 342 965 l 1x18
EndSplineSet
EndChar

StartChar: hcircumflex
Encoding: 293 293 257
Width: 604
Flags: MW
HStem: 0 21G<84 168 84 84 451 451 451 535> 478 84<363 423.5> 610 21G<187 278 187 187 474 565 474 474> 736 20G<343 409 409 409> 800 20G<84 168 168 168>
VStem: 84 84<0 347 444 820> 451 84<0 391 0 418>
LayerCount: 2
Fore
SplineSet
168 0 m 1
 84 0 l 1
 84 820 l 1
 168 820 l 1
 168 444 l 1
 229 503 318 562 408 562 c 0
 499 562 535 497 535 391 c 2
 535 0 l 1
 451 0 l 1
 451 391 l 2
 451 445 439 478 408 478 c 0
 304 478 214 395 168 347 c 1
 168 0 l 1
343 756 m 1x30
 409 756 l 1
 565 610 l 1
 474 610 l 1
 376 705 l 1
 278 610 l 1
 187 610 l 1
 343 756 l 1x30
EndSplineSet
EndChar

StartChar: Itilde
Encoding: 296 296 223
Width: 256
Flags: MW
HStem: 0 21G<84 172 84 84> 750 20G<84 172 172 172> 815 65 862 65
VStem: 84 88<0 770>
LayerCount: 2
Fore
SplineSet
172 0 m 1xc8
 84 0 l 1
 84 770 l 1
 172 770 l 1
 172 0 l 1xc8
308 918 m 1x00
 333 868 l 1
 333 868 294 819 225 815 c 0x10
 196 813 159 826 123 839 c 0
 93 850 59 863 34 862 c 0
 -23 859 -51 824 -51 824 c 1
 -76 874 l 1
 -76 874 -37 923 32 927 c 0x20
 61 929 98 916 134 903 c 0
 164 892 198 879 223 880 c 0
 281 883 308 918 308 918 c 1x00
EndSplineSet
EndChar

StartChar: itilde
Encoding: 297 297 260
Width: 251
Flags: MW
HStem: 0 21G<84 167 84 84> 615 65 662 65 669 101
VStem: 84 83<0 550 0 550>
LayerCount: 2
Fore
SplineSet
84 550 m 1x98
 167 550 l 1
 167 0 l 1
 84 0 l 1
 84 550 l 1x98
305 718 m 1x00
 330 668 l 1
 330 668 291 619 222 615 c 0x20
 193 613 156 626 120 639 c 0
 90 650 56 663 31 662 c 0
 -26 659 -54 624 -54 624 c 1
 -79 674 l 1
 -79 674 -40 723 29 727 c 0x40
 58 729 95 716 131 703 c 0
 161 692 195 679 220 680 c 0
 278 683 305 718 305 718 c 1x00
EndSplineSet
EndChar

StartChar: Ibreve
Encoding: 300 300 221
Width: 256
Flags: MW
HStem: 0 21G<84 172 84 84> 750 20G<84 172 172 172> 817 64<105 156 105 174> 817 149<-29 174>
VStem: 84 88<0 770>
LayerCount: 2
Fore
SplineSet
172 0 m 1xc8
 84 0 l 1
 84 770 l 1
 172 770 l 1
 172 0 l 1xc8
-29 966 m 1x00
 32 966 l 1x20
 36 923 78 881 132 881 c 0x10
 180 881 221 923 226 966 c 1
 286 966 l 1
 276 889 216 817 132 817 c 0
 44 817 -19 889 -29 966 c 1x00
EndSplineSet
EndChar

StartChar: ibreve
Encoding: 301 301 258
Width: 251
Flags: MW
HStem: 0 21G<84 167 84 84> 601 64<102 153 102 171> 601 149<-32 171> 669 101
VStem: 84 83<0 550 0 550>
LayerCount: 2
Fore
SplineSet
84 550 m 1x98
 167 550 l 1
 167 0 l 1
 84 0 l 1
 84 550 l 1x98
-32 750 m 1x00
 29 750 l 1x40
 33 707 75 665 129 665 c 0x20
 177 665 218 707 223 750 c 1
 283 750 l 1
 273 673 213 601 129 601 c 0
 41 601 -22 673 -32 750 c 1x00
EndSplineSet
EndChar

StartChar: Iogonek
Encoding: 302 302 222
Width: 256
Flags: MW
HStem: -156 54<115 135 115 143> 0 21G<84 172 84 84> 31 20G 750 20G<84 172 172 172>
VStem: 29 53<-79 -38.5> 84 88<0 770>
LayerCount: 2
Fore
SplineSet
172 0 m 1
 84 0 l 1
 84 770 l 1
 172 770 l 1
 172 0 l 1
29 -69 m 0xa8
 29 -8 109 51 109 51 c 1
 141 31 l 1
 141 31 82 -9 82 -67 c 0
 82 -91 106 -102 124 -102 c 0
 146 -102 166 -91 179 -75 c 1
 219 -111 l 1
 196 -137 162 -156 124 -156 c 0
 82 -156 29 -128 29 -69 c 0xa8
EndSplineSet
EndChar

StartChar: iogonek
Encoding: 303 303 259
Width: 271
Flags: MW
HStem: -156 54<127 147 127 155> 0 21G<94 177 94 94> 31 20G 669 101
VStem: 41 53<-79 -38.5> 94 83<-79 550 0 550 0 550>
LayerCount: 2
Fore
SplineSet
94 550 m 1x54
 177 550 l 1
 177 0 l 1
 94 0 l 1
 94 550 l 1x54
84 719 m 0
 84 748 106 770 136 770 c 0
 165 770 187 748 187 719 c 0
 187 689 165 667 136 667 c 0
 106 667 84 689 84 719 c 0
41 -69 m 0xa8
 41 -8 121 51 121 51 c 1
 153 31 l 1
 153 31 94 -9 94 -67 c 0
 94 -91 118 -102 136 -102 c 0
 158 -102 178 -91 191 -75 c 1
 231 -111 l 1
 208 -137 174 -156 136 -156 c 0
 94 -156 41 -128 41 -69 c 0xa8
EndSplineSet
EndChar

StartChar: dotlessi
Encoding: 305 305 124
Width: 251
Flags: MW
HStem: 0 21G<84 167 84 84> 669 101
VStem: 84 83<0 550 0 550>
LayerCount: 2
Fore
SplineSet
84 550 m 1
 167 550 l 1
 167 0 l 1
 84 0 l 1
 84 550 l 1
EndSplineSet
EndChar

StartChar: Jcircumflex
Encoding: 308 308 224
Width: 284
Flags: MW
HStem: -259 21G<21 21> 750 20G<113 201 201 201> 818 21G<-30 61 -30 -30 257 348 257 257> 944 20G<126 192 192 192>
VStem: 113 88<-17 770>
LayerCount: 2
Fore
SplineSet
113 770 m 1
 201 770 l 1
 201 -17 l 2
 201 -178 89 -237 21 -259 c 1
 -11 -180 l 1
 50 -163 113 -116 113 -17 c 2
 113 770 l 1
126 964 m 1x30
 192 964 l 1
 348 818 l 1
 257 818 l 1
 159 913 l 1
 61 818 l 1
 -30 818 l 1
 126 964 l 1x30
EndSplineSet
EndChar

StartChar: jcircumflex
Encoding: 309 309 262
Width: 220
Flags: MW
HStem: -275 21G<-11 -11> 550 119 610 21G<-107 -16 -107 -107 180 271 180 180> 669 101 736 20G<49 115 115 115>
VStem: 43 83<-43 550>
LayerCount: 2
Fore
SplineSet
43 550 m 1xcc
 126 550 l 1
 126 -43 l 2
 126 -169 50 -254 -11 -275 c 1
 -36 -196 l 1
 3 -191 43 -122 43 -43 c 2
 43 550 l 1xcc
49 756 m 1
 115 756 l 1xcc
 271 610 l 1
 180 610 l 1
 82 705 l 1
 -16 610 l 1
 -107 610 l 1xb4
 49 756 l 1
EndSplineSet
EndChar

StartChar: nacute
Encoding: 324 324 263
Width: 604
Flags: MW
HStem: 0 21G<84 168 84 84 451 451 451 535> 478 84<363 423.5> 610 21G<254 323 254 254> 736 20G<385 489 489 489>
VStem: 84 84<0 347 444 550> 451 84<0 391 0 418>
LayerCount: 2
Fore
SplineSet
168 0 m 1
 84 0 l 1
 84 550 l 1
 168 550 l 1
 168 444 l 1
 229 503 318 562 408 562 c 0
 499 562 535 497 535 391 c 2
 535 0 l 1
 451 0 l 1
 451 391 l 2
 451 445 439 478 408 478 c 0
 308 478 221 401 168 347 c 1
 168 0 l 1
385 756 m 1x30
 489 756 l 1
 323 610 l 1
 254 610 l 1
 385 756 l 1x30
EndSplineSet
EndChar

StartChar: Ncaron
Encoding: 327 327 226
Width: 722
Flags: MW
HStem: 0 21G<84 172 84 84 550 550 550 638> 750 20G<84 172 172 172 550 638 638 638> 822 21G<328 394 328 328> 948 20G<172 263 263 263 459 550 550 550>
VStem: 84 88<0 608 769 770> 550 88<0 1 1 1 164 770 0 770>
LayerCount: 2
Fore
SplineSet
172 0 m 1
 84 0 l 1
 84 770 l 1
 172 770 l 1
 172 769 l 1
 544 164 l 1
 551 150 l 1
 550 164 l 1
 550 770 l 1
 638 770 l 1
 638 0 l 1
 550 0 l 1
 550 1 l 1
 178 608 l 1
 171 622 l 1
 172 608 l 1
 172 0 l 1
394 822 m 1x30
 328 822 l 1
 172 968 l 1
 263 968 l 1
 361 873 l 1
 459 968 l 1
 550 968 l 1
 394 822 l 1x30
EndSplineSet
EndChar

StartChar: Obreve
Encoding: 334 334 227
Width: 755
Flags: MW
HStem: -7 82 698 82 820 64<354 405 354 423> 820 149<220 423>
VStem: 60 88 611 88
LayerCount: 2
Fore
SplineSet
380 785 m 0xcc
 527 785 695 695 696 386 c 1
 696 71 535 -15 377 -15 c 0
 230 -15 59 70 59 384 c 0
 59 697 230 785 380 785 c 0xcc
380 710 m 0
 276 710 147 631 147 386 c 0
 147 137 276 61 377 61 c 0
 487 61 607 136 608 384 c 0
 608 628 487 710 380 710 c 0
220 969 m 1x00
 281 969 l 1x20
 285 926 327 884 381 884 c 0x10
 429 884 470 926 475 969 c 1
 535 969 l 1
 525 892 465 820 381 820 c 0
 293 820 230 892 220 969 c 1x00
EndSplineSet
EndChar

StartChar: obreve
Encoding: 335 335 265
Width: 586
Flags: MW
HStem: -12 70 492 70 601 64<269 320 269 338> 601 149<135 338>
VStem: 54 84<196 355 196 380> 448 84<194.5 352.5>
LayerCount: 2
Fore
SplineSet
54 275 m 0xcc
 54 485 173 562 293 562 c 0
 413 562 532 484 532 275 c 0
 532 63 413 -12 293 -12 c 0
 173 -12 54 58 54 275 c 0xcc
448 275 m 0
 448 430 369 493 293 493 c 0
 217 493 138 435 138 275 c 0
 138 117 217 56 293 56 c 0
 369 56 448 114 448 275 c 0
135 750 m 1x00
 196 750 l 1x20
 200 707 242 665 296 665 c 0x10
 344 665 385 707 390 750 c 1
 450 750 l 1
 440 673 380 601 296 601 c 0
 208 601 145 673 135 750 c 1x00
EndSplineSet
EndChar

StartChar: OE
Encoding: 338 338 169
Width: 957
Flags: MW
HStem: -7 82 0 86 360 76 684 86 698 82 755 20G<904 904>
VStem: -140 88 411 88 650 88
LayerCount: 2
Fore
SplineSet
918 0 m 1x6b80
 481 0 l 1x6b80
 481 0 413 -15 377 -15 c 0
 230 -15 59 70 59 384 c 0
 59 697 230 785 380 785 c 0
 413 785 448 781 481 770 c 1
 799 770 l 2xb380
 864 770 904 775 904 775 c 1xa780
 904 695 l 1
 569 695 l 1
 569 437 l 1
 854 437 l 1
 854 361 l 1
 569 361 l 1
 569 76 l 1
 813 76 l 2
 878 76 918 81 918 81 c 1
 918 0 l 1x6b80
481 87 m 1
 481 683 l 1
 449 702 414 710 380 710 c 0
 276 710 147 631 147 386 c 0
 147 137 276 61 377 61 c 0
 412 61 448 69 481 87 c 1
EndSplineSet
EndChar

StartChar: oe
Encoding: 339 339 174
Width: 971
Flags: MW
HStem: -12 70 279 74<542 821 542 906 531 821> 492 70
VStem: 54 84<196 355 196 380> 447 84 448 84
LayerCount: 2
Fore
SplineSet
54 275 m 0xf8
 54 485 173 562 293 562 c 0
 371 562 449 528 493 447 c 1
 533 516 600 562 684 562 c 0
 889 562 906 357 906 318 c 2
 906 279 l 1
 531 279 l 1
 526 149 582 60 688 60 c 0
 717 60 782 57 858 157 c 1
 909 108 l 1
 809 -16 729 -12 688 -12 c 0
 595 -12 529 31 490 97 c 1
 446 19 370 -12 293 -12 c 0
 173 -12 54 58 54 275 c 0xf8
448 269 m 1xf4
 448 281 l 1
 446 431 368 493 293 493 c 0
 217 493 138 435 138 275 c 0
 138 117 217 56 293 56 c 0
 367 56 444 111 448 263 c 1
 448 269 l 1xf4
684 490 m 0
 610 490 564 430 542 353 c 1
 821 353 l 1
 812 409 778 490 684 490 c 0
EndSplineSet
EndChar

StartChar: Racute
Encoding: 340 340 228
Width: 653
Flags: MW
HStem: 0 21G<84 172 84 84 536 536 536 643> 318 72 698 82 821 21G<299 368 299 299> 947 20G<430 534 534 534>
VStem: 84 88<0 322 397 657 739 770> 468 84
LayerCount: 2
Fore
SplineSet
172 0 m 1
 84 0 l 1
 84 770 l 1
 172 770 l 1
 172 739 l 1
 225 772 278 784 341 785 c 1
 467 785 546 701 554 565 c 1
 553 408 466 347 380 329 c 1
 468 258 547 76 643 2 c 1
 643 0 l 1
 536 0 l 1
 449 69 358 290 253 322 c 1
 225 322 201 322 172 322 c 1
 172 0 l 1
320 397 m 1
 384 398 467 429 468 565 c 0
 468 650 414 706 327 706 c 0
 269 706 221 690 172 657 c 1
 172 397 l 1
 320 397 l 1
430 967 m 1x18
 534 967 l 1
 368 821 l 1
 299 821 l 1
 430 967 l 1x18
EndSplineSet
EndChar

StartChar: racute
Encoding: 341 341 266
Width: 436
Flags: MW
HStem: 0 21G<84 168 84 84> 482 68 482 80<279 334.5> 610 21G<185 254 185 185> 736 20G<316 420 420 420>
VStem: 84 84<0 344 475 550>
LayerCount: 2
Fore
SplineSet
84 550 m 1xa4
 168 550 l 1xc4
 168 475 l 1
 203 535 251 562 307 562 c 0
 393 562 440 507 440 507 c 1
 382 451 l 1
 382 451 358 482 311 482 c 0
 247 482 197 405 168 344 c 1
 168 0 l 1
 84 0 l 1
 84 550 l 1xa4
316 756 m 1x18
 420 756 l 1
 254 610 l 1
 185 610 l 1
 316 756 l 1x18
EndSplineSet
EndChar

StartChar: rcaron
Encoding: 345 345 267
Width: 436
Flags: MW
HStem: 0 21G<84 168 84 84> 482 68 482 80<279 334.5> 605 21G<206 272 206 206> 731 20G<50 141 141 141 337 428 428 428>
VStem: 84 84<0 344 475 550>
LayerCount: 2
Fore
SplineSet
84 550 m 1xa4
 168 550 l 1xc4
 168 475 l 1
 203 535 251 562 307 562 c 0
 393 562 440 507 440 507 c 1
 382 451 l 1
 382 451 358 482 311 482 c 0
 247 482 197 405 168 344 c 1
 168 0 l 1
 84 0 l 1
 84 550 l 1xa4
272 605 m 1x18
 206 605 l 1
 50 751 l 1
 141 751 l 1
 239 656 l 1
 337 751 l 1
 428 751 l 1
 272 605 l 1x18
EndSplineSet
EndChar

StartChar: Sacute
Encoding: 346 346 230
Width: 618
Flags: MW
HStem: -11 80 701 80 819 21G<256 325 256 256> 945 20G<387 491 491 491>
VStem: 75 84 493 84
LayerCount: 2
Fore
SplineSet
54 136 m 1
 116 191 l 1
 168 107 230 67 323 65 c 1
 409 65 483 112 483 208 c 0
 483 302 399 329 307 357 c 0
 190 393 81 434 83 572 c 0
 86 755 234 785 305 785 c 0
 403 785 467 752 520 689 c 1
 460 638 l 1
 421 679 379 705 305 705 c 0
 260 705 174 687 169 572 c 0
 166 496 245 467 331 441 c 0
 448 405 569 358 569 208 c 0
 569 58 451 -15 321 -15 c 1
 200 -11 118 34 54 136 c 1
387 965 m 1x30
 491 965 l 1
 325 819 l 1
 256 819 l 1
 387 965 l 1x30
EndSplineSet
EndChar

StartChar: Scircumflex
Encoding: 348 348 232
Width: 618
Flags: MW
HStem: -11 80 701 80 820 21G<120 211 120 120 407 498 407 407> 946 20G<276 342 342 342>
VStem: 75 84 493 84
LayerCount: 2
Fore
SplineSet
54 136 m 1
 116 191 l 1
 168 107 230 67 323 65 c 1
 409 65 483 112 483 208 c 0
 483 302 399 329 307 357 c 0
 190 393 81 434 83 572 c 0
 86 755 234 785 305 785 c 0
 403 785 467 752 520 689 c 1
 460 638 l 1
 421 679 379 705 305 705 c 0
 260 705 174 687 169 572 c 0
 166 496 245 467 331 441 c 0
 448 405 569 358 569 208 c 0
 569 58 451 -15 321 -15 c 1
 200 -11 118 34 54 136 c 1
276 966 m 1x30
 342 966 l 1
 498 820 l 1
 407 820 l 1
 309 915 l 1
 211 820 l 1
 120 820 l 1
 276 966 l 1x30
EndSplineSet
EndChar

StartChar: scircumflex
Encoding: 349 349 270
Width: 502
Flags: MW
HStem: -12 70<261 288.5 261 307.5> 492 70<233.5 272.5> 610 21G<62 153 62 62 349 440 349 349> 736 20G<218 284 284 284>
VStem: 76 80 370 80
LayerCount: 2
Fore
SplineSet
156 405 m 0
 156 358 212 341 270 323 c 0
 359 296 453 269 453 151 c 0
 453 40 356 -12 259 -12 c 0
 178 -12 91 25 44 100 c 1
 102 147 l 1
 132 92 197 59 261 58 c 0
 316 58 370 88 370 151 c 0
 370 208 305 229 246 247 c 0
 162 272 73 302 73 405 c 0
 73 539 195 562 248 562 c 0
 320 562 382 537 421 498 c 1
 367 446 l 1
 341 474 297 492 248 492 c 0
 219 492 156 479 156 405 c 0
218 756 m 1x30
 284 756 l 1
 440 610 l 1
 349 610 l 1
 251 705 l 1
 153 610 l 1
 62 610 l 1
 218 756 l 1x30
EndSplineSet
EndChar

StartChar: Scaron
Encoding: 352 352 231
Width: 618
Flags: MW
HStem: -11 80 701 80 820 21G<276 342 276 276> 946 20G<120 211 211 211 407 498 498 498>
VStem: 75 84 493 84
LayerCount: 2
Fore
SplineSet
54 136 m 1
 116 191 l 1
 168 107 230 67 323 65 c 1
 409 65 483 112 483 208 c 0
 483 302 399 329 307 357 c 0
 190 393 81 434 83 572 c 0
 86 755 234 785 305 785 c 0
 403 785 467 752 520 689 c 1
 460 638 l 1
 421 679 379 705 305 705 c 0
 260 705 174 687 169 572 c 0
 166 496 245 467 331 441 c 0
 448 405 569 358 569 208 c 0
 569 58 451 -15 321 -15 c 1
 200 -11 118 34 54 136 c 1
342 820 m 1x30
 276 820 l 1
 120 966 l 1
 211 966 l 1
 309 871 l 1
 407 966 l 1
 498 966 l 1
 342 820 l 1x30
EndSplineSet
EndChar

StartChar: scaron
Encoding: 353 353 269
Width: 502
Flags: MW
HStem: -12 70<261 288.5 261 307.5> 492 70<233.5 272.5> 605 21G<218 284 218 218> 731 20G<62 153 153 153 349 440 440 440>
VStem: 76 80 370 80
LayerCount: 2
Fore
SplineSet
156 405 m 0
 156 358 212 341 270 323 c 0
 359 296 453 269 453 151 c 0
 453 40 356 -12 259 -12 c 0
 178 -12 91 25 44 100 c 1
 102 147 l 1
 132 92 197 59 261 58 c 0
 316 58 370 88 370 151 c 0
 370 208 305 229 246 247 c 0
 162 272 73 302 73 405 c 0
 73 539 195 562 248 562 c 0
 320 562 382 537 421 498 c 1
 367 446 l 1
 341 474 297 492 248 492 c 0
 219 492 156 479 156 405 c 0
284 605 m 1x30
 218 605 l 1
 62 751 l 1
 153 751 l 1
 251 656 l 1
 349 751 l 1
 440 751 l 1
 284 605 l 1x30
EndSplineSet
EndChar

StartChar: Tcaron
Encoding: 356 356 233
Width: 556
Flags: MW
HStem: 0 21G<232 320 232 232> 694 76<7 549 7 232 320 320 320 549> 820 21G<245 311 245 245> 946 20G<89 180 180 180 376 467 467 467>
VStem: 232 88<0 694 0 694>
LayerCount: 2
Fore
SplineSet
7 694 m 1
 7 770 l 1
 549 770 l 1
 549 694 l 1
 320 694 l 1
 320 0 l 1
 232 0 l 1
 232 694 l 1
 7 694 l 1
311 820 m 1x30
 245 820 l 1
 89 966 l 1
 180 966 l 1
 278 871 l 1
 376 966 l 1
 467 966 l 1
 311 820 l 1x30
EndSplineSet
EndChar

StartChar: Utilde
Encoding: 360 360 237
Width: 683
Flags: MW
HStem: -12 77<313.5 370 313.5 384> 750 20G<84 172 172 172 511 599 599 599> 811 65 858 65
VStem: 70 88 525 88
LayerCount: 2
Fore
SplineSet
599 239 m 1xcc
 598 14 426 -12 342 -12 c 0
 257 -12 85 16 84 239 c 1
 84 770 l 1
 172 770 l 1
 172 241 l 2
 172 86 285 65 342 65 c 0
 398 65 510 90 511 239 c 1
 511 770 l 1
 599 770 l 1
 599 239 l 1xcc
521 914 m 1x00
 546 864 l 1
 546 864 507 815 438 811 c 0x10
 409 809 372 822 336 835 c 0
 306 846 272 859 247 858 c 0
 190 855 162 820 162 820 c 1
 137 870 l 1
 137 870 176 919 245 923 c 0x20
 274 925 311 912 347 899 c 0
 377 888 411 875 436 876 c 0
 494 879 521 914 521 914 c 1x00
EndSplineSet
EndChar

StartChar: utilde
Encoding: 361 361 274
Width: 604
Flags: MW
HStem: -20 20G<436 520 436 436> -12 84 530 20G<69 153 153 153 436 520 520 520> 615 65
VStem: 69 84<159 550> 436 84<0 97 97 97 202 550 0 550>
LayerCount: 2
Fore
SplineSet
196 69 m 0x00
 295 69 383 147 436 202 c 1
 436 550 l 1
 520 550 l 1
 520 0 l 1
 436 0 l 1x6c
 436 97 l 1
 374 38 285 -12 196 -12 c 0
 105 -12 69 53 69 159 c 2
 69 550 l 1
 153 550 l 1
 153 159 l 2
 153 105 165 69 196 69 c 0x00
481 718 m 1x6c
 506 668 l 1
 506 668 467 619 398 615 c 0x10
 369 613 332 626 296 639 c 0
 266 650 232 663 207 662 c 0
 150 659 122 624 122 624 c 1
 97 674 l 1
 97 674 136 723 205 727 c 0x00
 234 729 271 716 307 703 c 0
 337 692 371 679 396 680 c 0
 454 683 481 718 481 718 c 1x6c
EndSplineSet
EndChar

StartChar: Ubreve
Encoding: 364 364 234
Width: 683
Flags: MW
HStem: -12 77<313.5 370 313.5 384> 750 20G<84 172 172 172 511 599 599 599> 820 64<321 372 321 390> 820 149<187 390>
VStem: 70 88 525 88
LayerCount: 2
Fore
SplineSet
599 239 m 1xcc
 598 14 426 -12 342 -12 c 0
 257 -12 85 16 84 239 c 1
 84 770 l 1
 172 770 l 1
 172 241 l 2
 172 86 285 65 342 65 c 0
 398 65 510 90 511 239 c 1
 511 770 l 1
 599 770 l 1
 599 239 l 1xcc
187 969 m 1x00
 248 969 l 1x20
 252 926 294 884 348 884 c 0x10
 396 884 437 926 442 969 c 1
 502 969 l 1
 492 892 432 820 348 820 c 0
 260 820 197 892 187 969 c 1x00
EndSplineSet
EndChar

StartChar: ubreve
Encoding: 365 365 271
Width: 604
Flags: MW
HStem: -20 20G<436 520 436 436> -12 84 530 20G<69 153 153 153 436 520 520 520> 601 149<144 347>
VStem: 69 84<159 550> 436 84<0 97 97 97 202 550 0 550>
LayerCount: 2
Fore
SplineSet
196 69 m 0x00
 295 69 383 147 436 202 c 1
 436 550 l 1
 520 550 l 1
 520 0 l 1
 436 0 l 1x6c
 436 97 l 1
 374 38 285 -12 196 -12 c 0
 105 -12 69 53 69 159 c 2
 69 550 l 1
 153 550 l 1
 153 159 l 2
 153 105 165 69 196 69 c 0x00
144 750 m 1x6c
 205 750 l 1x10
 209 707 251 665 305 665 c 0x00
 353 665 394 707 399 750 c 1
 459 750 l 1
 449 673 389 601 305 601 c 0
 217 601 154 673 144 750 c 1x6c
EndSplineSet
EndChar

StartChar: Uring
Encoding: 366 366 236
Width: 683
Flags: MW
HStem: -12 77<313.5 370 313.5 384> 750 20G<84 172 172 172 511 599 599 599> 820 48<330 354.5 330 368.5 330 354.5 330 368.5 330 354.5 330 368.5> 961 47<330 354.5>
VStem: 70 88 247 48<889.5 927.5 903 927.5 903 941.5 903 941.5> 388 47<903 927.5> 525 88
LayerCount: 2
Fore
SplineSet
599 239 m 1
 598 14 426 -12 342 -12 c 0
 257 -12 85 16 84 239 c 1
 84 770 l 1
 172 770 l 1
 172 241 l 2
 172 86 285 65 342 65 c 0
 398 65 510 90 511 239 c 1
 511 770 l 1
 599 770 l 1
 599 239 l 1
247 916 m 1x36
 247 863 290 820 343 820 c 0
 394 820 435 863 435 916 c 0
 435 967 394 1008 343 1008 c 0
 290 1008 247 967 247 916 c 1
 247 967 290 1008 343 1008 c 0
 394 1008 435 967 435 916 c 0
 435 863 394 820 343 820 c 0
 290 820 247 863 247 916 c 0
 247 967 290 1008 343 1008 c 0
 394 1008 435 967 435 916 c 0
 435 863 394 820 343 820 c 0
 290 820 247 863 247 916 c 1x36
295 916 m 0
 295 890 317 868 343 868 c 0
 366 868 388 890 388 916 c 0
 388 939 366 961 343 961 c 0
 317 961 295 939 295 916 c 0
EndSplineSet
EndChar

StartChar: uring
Encoding: 367 367 273
Width: 604
Flags: MW
HStem: -20 20G<436 520 436 436> -12 84 530 20G<69 153 153 153 436 520 520 520>
VStem: 69 84<159 550> 436 84<0 97 97 97 202 550 0 550>
LayerCount: 2
Fore
SplineSet
196 69 m 0x00
 295 69 383 147 436 202 c 1
 436 550 l 1
 520 550 l 1
 520 0 l 1
 436 0 l 1x78
 436 97 l 1
 374 38 285 -12 196 -12 c 0
 105 -12 69 53 69 159 c 2
 69 550 l 1
 153 550 l 1
 153 159 l 2
 153 105 165 69 196 69 c 0x00
208 693 m 1x78
 208 640 251 597 304 597 c 0
 355 597 396 640 396 693 c 0
 396 744 355 785 304 785 c 0
 251 785 208 744 208 693 c 1
 208 744 251 785 304 785 c 0
 355 785 396 744 396 693 c 0
 396 640 355 597 304 597 c 0
 251 597 208 640 208 693 c 0
 208 744 251 785 304 785 c 0
 355 785 396 744 396 693 c 0
 396 640 355 597 304 597 c 0
 251 597 208 640 208 693 c 1x78
256 693 m 0
 256 667 278 645 304 645 c 0
 327 645 349 667 349 693 c 0
 349 716 327 738 304 738 c 0
 278 738 256 716 256 693 c 0
EndSplineSet
EndChar

StartChar: Uogonek
Encoding: 370 370 235
Width: 683
Flags: MW
HStem: -156 54<380 400 380 408> -12 77<313.5 370 313.5 384> 31 20G 750 20G<84 172 172 172 511 599 599 599>
VStem: 70 88 294 53<-79 -38.5> 525 88
LayerCount: 2
Fore
SplineSet
599 239 m 1x5a
 598 14 426 -12 342 -12 c 0
 257 -12 85 16 84 239 c 1
 84 770 l 1
 172 770 l 1
 172 241 l 2
 172 86 285 65 342 65 c 0
 398 65 510 90 511 239 c 1
 511 770 l 1
 599 770 l 1
 599 239 l 1x5a
294 -69 m 0xa4
 294 -8 374 51 374 51 c 1
 406 31 l 1
 406 31 347 -9 347 -67 c 0
 347 -91 371 -102 389 -102 c 0
 411 -102 431 -91 444 -75 c 1
 484 -111 l 1
 461 -137 427 -156 389 -156 c 0
 347 -156 294 -128 294 -69 c 0xa4
EndSplineSet
EndChar

StartChar: uogonek
Encoding: 371 371 272
Width: 604
Flags: MW
HStem: -20 20G<436 520 436 436> -12 84 530 20G<69 153 153 153 436 520 520 520>
VStem: 69 84<159 550> 436 84<0 97 97 97 202 550 0 550>
LayerCount: 2
Fore
SplineSet
196 69 m 0x00
 295 69 383 147 436 202 c 1
 436 550 l 1
 520 550 l 1
 520 0 l 1
 436 0 l 1x78
 436 97 l 1
 374 38 285 -12 196 -12 c 0
 105 -12 69 53 69 159 c 2
 69 550 l 1
 153 550 l 1
 153 159 l 2
 153 105 165 69 196 69 c 0x00
384 -69 m 0x78
 384 -8 464 51 464 51 c 1
 496 31 l 1
 496 31 437 -9 437 -67 c 0
 437 -91 461 -102 479 -102 c 0
 501 -102 521 -91 534 -75 c 1
 574 -111 l 1
 551 -137 517 -156 479 -156 c 0
 437 -156 384 -128 384 -69 c 0x78
EndSplineSet
EndChar

StartChar: Wcircumflex
Encoding: 372 372 239
Width: 976
Flags: MW
HStem: 0 21G<243 316 243 243 660 660 660 733> 750 20G<25 115 115 115 441 534 534 534 860 951 951 951> 817 21G<299 390 299 299 586 677 586 586> 943 20G<455 521 521 521>
LayerCount: 2
Fore
SplineSet
316 0 m 1
 243 0 l 1
 25 770 l 1
 115 770 l 1
 277 160 l 1
 279 148 l 1
 281 160 l 1
 441 770 l 1
 534 770 l 1
 694 158 l 1
 696 146 l 1
 698 158 l 1
 860 770 l 1
 951 770 l 1
 733 0 l 1
 660 0 l 1
 490 594 l 1
 487 612 l 1
 484 594 l 1
 316 0 l 1
455 963 m 1x30
 521 963 l 1
 677 817 l 1
 586 817 l 1
 488 912 l 1
 390 817 l 1
 299 817 l 1
 455 963 l 1x30
EndSplineSet
EndChar

StartChar: wcircumflex
Encoding: 373 373 276
Width: 777
Flags: MW
HStem: 0 21G<184 263 184 184 507 507 507 578> 530 20G<25 116 116 116 348 420 420 420 670 752 752 752> 610 21G<199 290 199 199 486 577 486 486> 736 20G<355 421 421 421>
LayerCount: 2
Fore
SplineSet
263 0 m 1
 184 0 l 1
 25 550 l 1
 116 550 l 1
 225 140 l 1
 228 119 l 1
 231 140 l 1
 348 550 l 1
 420 550 l 1
 537 140 l 1
 541 119 l 1
 544 140 l 1
 584 291 651 540 670 550 c 1
 752 550 l 1
 725 523 578 0 578 0 c 1
 507 0 l 1
 384 424 l 1
 263 0 l 1
355 756 m 1x30
 421 756 l 1
 577 610 l 1
 486 610 l 1
 388 705 l 1
 290 610 l 1
 199 610 l 1
 355 756 l 1x30
EndSplineSet
EndChar

StartChar: ycircumflex
Encoding: 375 375 279
Width: 513
Flags: MW
HStem: -275 21G<16 16> 530 20G<16 105 105 105 426 521 521 521> 610 21G<67 158 67 67 354 445 354 354> 736 20G<223 289 289 289>
LayerCount: 2
Fore
SplineSet
16 550 m 1
 105 550 l 1
 254 164 l 1
 323 333 407 534 426 550 c 1
 521 550 l 1
 493 523 478 496 260 -39 c 0
 235 -101 209 -165 158 -214 c 0
 104 -266 51 -273 16 -275 c 1
 -5 -202 l 1
 56 -198 80 -180 101 -159 c 0
 125 -136 143 -109 181 -17 c 2
 208 50 l 1
 16 550 l 1
223 756 m 1x30
 289 756 l 1
 445 610 l 1
 354 610 l 1
 256 705 l 1
 158 610 l 1
 67 610 l 1
 223 756 l 1x30
EndSplineSet
EndChar

StartChar: Ydieresis
Encoding: 376 376 120
Width: 615
Flags: MW
HStem: 0 21G<265 352 265 265> 750 20G<9 112 112 112 507 606 606 606>
VStem: 265 87<0 369 0 369>
LayerCount: 2
Fore
SplineSet
507 770 m 1
 606 770 l 1
 352 369 l 1
 352 0 l 1
 265 0 l 1
 265 369 l 1
 9 770 l 1
 112 770 l 1
 309 461 l 1
 507 770 l 1
155 877 m 0
 155 906 177 928 207 928 c 0
 236 928 258 906 258 877 c 0
 258 847 236 825 207 825 c 0
 177 825 155 847 155 877 c 0
356 877 m 0
 356 906 379 928 408 928 c 0
 438 928 459 906 459 877 c 0
 459 847 438 825 408 825 c 0
 379 825 356 847 356 877 c 0
EndSplineSet
EndChar

StartChar: Zacute
Encoding: 377 377 244
Width: 611
Flags: MW
HStem: 0 82<156 444 49 49> 688 82<59 434 59 541> 818 21G<273 342 273 273> 944 20G<404 508 508 508>
LayerCount: 2
Fore
SplineSet
562 98 m 1
 562 15 l 1
 534 0 444 0 444 0 c 1
 49 0 l 1
 49 82 l 1
 434 688 l 1
 59 688 l 1
 59 770 l 1
 541 770 l 1
 541 690 l 1
 156 82 l 1
 446 82 l 1
 446 82 518 82 562 98 c 1
404 964 m 1x30
 508 964 l 1
 342 818 l 1
 273 818 l 1
 404 964 l 1x30
EndSplineSet
EndChar

StartChar: zacute
Encoding: 378 378 281
Width: 516
Flags: MW
HStem: 0 71<150 405 49 49> 480 70<49 359 49 460 49 460> 610 21G<216 285 216 216> 736 20G<347 451 451 451>
LayerCount: 2
Fore
SplineSet
477 88 m 1
 477 17 l 1
 464 2 405 0 405 0 c 1
 49 0 l 1
 49 71 l 1
 359 480 l 1
 49 480 l 1
 49 550 l 1
 460 550 l 1
 460 480 l 1
 150 71 l 1
 406 71 l 1
 406 71 461 71 477 88 c 1
347 756 m 1x30
 451 756 l 1
 285 610 l 1
 216 610 l 1
 347 756 l 1x30
EndSplineSet
EndChar

StartChar: Zcaron
Encoding: 381 381 245
Width: 611
Flags: MW
HStem: 0 82<156 444 49 49> 688 82<59 434 59 541> 821 21G<295 361 295 295> 947 20G<139 230 230 230 426 517 517 517>
LayerCount: 2
Fore
SplineSet
562 98 m 1
 562 15 l 1
 534 0 444 0 444 0 c 1
 49 0 l 1
 49 82 l 1
 434 688 l 1
 59 688 l 1
 59 770 l 1
 541 770 l 1
 541 690 l 1
 156 82 l 1
 446 82 l 1
 446 82 518 82 562 98 c 1
361 821 m 1x30
 295 821 l 1
 139 967 l 1
 230 967 l 1
 328 872 l 1
 426 967 l 1
 517 967 l 1
 361 821 l 1x30
EndSplineSet
EndChar

StartChar: zcaron
Encoding: 382 382 282
Width: 516
Flags: MW
HStem: 0 71<150 405 49 49> 480 70<49 359 49 460 49 460> 605 21G<225 291 225 225> 731 20G<69 160 160 160 356 447 447 447>
LayerCount: 2
Fore
SplineSet
477 88 m 1
 477 17 l 1
 464 2 405 0 405 0 c 1
 49 0 l 1
 49 71 l 1
 359 480 l 1
 49 480 l 1
 49 550 l 1
 460 550 l 1
 460 480 l 1
 150 71 l 1
 406 71 l 1
 406 71 461 71 477 88 c 1
291 605 m 1x30
 225 605 l 1
 69 751 l 1
 160 751 l 1
 258 656 l 1
 356 751 l 1
 447 751 l 1
 291 605 l 1x30
EndSplineSet
EndChar

StartChar: dotlessj
Encoding: 567 567 261
Width: 220
Flags: MW
HStem: -275 21G<-11 -11> 550 119 669 101
VStem: 43 83<-43 550>
LayerCount: 2
Fore
SplineSet
43 550 m 1
 126 550 l 1
 126 -43 l 2
 126 -169 50 -254 -11 -275 c 1
 -36 -196 l 1
 3 -191 43 -122 43 -43 c 2
 43 550 l 1
EndSplineSet
EndChar

StartChar: circumflex
Encoding: 710 710 103
Width: 496
Flags: MW
HStem: 610 21G<59 150 59 59 346 437 346 346> 736 20G<215 281 281 281>
LayerCount: 2
Fore
SplineSet
215 756 m 1
 281 756 l 1
 437 610 l 1
 346 610 l 1
 248 705 l 1
 150 610 l 1
 59 610 l 1
 215 756 l 1
EndSplineSet
EndChar

StartChar: caron
Encoding: 711 711 112
Width: 496
Flags: MW
HStem: 605 21G<215 281 215 215> 731 20G<59 150 150 150 346 437 437 437>
LayerCount: 2
Fore
SplineSet
281 605 m 1
 215 605 l 1
 59 751 l 1
 150 751 l 1
 248 656 l 1
 346 751 l 1
 437 751 l 1
 281 605 l 1
EndSplineSet
EndChar

StartChar: breve
Encoding: 728 728 167
Width: 433
Flags: MW
HStem: 601 64<193 244 193 262> 601 149<59 262>
LayerCount: 2
Fore
SplineSet
59 750 m 1x40
 120 750 l 1x40
 124 707 166 665 220 665 c 0x80
 268 665 309 707 314 750 c 1
 374 750 l 1
 364 673 304 601 220 601 c 0
 132 601 69 673 59 750 c 1x40
EndSplineSet
EndChar

StartChar: dotaccent
Encoding: 729 729 171
Width: 191
Flags: MW
HStem: 667 103<81 110.5>
VStem: 44 103<704 733.5>
LayerCount: 2
Fore
SplineSet
44 719 m 0
 44 748 66 770 96 770 c 0
 125 770 147 748 147 719 c 0
 147 689 125 667 96 667 c 0
 66 667 44 689 44 719 c 0
EndSplineSet
EndChar

StartChar: ring
Encoding: 730 730 163
Width: 316
Flags: MW
HStem: 597 48<147 171.5 147 185.5 147 171.5 147 185.5 147 171.5 147 185.5> 738 47<147 171.5>
VStem: 64 48<666.5 704.5 680 704.5 680 718.5 680 718.5> 205 47<680 704.5>
LayerCount: 2
Fore
SplineSet
64 693 m 1
 64 640 107 597 160 597 c 0
 211 597 252 640 252 693 c 0
 252 744 211 785 160 785 c 0
 107 785 64 744 64 693 c 1
 64 744 107 785 160 785 c 0
 211 785 252 744 252 693 c 0
 252 640 211 597 160 597 c 0
 107 597 64 640 64 693 c 0
 64 744 107 785 160 785 c 0
 211 785 252 744 252 693 c 0
 252 640 211 597 160 597 c 0
 107 597 64 640 64 693 c 1
112 693 m 0
 112 667 134 645 160 645 c 0
 183 645 205 667 205 693 c 0
 205 716 183 738 160 738 c 0
 134 738 112 716 112 693 c 0
EndSplineSet
EndChar

StartChar: ogonek
Encoding: 731 731 177
Width: 318
Flags: MW
HStem: -156 54<150 170 150 178> 31 20G
VStem: 64 53<-79 -38.5>
LayerCount: 2
Fore
SplineSet
64 -69 m 0
 64 -8 144 51 144 51 c 1
 176 31 l 1
 176 31 117 -9 117 -67 c 0
 117 -91 141 -102 159 -102 c 0
 181 -102 201 -91 214 -75 c 1
 254 -111 l 1
 231 -137 197 -156 159 -156 c 0
 117 -156 64 -128 64 -69 c 0
EndSplineSet
EndChar

StartChar: tilde
Encoding: 732 732 107
Width: 537
Flags: MW
HStem: 615 65 662 65
LayerCount: 2
Fore
SplineSet
448 718 m 1x80
 473 668 l 1
 473 668 434 619 365 615 c 0x80
 336 613 299 626 263 639 c 0
 233 650 199 663 174 662 c 0
 117 659 89 624 89 624 c 1
 64 674 l 1
 64 674 103 723 172 727 c 0x40
 201 729 238 716 274 703 c 0
 304 692 338 679 363 680 c 0
 421 683 448 718 448 718 c 1x80
EndSplineSet
EndChar

StartChar: hungarumlaut
Encoding: 733 733 166
Width: 491
Flags: MW
HStem: 610 146<59 294 59 294 197 197 197 266>
LayerCount: 2
Fore
SplineSet
190 756 m 1
 294 756 l 1
 128 610 l 1
 59 610 l 1
 190 756 l 1
328 756 m 1
 432 756 l 1
 266 610 l 1
 197 610 l 1
 328 756 l 1
EndSplineSet
EndChar

StartChar: Wgrave
Encoding: 7808 7808 241
Width: 976
Flags: MW
HStem: 0 21G<243 316 243 243 660 660 660 733> 750 20G<25 115 115 115 441 534 534 534 860 951 951 951> 820 21G 959 20G
LayerCount: 2
Fore
SplineSet
316 0 m 1
 243 0 l 1
 25 770 l 1
 115 770 l 1
 277 160 l 1
 279 148 l 1
 281 160 l 1
 441 770 l 1
 534 770 l 1
 694 158 l 1
 696 146 l 1
 698 158 l 1
 860 770 l 1
 951 770 l 1
 733 0 l 1
 660 0 l 1
 490 594 l 1
 487 612 l 1
 484 594 l 1
 316 0 l 1
297 965 m 1x30
 401 965 l 1
 532 819 l 1
 463 819 l 1
 297 965 l 1x30
EndSplineSet
EndChar

StartChar: wgrave
Encoding: 7809 7809 278
Width: 777
Flags: MW
HStem: 0 21G<184 263 184 184 507 507 507 578> 530 20G<25 116 116 116 348 420 420 420 670 752 752 752> 611 21G 750 20G
LayerCount: 2
Fore
SplineSet
263 0 m 1
 184 0 l 1
 25 550 l 1
 116 550 l 1
 225 140 l 1
 228 119 l 1
 231 140 l 1
 348 550 l 1
 420 550 l 1
 537 140 l 1
 541 119 l 1
 544 140 l 1
 584 291 651 540 670 550 c 1
 752 550 l 1
 725 523 578 0 578 0 c 1
 507 0 l 1
 384 424 l 1
 263 0 l 1
188 756 m 1x30
 292 756 l 1
 423 610 l 1
 354 610 l 1
 188 756 l 1x30
EndSplineSet
EndChar

StartChar: wacute
Encoding: 7811 7811 275
Width: 777
Flags: MW
HStem: 0 21G<184 263 184 184 507 507 507 578> 530 20G<25 116 116 116 348 420 420 420 670 752 752 752> 610 21G<343 412 343 343> 736 20G<474 578 578 578>
LayerCount: 2
Fore
SplineSet
263 0 m 1
 184 0 l 1
 25 550 l 1
 116 550 l 1
 225 140 l 1
 228 119 l 1
 231 140 l 1
 348 550 l 1
 420 550 l 1
 537 140 l 1
 541 119 l 1
 544 140 l 1
 584 291 651 540 670 550 c 1
 752 550 l 1
 725 523 578 0 578 0 c 1
 507 0 l 1
 384 424 l 1
 263 0 l 1
474 756 m 1x30
 578 756 l 1
 412 610 l 1
 343 610 l 1
 474 756 l 1x30
EndSplineSet
EndChar

StartChar: Wdieresis
Encoding: 7812 7812 240
Width: 976
Flags: MW
HStem: 0 21G<243 316 243 243 660 660 660 733> 750 20G<25 115 115 115 441 534 534 534 860 951 951 951> 820 103<373 402.5 574.5 604>
VStem: 336 103<857 886.5> 537 103<857 886.5>
LayerCount: 2
Fore
SplineSet
316 0 m 1
 243 0 l 1
 25 770 l 1
 115 770 l 1
 277 160 l 1
 279 148 l 1
 281 160 l 1
 441 770 l 1
 534 770 l 1
 694 158 l 1
 696 146 l 1
 698 158 l 1
 860 770 l 1
 951 770 l 1
 733 0 l 1
 660 0 l 1
 490 594 l 1
 487 612 l 1
 484 594 l 1
 316 0 l 1
336 872 m 0x38
 336 901 358 923 388 923 c 0
 417 923 439 901 439 872 c 0
 439 842 417 820 388 820 c 0
 358 820 336 842 336 872 c 0x38
537 872 m 0
 537 901 560 923 589 923 c 0
 619 923 640 901 640 872 c 0
 640 842 619 820 589 820 c 0
 560 820 537 842 537 872 c 0
EndSplineSet
EndChar

StartChar: wdieresis
Encoding: 7813 7813 277
Width: 777
Flags: MW
HStem: 0 21G<184 263 184 184 507 507 507 578> 530 20G<25 116 116 116 348 420 420 420 670 752 752 752> 610 103<273 302.5 474.5 504>
VStem: 236 103<647 676.5> 437 103<647 676.5>
LayerCount: 2
Fore
SplineSet
263 0 m 1
 184 0 l 1
 25 550 l 1
 116 550 l 1
 225 140 l 1
 228 119 l 1
 231 140 l 1
 348 550 l 1
 420 550 l 1
 537 140 l 1
 541 119 l 1
 544 140 l 1
 584 291 651 540 670 550 c 1
 752 550 l 1
 725 523 578 0 578 0 c 1
 507 0 l 1
 384 424 l 1
 263 0 l 1
236 662 m 0x38
 236 691 258 713 288 713 c 0
 317 713 339 691 339 662 c 0
 339 632 317 610 288 610 c 0
 258 610 236 632 236 662 c 0x38
437 662 m 0
 437 691 460 713 489 713 c 0
 519 713 540 691 540 662 c 0
 540 632 519 610 489 610 c 0
 460 610 437 632 437 662 c 0
EndSplineSet
EndChar

StartChar: Ygrave
Encoding: 7922 7922 243
Width: 615
Flags: MW
HStem: 0 21G<265 352 265 265> 750 20G<9 112 112 112 507 606 606 606> 820 21G 959 20G
VStem: 265 87<0 369 0 369>
LayerCount: 2
Fore
SplineSet
507 770 m 1
 606 770 l 1
 352 369 l 1
 352 0 l 1
 265 0 l 1
 265 369 l 1
 9 770 l 1
 112 770 l 1
 309 461 l 1
 507 770 l 1
126 965 m 1x30
 230 965 l 1
 361 819 l 1
 292 819 l 1
 126 965 l 1x30
EndSplineSet
EndChar

StartChar: ygrave
Encoding: 7923 7923 280
Width: 513
Flags: MW
HStem: -275 21G<16 16> 530 20G<16 105 105 105 426 521 521 521> 611 21G 750 20G
LayerCount: 2
Fore
SplineSet
16 550 m 1
 105 550 l 1
 254 164 l 1
 323 333 407 534 426 550 c 1
 521 550 l 1
 493 523 478 496 260 -39 c 0
 235 -101 209 -165 158 -214 c 0
 104 -266 51 -273 16 -275 c 1
 -5 -202 l 1
 56 -198 80 -180 101 -159 c 0
 125 -136 143 -109 181 -17 c 2
 208 50 l 1
 16 550 l 1
79 756 m 1x30
 183 756 l 1
 314 610 l 1
 245 610 l 1
 79 756 l 1x30
EndSplineSet
EndChar

StartChar: endash
Encoding: 8211 8211 26
Width: 659
Flags: MW
HStem: 243 65<54 605 54 605>
LayerCount: 2
Fore
SplineSet
605 308 m 1
 605 243 l 1
 54 243 l 1
 54 308 l 1
 605 308 l 1
EndSplineSet
EndChar

StartChar: emdash
Encoding: 8212 8212 92
Width: 789
Flags: MW
HStem: 243 65<54 735 54 735>
LayerCount: 2
Fore
SplineSet
735 308 m 1
 735 243 l 1
 54 243 l 1
 54 308 l 1
 735 308 l 1
EndSplineSet
EndChar

StartChar: quoteleft
Encoding: 8216 8216 97
Width: 205
Flags: MW
HStem: 537 21G<83.5 121> 769 20G<113 113>
VStem: 44 117<596 608 576 619>
LayerCount: 2
Fore
SplineSet
161 592 m 0
 161 560 137 537 105 537 c 0
 62 537 44 573 44 619 c 0
 45 674 71 737 113 789 c 1
 159 764 l 1
 130 728 108 692 101 648 c 1
 137 648 161 624 161 592 c 0
EndSplineSet
EndChar

StartChar: quoteright
Encoding: 8217 8217 98
Width: 205
Flags: MW
HStem: 517 21G<92 92> 749 20G<84 121.5>
VStem: 44 117<698 710 687 730>
LayerCount: 2
Fore
SplineSet
44 714 m 0
 44 746 68 769 100 769 c 0
 143 769 161 733 161 687 c 0
 160 632 134 569 92 517 c 1
 46 542 l 1
 75 578 97 614 104 658 c 1
 68 658 44 682 44 714 c 0
EndSplineSet
EndChar

StartChar: quotedblleft
Encoding: 8220 8220 79
Width: 376
Flags: MW
HStem: 526 111 750 20G
VStem: 46 117 217 117
LayerCount: 2
Fore
SplineSet
161 592 m 0
 161 560 137 537 105 537 c 0
 62 537 44 573 44 619 c 0
 45 674 71 737 113 789 c 1
 159 764 l 1
 130 728 108 692 101 648 c 1
 137 648 161 624 161 592 c 0
332 592 m 0
 332 560 308 537 276 537 c 0
 233 537 215 573 215 619 c 0
 216 674 242 737 284 789 c 1
 330 764 l 1
 301 728 279 692 272 648 c 1
 308 648 332 624 332 592 c 0
EndSplineSet
EndChar

StartChar: bullet
Encoding: 8226 8226 108
Width: 338
Flags: MW
HStem: 121 230<137.5 203.5>
VStem: 54 230<204.5 270.5>
LayerCount: 2
Fore
SplineSet
54 238 m 0
 54 303 104 351 171 351 c 0
 236 351 284 303 284 238 c 0
 284 171 236 121 171 121 c 0
 104 121 54 171 54 238 c 0
EndSplineSet
EndChar

StartChar: ellipsis
Encoding: 8230 8230 105
Width: 614
Flags: MW
HStem: -7 111
VStem: 48 111 249 111 450 111
LayerCount: 2
Fore
SplineSet
44 56 m 0
 44 91 71 117 107 117 c 0
 142 117 168 91 168 56 c 0
 168 20 142 -7 107 -7 c 0
 71 -7 44 20 44 56 c 0
245 56 m 0xa0
 245 91 272 117 308 117 c 0
 343 117 369 91 369 56 c 0
 369 20 343 -7 308 -7 c 0
 272 -7 245 20 245 56 c 0xa0
446 56 m 0x90
 446 91 473 117 509 117 c 0
 544 117 570 91 570 56 c 0
 570 20 544 -7 509 -7 c 0
 473 -7 446 20 446 56 c 0x90
EndSplineSet
EndChar

StartChar: trademark
Encoding: 8482 8482 104
Width: 850
Flags: MW
HStem: 0 21G 694 76 750 20G
VStem: 69 88 471 88 1064 88
LayerCount: 2
Fore
SplineSet
471 391 m 1xdc
 401 391 l 1
 401 750 l 1
 469 750 l 1
 592 482 l 1
 600 452 l 1
 608 482 l 1
 728 750 l 1
 796 750 l 1xbc
 796 391 l 1
 725 391 l 1
 725 635 l 1
 717 603 l 1
 632 391 l 1
 566 391 l 1
 479 603 l 1
 471 635 l 1
 471 391 l 1xdc
54 693 m 1
 54 750 l 1
 371 750 l 1
 371 693 l 1
 248 693 l 1
 248 391 l 1
 177 391 l 1
 177 693 l 1
 54 693 l 1
EndSplineSet
EndChar

StartChar: minus
Encoding: 8722 8722 93
Width: 658
Flags: MW
HStem: 242 67<54 604 54 604>
LayerCount: 2
Fore
SplineSet
604 309 m 1
 604 242 l 1
 54 242 l 1
 54 309 l 1
 604 309 l 1
EndSplineSet
EndChar

StartChar: ff
Encoding: 64256 64256 200
Width: 652
Flags: MW
HStem: 0 21G<98 181 98 98 369 452 369 369> 480 70<27 98 27 98 181 369 452 614> 755 70<219.5 278 495.5 550>
VStem: 98 83<0 480 0 480 550 646> 369 83<0 480 0 480 550 646>
LayerCount: 2
Fore
SplineSet
452 646 m 1
 452 550 l 1
 614 550 l 1
 614 480 l 1
 452 480 l 1
 452 0 l 1
 369 0 l 1
 369 480 l 1
 181 480 l 1
 181 0 l 1
 98 0 l 1
 98 480 l 1
 27 480 l 1
 27 550 l 1
 98 550 l 1
 98 646 l 2
 98 749 138 825 253 825 c 0
 308 825 371 794 404 775 c 1
 429 806 467 825 524 825 c 0
 603 825 698 761 698 761 c 1
 647 710 l 1
 647 710 576 755 524 755 c 0
 457 755 453 707 452 646 c 1
181 646 m 1
 181 550 l 1
 369 550 l 1
 369 646 l 2
 369 669 371 690 375 710 c 1
 372 712 303 755 253 755 c 0
 186 755 182 707 181 646 c 1
EndSplineSet
Ligature2: "'liga' Standard Ligatures in Latin lookup 2 subtable" f f
EndChar

StartChar: fi
Encoding: 64257 64257 106
Width: 580
Flags: MW
HStem: 0 21G<103 186 103 103 413 496 413 413> 480 70<32 103 32 103 186 413> 669 101 755 70<232.5 299>
VStem: 103 83<0 480 0 480 550 646> 433 83
LayerCount: 2
Fore
SplineSet
186 646 m 1xec
 186 550 l 1
 496 550 l 1
 496 0 l 1
 413 0 l 1
 413 480 l 1
 186 480 l 1
 186 0 l 1
 103 0 l 1
 103 480 l 1
 32 480 l 1
 32 550 l 1
 103 550 l 1
 103 646 l 2
 103 749 150 825 265 825 c 0
 369 825 484 736 484 736 c 1
 433 685 l 1
 433 685 332 755 266 755 c 0xdc
 199 755 187 707 186 646 c 1xec
EndSplineSet
Ligature2: "'liga' Standard Ligatures in Latin lookup 2 subtable" f i
EndChar

StartChar: fl
Encoding: 64258 64258 170
Width: 617
Flags: MW
HStem: -12 21G<564.5 580> 0 21G<103 186 103 103> 480 70<32 103 32 103 186 348> 755 70<224.5 279 200.5 284> 800 20G<423 506 506 506>
VStem: 103 83<0 480 0 480 550 646> 449 83
LayerCount: 2
Fore
SplineSet
423 820 m 1xae
 506 820 l 1
 506 146 l 2
 506 123 506 93 519 80 c 0
 534 65 555 59 583 59 c 1
 580 -12 l 1
 549 -12 489 -9 458 22 c 0
 423 57 423 109 423 146 c 2
 423 820 l 1xae
186 646 m 1
 186 550 l 1
 348 550 l 1
 348 480 l 1
 186 480 l 1
 186 0 l 1
 103 0 l 1
 103 480 l 1
 32 480 l 1
 32 550 l 1
 103 550 l 1
 103 646 l 2
 103 749 143 825 258 825 c 0
 300 825 347 807 381 790 c 1
 381 710 l 1
 381 710 310 755 258 755 c 0x76
 191 755 187 707 186 646 c 1
EndSplineSet
Ligature2: "'liga' Standard Ligatures in Latin lookup 2 subtable" f l
EndChar

StartChar: f_f_i
Encoding: 64259 64259 201
Width: 851
Flags: MW
HStem: 0 21G<103 186 103 103 374 457 374 374 684 767 684 684> 480 70<32 103 32 103 186 374 457 684> 755 70<224.5 284 507 570>
VStem: 103 83<0 480 0 480 550 646> 374 83<0 480 0 480 550 646> 684 83<0 480 480 480>
LayerCount: 2
Fore
SplineSet
457 646 m 1
 457 550 l 1
 767 550 l 1
 767 0 l 1
 684 0 l 1
 684 480 l 1
 457 480 l 1
 457 0 l 1
 374 0 l 1
 374 480 l 1
 186 480 l 1
 186 0 l 1
 103 0 l 1
 103 480 l 1
 32 480 l 1
 32 550 l 1
 103 550 l 1
 103 646 l 2
 103 749 143 825 258 825 c 0
 314 825 380 792 412 773 c 1
 438 805 478 825 536 825 c 0
 640 825 755 736 755 736 c 1
 704 685 l 1
 704 685 603 755 537 755 c 0
 470 755 458 707 457 646 c 1
186 646 m 1
 186 550 l 1
 374 550 l 1
 374 646 l 2
 374 669 376 690 381 710 c 1
 381 710 310 755 258 755 c 0
 191 755 187 707 186 646 c 1
EndSplineSet
Ligature2: "'liga' Standard Ligatures in Latin lookup 2 subtable" f f i
EndChar

StartChar: f_f_l
Encoding: 64260 64260 202
Width: 888
Flags: MW
HStem: -20 20G<103 186 103 103 374 457 374 374> -12 21G<835.5 851> 480 70<32 103 32 103 186 374 457 619> 755 70<224.5 283 500.5 550>
VStem: 103 83<0 480 0 480 550 646> 374 83<0 480 0 480 550 646> 694 83<146 820>
LayerCount: 2
Fore
SplineSet
694 820 m 1x7e
 777 820 l 1
 777 146 l 2
 777 123 777 93 790 80 c 0
 805 65 826 59 854 59 c 1
 851 -12 l 1
 820 -12 760 -9 729 22 c 0
 694 57 694 109 694 146 c 2
 694 820 l 1x7e
457 646 m 1
 457 550 l 1
 619 550 l 1
 619 480 l 1
 457 480 l 1
 457 0 l 1
 374 0 l 1
 374 480 l 1
 186 480 l 1
 186 0 l 1
 103 0 l 1xbe
 103 480 l 1
 32 480 l 1
 32 550 l 1
 103 550 l 1
 103 646 l 2
 103 749 143 825 258 825 c 0
 313 825 376 794 409 775 c 1
 434 806 472 825 529 825 c 0
 571 825 618 807 652 790 c 1
 652 710 l 1
 652 710 581 755 529 755 c 0
 462 755 458 707 457 646 c 1
186 646 m 1
 186 550 l 1
 374 550 l 1
 374 646 l 2
 374 669 376 690 380 710 c 1
 377 712 308 755 258 755 c 0
 191 755 187 707 186 646 c 1
EndSplineSet
Ligature2: "'liga' Standard Ligatures in Latin lookup 2 subtable" f f l
EndChar

StartChar: eight.lnum
Encoding: 65545 -1 198
Width: 582
Flags: MW
HStem: 700 65<260.5 320>
VStem: 64 81<107.5 164 107.5 164> 83 82<569 640 569 663> 415 84<556.5 640> 435 83<107 194>
LayerCount: 2
Fore
SplineSet
499 601 m 0xb0
 499 498 402 422 346 388 c 1
 434 326 518 256 518 164 c 0
 518 -24 303 -15 290 -15 c 0
 278 -15 64 -21 64 164 c 1xc8
 65 267 152 349 217 389 c 1
 143 448 83 517 83 601 c 0
 83 725 192 765 290 765 c 0
 388 765 499 725 499 601 c 0xb0
435 164 m 0xc8
 435 224 358 287 272 350 c 1
 217 315 151 251 145 164 c 1
 145 51 282 55 290 55 c 0
 299 55 435 50 435 164 c 0xc8
287 431 m 1
 325 451 415 512 415 601 c 0
 415 679 350 700 290 700 c 0
 231 700 165 679 165 601 c 0xb0
 165 537 223 483 287 431 c 1
EndSplineSet
EndChar

StartChar: five.lnum
Encoding: 65542 -1 195
Width: 596
Flags: MW
HStem: -15 74<233.5 326 233.5 351.5> 432 73<266.5 344.5> 675 75<178 178 178 476>
VStem: 90 88<479 675 479 750 479 750> 452 81<200.5 312.5>
LayerCount: 2
Fore
SplineSet
178 675 m 1
 178 479 l 1
 207 492 238 505 289 505 c 0
 449 505 533 409 533 280 c 0
 533 70 425 -15 278 -15 c 0
 147 -15 69 71 69 71 c 1
 117 130 l 1
 117 130 189 59 278 59 c 0
 374 59 452 123 452 278 c 0
 452 347 400 432 289 432 c 0
 244 432 199 425 156 396 c 1
 90 396 l 1
 90 750 l 1
 476 750 l 1
 476 675 l 1
 178 675 l 1
EndSplineSet
EndChar

StartChar: fj
Encoding: 65547 -1 203
Width: 580
Flags: MW
HStem: -275 21G<359 359> -20 20G<103 186 103 103> 480 70<32 103 32 103 186 413> 755 70<232.5 299>
VStem: 103 83<0 480 0 480 550 646> 413 83<-43 480 480 480>
LayerCount: 2
Fore
SplineSet
186 646 m 1
 186 550 l 1
 496 550 l 1
 496 -43 l 2
 496 -169 420 -254 359 -275 c 1
 334 -196 l 1
 373 -191 413 -122 413 -43 c 2
 413 480 l 1
 186 480 l 1
 186 0 l 1
 103 0 l 1
 103 480 l 1
 32 480 l 1
 32 550 l 1
 103 550 l 1
 103 646 l 2
 103 749 150 825 265 825 c 0
 369 825 484 736 484 736 c 1
 433 685 l 1
 433 685 332 755 266 755 c 0
 199 755 187 707 186 646 c 1
EndSplineSet
Ligature2: "'liga' Standard Ligatures in Latin lookup 2 subtable" f j
EndChar

StartChar: four.lnum
Encoding: 65541 -1 194
Width: 621
Flags: MW
HStem: 0 21G<398 487 398 398> 184 76<163 398 163 398 487 592> 730 20G<426 487 487 487>
VStem: 398 89<0 184 0 184 260 596 596 596>
LayerCount: 2
Fore
SplineSet
592 260 m 1
 592 184 l 1
 487 184 l 1
 487 0 l 1
 398 0 l 1
 398 184 l 1
 34 184 l 1
 34 231 l 1
 426 750 l 1
 487 750 l 1
 487 260 l 1
 592 260 l 1
163 260 m 1
 398 260 l 1
 398 596 l 1
 158 271 l 1
 144 257 l 1
 144 256 l 1
 163 260 l 1
EndSplineSet
EndChar

StartChar: nine.lnum
Encoding: 65546 -1 199
Width: 608
Flags: MW
HStem: -15 79<224.5 335 224.5 344> 289 74<234.5 296 234.5 298> 692 73<235 334>
VStem: 59 83<456.5 545.5 456.5 559.5> 466 79
LayerCount: 2
Fore
SplineSet
268 289 m 0
 156 289 59 347 59 513 c 0
 59 606 115 765 292 765 c 0
 453 765 545 636 545 406 c 0
 545 180 426 -15 262 -15 c 0
 175 -15 105 39 90 50 c 1
 143 105 l 1
 143 105 191 64 258 64 c 0
 412 64 463 286 466 419 c 1
 400 317 328 289 268 289 c 0
292 692 m 0
 178 692 142 578 142 513 c 0
 142 400 201 363 268 363 c 0
 324 363 395 397 455 525 c 1
 434 632 376 692 292 692 c 0
EndSplineSet
EndChar

StartChar: one.lnum
Encoding: 65538 -1 191
Width: 363
Flags: MW
HStem: 0 21G<192 281 192 192> 730 20G<192 281 281 281>
VStem: 192 89<0 655 655 655>
LayerCount: 2
Fore
SplineSet
281 0 m 1
 192 0 l 1
 192 655 l 1
 103 580 l 1
 49 642 l 1
 192 750 l 1
 281 750 l 1
 281 0 l 1
EndSplineSet
EndChar

StartChar: seven.lnum
Encoding: 65544 -1 197
Width: 506
Flags: MW
HStem: -6 21G<61 61> 667 83<45 477 45 375>
LayerCount: 2
Fore
SplineSet
45 667 m 1
 45 750 l 1
 477 750 l 1
 477 691 l 1
 397 522 144 30 61 -6 c 1
 4 47 l 1
 66 85 279 470 375 667 c 1
 45 667 l 1
EndSplineSet
EndChar

StartChar: six.lnum
Encoding: 65543 -1 196
Width: 608
Flags: MW
HStem: -15 73<274 373 274 404.5> 387 74<312 373.5> 686 79<273 383.5>
VStem: 63 79 466 83<204.5 293.5>
LayerCount: 2
Fore
SplineSet
340 461 m 0
 452 461 549 403 549 237 c 0
 549 144 493 -15 316 -15 c 0
 155 -15 63 114 63 344 c 0
 63 570 182 765 346 765 c 0
 433 765 503 711 518 700 c 1
 465 645 l 1
 465 645 417 686 350 686 c 0
 196 686 145 464 142 331 c 1
 208 433 280 461 340 461 c 0
316 58 m 0
 430 58 466 172 466 237 c 0
 466 350 407 387 340 387 c 0
 284 387 213 353 153 225 c 1
 174 118 232 58 316 58 c 0
EndSplineSet
EndChar

StartChar: three.lnum
Encoding: 65540 -1 193
Width: 543
Flags: MW
HStem: -15 80<199 240 199 258> 686 79<185 253>
VStem: 316 82<577 632> 403 82<203.5 277 176.5 308>
LayerCount: 2
Fore
SplineSet
102 617 m 1
 55 663 l 1
 55 663 108 765 230 765 c 0
 320 765 398 700 398 608 c 0
 398 546 354 500 310 465 c 1
 403 453 482 378 485 277 c 1
 485 76 317 -15 199 -15 c 1
 104 -16 34 46 34 46 c 1
 87 96 l 1
 87 96 125 62 199 65 c 1
 281 65 403 130 403 277 c 0
 403 339 347 398 282 398 c 0
 211 398 142 372 141 373 c 1
 141 441 l 1
 234 476 316 525 316 608 c 0
 316 656 275 686 231 686 c 0
 139 686 102 617 102 617 c 1
EndSplineSet
EndChar

StartChar: two.lnum
Encoding: 65539 -1 192
Width: 536
Flags: MW
HStem: 0 76<165 482 165 482> 688 77<259 259>
VStem: 380 83<518.5 614>
LayerCount: 2
Fore
SplineSet
114 589 m 1
 114 589 60 643 60 644 c 0
 89 692 150 764 260 765 c 1
 375 765 463 697 463 579 c 0
 463 458 277 217 165 76 c 1
 482 76 l 1
 482 0 l 1
 49 0 l 1
 49 64 l 1
 49 64 380 437 380 577 c 0
 380 651 318 689 259 688 c 0
 162 687 114 589 114 589 c 1
EndSplineSet
EndChar

StartChar: zero.lnum
Encoding: 65537 -1 190
Width: 677
Flags: MW
HStem: -15 81<289.5 391 289.5 412.5> 688 77<286.5 394.5>
VStem: 59 88<263.5 487 263.5 523.5> 530 88<263.5 487>
LayerCount: 2
Fore
SplineSet
59 375 m 0
 59 672 195 765 340 765 c 0
 485 765 618 672 618 375 c 0
 618 78 485 -15 340 -15 c 0
 195 -15 59 78 59 375 c 0
530 375 m 0
 530 599 449 688 340 688 c 0
 233 688 147 599 147 375 c 0
 147 152 239 66 340 66 c 0
 442 66 530 152 530 375 c 0
EndSplineSet
EndChar
